<?xml version="1.0" encoding="utf-8"?>
<!-- Generator: Adobe Illustrator 26.0.3, SVG Export Plug-In . SVG Version: 6.00 Build 0)  -->
<svg version="1.1" id="_x2014_ëîé_x5F_1" xmlns="http://www.w3.org/2000/svg" xmlns:xlink="http://www.w3.org/1999/xlink"
	 x="0px" y="0px" viewBox="0 0 30.67 92.14" style="enable-background:new 0 0 30.67 92.14;" xml:space="preserve">
<style type="text/css">
	.st0{fill:#1955CC;}
	.st1{fill:#FD7D00;}
	.st2{enable-background:new    ;}
	.st3{fill:#0E3175;}
	.st4{clip-path:url(#SVGID_00000150061178111491867330000008943789927579704978_);enable-background:new    ;}
	.st5{fill:#0E2E6E;}
	.st6{fill:#0D2C6A;}
	.st7{fill:#0D2B68;}
	.st8{fill:#123C90;}
	.st9{fill:#164AB2;}
	.st10{clip-path:url(#SVGID_00000050664234058329046010000001461103344758897851_);enable-background:new    ;}
	.st11{fill:#113887;}
	.st12{fill:#103683;}
	.st13{fill:#10357E;}
	.st14{clip-path:url(#SVGID_00000116933520937076411980000007915899606944052666_);enable-background:new    ;}
	.st15{fill:#0E3072;}
	.st16{fill:#0F3176;}
	.st17{fill:#0F337A;}
	.st18{fill:#2C2C2C;}
	.st19{fill:#03143F;}
	.st20{fill:#0C2F78;}
	.st21{fill:#02143E;}
	.st22{fill:#4770E8;}
	.st23{fill:#125BE1;}
	.st24{fill:#051743;}
	.st25{fill:#3F64D3;}
	.st26{fill:#105BE1;}
	.st27{fill:#2F3552;}
	.st28{fill:#2448A5;}
	.st29{fill:#2F62E0;}
</style>
<g>
	<g>
		<g class="st2">
			<g>
				<polygon class="st3" points="9.12,88.91 0,83.95 1.77,79.91 10.89,84.87 				"/>
			</g>
			<g class="st2">
				<defs>
					<path id="SVGID_1_" class="st2" d="M10.89,84.87l-9.12-4.96c2.42-5.17,3.69-9.96,3.79-14.35l9.12,4.96
						C14.57,74.91,13.31,79.69,10.89,84.87z"/>
				</defs>
				<clipPath id="SVGID_00000046333677158828078300000010768308662456300952_">
					<use xlink:href="#SVGID_1_"  style="overflow:visible;"/>
				</clipPath>
				<g style="clip-path:url(#SVGID_00000046333677158828078300000010768308662456300952_);enable-background:new    ;">
					<path class="st5" d="M10.89,84.87l-9.12-4.96c0.62-1.32,1.16-2.62,1.63-3.89l9.12,4.96C12.05,82.25,11.51,83.54,10.89,84.87"/>
					<path class="st6" d="M12.52,80.97L3.4,76.01c1.36-3.7,2.08-7.19,2.16-10.46l9.12,4.96C14.6,73.78,13.88,77.27,12.52,80.97"/>
				</g>
			</g>
			<g>
				<polygon class="st7" points="14.68,70.51 5.56,65.55 5.59,51.62 14.7,56.58 				"/>
			</g>
			<g>
				<polygon class="st8" points="14.7,56.58 5.59,51.62 19.54,49.65 28.66,54.61 				"/>
			</g>
			<g>
				<path class="st9" d="M28.66,54.61l-0.08,12.1c-0.04,4.28-1.07,8.77-3.07,13.47c-2.01,4.71-4.55,8.69-7.61,11.94l-8.78-3.23
					l1.77-4.04c2.42-5.17,3.69-9.96,3.79-14.35l0.03-13.94L28.66,54.61z"/>
			</g>
		</g>
	</g>
	<g>
		<g class="st2">
			<g class="st2">
				<defs>
					<path id="SVGID_00000167372337974182129840000008840090511456107952_" class="st2" d="M17.59,0.96l9.12,4.96
						c-1.59-0.86-3.47-1.14-5.63-0.84l-9.12-4.96C14.13-0.19,16,0.09,17.59,0.96z"/>
				</defs>
				<clipPath id="SVGID_00000099623349723701779170000010544048086834044339_">
					<use xlink:href="#SVGID_00000167372337974182129840000008840090511456107952_"  style="overflow:visible;"/>
				</clipPath>
				<g style="clip-path:url(#SVGID_00000099623349723701779170000010544048086834044339_);enable-background:new    ;">
					<path class="st11" d="M21.08,5.08l-9.12-4.96c1.42-0.2,2.72-0.15,3.89,0.16l9.12,4.96C23.8,4.93,22.5,4.88,21.08,5.08"/>
					<path class="st12" d="M24.97,5.23l-9.12-4.96c0.51,0.13,1,0.31,1.47,0.54l9.12,4.96C25.97,5.55,25.48,5.37,24.97,5.23"/>
					<path class="st13" d="M26.43,5.78l-9.12-4.96c0.09,0.05,0.18,0.09,0.27,0.14l9.12,4.96C26.62,5.87,26.53,5.82,26.43,5.78"/>
				</g>
			</g>
			<g class="st2">
				<defs>
					<path id="SVGID_00000041290600385829615600000008744697359365832369_" class="st2" d="M15.43,23.09l-9.12-4.96
						c-0.45-0.25-0.88-0.54-1.28-0.88c-1.81-1.53-2.71-3.65-2.7-6.36S3.25,5.8,5.06,3.76c1.81-2.04,4.11-3.25,6.9-3.64l9.12,4.96
						c-2.79,0.39-5.09,1.61-6.9,3.64c-1.81,2.04-2.72,4.42-2.73,7.13c-0.01,2.71,0.9,4.84,2.7,6.36
						C14.55,22.56,14.98,22.85,15.43,23.09z"/>
				</defs>
				<clipPath id="SVGID_00000077285716025683540180000003948870072541475765_">
					<use xlink:href="#SVGID_00000041290600385829615600000008744697359365832369_"  style="overflow:visible;"/>
				</clipPath>
				<g style="clip-path:url(#SVGID_00000077285716025683540180000003948870072541475765_);enable-background:new    ;">
					<path class="st6" d="M15.43,23.09l-9.12-4.96c-0.45-0.25-0.88-0.54-1.28-0.88c-1.81-1.53-2.71-3.65-2.7-6.36
						c0-1.31,0.22-2.54,0.64-3.69l9.12,4.96c-0.42,1.15-0.64,2.38-0.64,3.69c-0.01,2.71,0.9,4.84,2.7,6.36
						C14.55,22.56,14.98,22.85,15.43,23.09"/>
					<path class="st5" d="M12.09,12.16L2.97,7.2c0.16-0.45,0.36-0.89,0.59-1.31l9.12,4.96C12.45,11.27,12.25,11.71,12.09,12.16"/>
					<path class="st15" d="M12.68,10.85L3.56,5.89c0.2-0.37,0.42-0.73,0.67-1.08l9.12,4.96C13.1,10.12,12.88,10.48,12.68,10.85"/>
					<path class="st16" d="M13.34,9.77L4.23,4.81c0.25-0.35,0.52-0.7,0.81-1.03l9.12,4.96C13.86,9.08,13.59,9.42,13.34,9.77"/>
					<path class="st17" d="M14.16,8.74L5.04,3.78c0.01-0.01,0.01-0.01,0.02-0.02c0.29-0.33,0.59-0.63,0.91-0.91l9.12,4.96
						c-0.31,0.28-0.62,0.59-0.91,0.91C14.17,8.73,14.16,8.73,14.16,8.74"/>
					<path class="st13" d="M15.08,7.81L5.97,2.85c0.35-0.31,0.71-0.6,1.09-0.86l9.12,4.96C15.8,7.2,15.43,7.49,15.08,7.81"/>
					<path class="st12" d="M16.18,6.94L7.06,1.98c0.48-0.33,0.99-0.62,1.52-0.87l9.12,4.96C17.16,6.32,16.66,6.61,16.18,6.94"/>
					<path class="st11" d="M17.69,6.07L8.58,1.11c1.03-0.49,2.16-0.82,3.39-0.99l9.12,4.96C19.86,5.25,18.73,5.58,17.69,6.07"/>
				</g>
			</g>
			<g>
				<path class="st9" d="M21.08,5.08c2.76-0.39,5.04,0.17,6.87,1.68c1.82,1.51,2.72,3.65,2.72,6.39c-0.01,2.75-0.92,5.13-2.74,7.15
					c-1.83,2.02-4.12,3.23-6.88,3.62c-2.79,0.39-5.09-0.18-6.89-1.71c-1.81-1.53-2.71-3.65-2.7-6.36c0.01-2.71,0.91-5.09,2.73-7.13
					C15.99,6.68,18.29,5.47,21.08,5.08z"/>
			</g>
		</g>
	</g>
</g>
</svg>
