<svg width="298" height="240" viewBox="0 0 298 240" fill="none" xmlns="http://www.w3.org/2000/svg">
<path d="M228.109 156.97H186.719C148.499 156.97 117.529 125.99 117.529 87.7796V82.5797C117.529 44.3596 148.509 13.3896 186.719 13.3896H228.109C266.329 13.3896 297.299 44.3697 297.299 82.5797V87.7796C297.299 125.99 266.319 156.97 228.109 156.97Z" fill="white"/>
<path d="M297.339 31.3399H117.559C117.409 31.3399 117.299 31.2199 117.299 31.0799V21.6899C117.299 16.9699 121.139 13.1299 125.859 13.1299H289.049C293.769 13.1299 297.609 16.9699 297.609 21.6899V31.0799C297.609 31.2299 297.489 31.3399 297.339 31.3399ZM117.829 30.8199H297.079V21.6899C297.079 17.2599 293.479 13.6599 289.049 13.6599H125.859C121.429 13.6599 117.829 17.2599 117.829 21.6899V30.8199Z" fill="black"/>
<path d="M276.879 143.92H137.939C134.009 143.92 130.819 140.73 130.819 136.8V50.4999C130.819 46.5699 134.009 43.3799 137.939 43.3799H276.869C280.799 43.3799 283.989 46.5699 283.989 50.4999V136.8C283.999 140.73 280.799 143.92 276.879 143.92ZM137.939 43.9099C134.309 43.9099 131.349 46.8699 131.349 50.4999V136.8C131.349 140.43 134.309 143.39 137.939 143.39H276.869C280.499 143.39 283.459 140.43 283.459 136.8V50.4999C283.459 46.8699 280.499 43.9099 276.869 43.9099H137.939Z" fill="black"/>
<path d="M289.019 157.24H217.359C217.209 157.24 217.099 157.12 217.099 156.98C217.099 156.84 217.219 156.72 217.359 156.72H289.019C293.439 156.72 297.029 153.13 297.029 148.71V21.6599C297.029 17.2399 293.439 13.6499 289.019 13.6499H200.999C200.849 13.6499 200.739 13.5299 200.739 13.3899C200.739 13.2399 200.859 13.1299 200.999 13.1299H289.019C293.729 13.1299 297.559 16.9599 297.559 21.6699V148.7C297.559 153.41 293.729 157.24 289.019 157.24Z" fill="black"/>
<path d="M268.379 25.5698C270.047 25.5698 271.399 24.2177 271.399 22.5498C271.399 20.8819 270.047 19.5298 268.379 19.5298C266.712 19.5298 265.359 20.8819 265.359 22.5498C265.359 24.2177 266.712 25.5698 268.379 25.5698Z" fill="black"/>
<path d="M278.249 25.5698C279.917 25.5698 281.269 24.2177 281.269 22.5498C281.269 20.8819 279.917 19.5298 278.249 19.5298C276.582 19.5298 275.229 20.8819 275.229 22.5498C275.229 24.2177 276.582 25.5698 278.249 25.5698Z" fill="black"/>
<path d="M288.129 25.5698C289.797 25.5698 291.149 24.2177 291.149 22.5498C291.149 20.8819 289.797 19.5298 288.129 19.5298C286.462 19.5298 285.109 20.8819 285.109 22.5498C285.109 24.2177 286.462 25.5698 288.129 25.5698Z" fill="black"/>
<path d="M151.999 90.1998H123.209C98.3795 90.1998 78.2395 70.0698 78.2395 45.2298C78.2395 20.3998 98.3695 0.259766 123.209 0.259766H151.999C176.829 0.259766 196.969 20.3898 196.969 45.2298C196.959 70.0698 176.829 90.1998 151.999 90.1998Z" fill="white"/>
<path d="M151.389 85.8196H123.559C101.139 85.8196 82.9695 67.6497 82.9695 45.2296C82.9695 22.8096 101.139 4.63965 123.559 4.63965H151.389C173.809 4.63965 191.979 22.8096 191.979 45.2296C191.979 67.6497 173.799 85.8196 151.389 85.8196Z" fill="white"/>
<path d="M186.429 86.0899H88.5095C85.3095 86.0899 82.6995 83.4799 82.6995 80.2799V10.1899C82.6995 6.98988 85.3095 4.37988 88.5095 4.37988H186.429C189.629 4.37988 192.239 6.98988 192.239 10.1899V80.2699C192.239 83.4799 189.629 86.0899 186.429 86.0899ZM88.5095 4.90988C85.5995 4.90988 83.2295 7.27988 83.2295 10.1899V80.2699C83.2295 83.1799 85.5995 85.5499 88.5095 85.5499H186.429C189.339 85.5499 191.709 83.1799 191.709 80.2699V10.1899C191.709 7.27988 189.339 4.90988 186.429 4.90988H88.5095Z" fill="black"/>
<path d="M117.249 90.46H85.5995C81.3995 90.46 77.9795 87.04 77.9795 82.84V7.62C77.9795 3.42 81.3995 0 85.5995 0H189.609C193.809 0 197.229 3.42 197.229 7.62V59.53C197.229 59.68 197.109 59.79 196.969 59.79C196.819 59.79 196.709 59.67 196.709 59.53V7.62C196.709 3.71 193.529 0.53 189.619 0.53H85.5995C81.6895 0.53 78.5095 3.71 78.5095 7.62V82.84C78.5095 86.75 81.6895 89.93 85.5995 89.93H117.249C117.399 89.93 117.509 90.05 117.509 90.19C117.519 90.35 117.399 90.46 117.249 90.46Z" fill="black"/>
<path d="M189.609 90.4601H143.989C143.839 90.4601 143.729 90.3401 143.729 90.2001C143.729 90.0501 143.849 89.9401 143.989 89.9401H189.609C191.739 89.9401 193.729 89.0001 195.089 87.3501C195.179 87.2401 195.349 87.2201 195.459 87.3101C195.569 87.4001 195.589 87.5701 195.499 87.6801C194.039 89.4501 191.889 90.4601 189.609 90.4601Z" fill="black"/>
<path d="M175.769 15.6799H159.409C158.639 15.6799 158.019 15.0599 158.019 14.2899C158.019 13.5199 158.639 12.8999 159.409 12.8999H175.769C176.539 12.8999 177.159 13.5199 177.159 14.2899C177.159 15.0599 176.539 15.6799 175.769 15.6799Z" fill="black"/>
<path d="M182.429 21.6301H159.409C158.639 21.6301 158.019 21.0101 158.019 20.2401C158.019 19.4701 158.639 18.8501 159.409 18.8501H182.429C183.199 18.8501 183.819 19.4701 183.819 20.2401C183.819 21.0101 183.199 21.6301 182.429 21.6301Z" fill="black"/>
<path d="M165.189 27.4597H159.409C158.639 27.4597 158.019 26.8397 158.019 26.0697C158.019 25.2997 158.639 24.6797 159.409 24.6797H165.189C165.959 24.6797 166.579 25.2997 166.579 26.0697C166.579 26.8397 165.949 27.4597 165.189 27.4597Z" fill="black"/>
<path d="M181.919 27.4597H173.449C172.679 27.4597 172.059 26.8397 172.059 26.0697C172.059 25.2997 172.679 24.6797 173.449 24.6797H181.919C182.689 24.6797 183.309 25.2997 183.309 26.0697C183.309 26.8397 182.679 27.4597 181.919 27.4597Z" fill="black"/>
<path d="M146.249 61.0197H120.059C119.289 61.0197 118.669 60.3997 118.669 59.6297C118.669 58.8597 119.289 58.2397 120.059 58.2397H146.249C147.019 58.2397 147.639 58.8597 147.639 59.6297C147.639 60.3997 147.019 61.0197 146.249 61.0197Z" fill="black"/>
<path d="M138.519 66.8498H120.059C119.289 66.8498 118.669 66.2298 118.669 65.4598C118.669 64.6898 119.289 64.0698 120.059 64.0698H138.519C139.289 64.0698 139.909 64.6898 139.909 65.4598C139.909 66.2298 139.289 66.8498 138.519 66.8498Z" fill="black"/>
<path d="M277.469 143.61C277.219 142.29 276.979 141.31 276.759 140.38C275.149 133.5 273.419 127.9 272.149 124.12L268.719 111.63L226.439 119.32C226.439 119.32 225.069 128.55 222.279 143.61H277.469Z" fill="black"/>
<path d="M231.919 142.03C236.559 142.03 239.579 136.97 237.499 132.68C237.019 131.69 236.539 130.7 236.059 129.74C232.489 122.54 222.289 124.11 221.009 132.1C220.989 132.24 220.699 132.38 220.679 132.52C220.019 137.57 223.909 142.04 228.829 142.04H231.919V142.03Z" fill="black"/>
<path d="M289.999 85.4298C289.999 67.6798 286.549 59.4898 262.41 52.8498C256.28 51.1598 247.239 50.4598 238.479 51.4398C214.079 51.7398 204.76 62.6298 196.22 62.3598C186.82 62.0598 178.999 49.8498 178.999 49.8498C175.889 46.4698 172.589 48.1798 170.819 49.1898C168.699 50.3898 167.799 53.2098 167.419 55.1898C167.169 56.4698 167.389 57.7898 168.019 58.9198C171.139 64.4998 182.089 82.8498 192.229 84.3598C200.269 85.5598 216.389 81.0798 223.729 79.6598C228.909 97.7398 220.69 132.52 220.69 132.52C226.83 128.12 247.39 133.79 260.57 138.8C267.16 141.3 273.079 139.91 277.399 137.44C281.719 134.97 274.07 109.44 274.07 109.44C274.07 109.44 289.999 100.9 289.999 85.4298Z" fill="white"/>
<path d="M267.599 140.39C265.409 140.39 263.019 140.01 260.479 139.04C248.719 134.57 227.139 128.21 220.839 132.73C220.749 132.79 220.629 132.8 220.539 132.73C220.449 132.67 220.399 132.56 220.429 132.45C220.509 132.1 228.509 97.8195 223.539 79.9495C221.979 80.2595 220.069 80.6895 217.869 81.1795C209.699 83.0195 198.509 85.5395 192.179 84.5995C181.939 83.0695 170.909 64.6395 167.779 59.0295C167.119 57.8395 166.899 56.4595 167.149 55.1295C167.559 52.9895 168.509 50.1895 170.679 48.9495C172.219 48.0695 175.829 46.0195 179.189 49.6595C179.199 49.6695 179.209 49.6795 179.219 49.6995C179.299 49.8195 187.069 61.7995 196.219 62.0795C199.429 62.1795 202.799 60.6595 207.059 58.7295C213.939 55.6195 223.359 51.3495 238.469 51.1695C246.709 50.2395 255.919 50.7795 262.479 52.5895C274.449 55.8795 281.539 59.6495 285.469 64.8095C289.449 70.0395 290.269 76.8295 290.269 85.4295C290.269 93.5095 285.899 99.6695 282.229 103.42C278.749 106.97 275.229 109.08 274.389 109.56C274.729 110.7 276.399 116.49 277.619 122.45C279.469 131.46 279.439 136.57 277.539 137.66C275.079 139.06 271.679 140.39 267.599 140.39ZM227.719 130.68C237.139 130.68 251.729 135.15 260.669 138.55C267.739 141.24 273.599 139.3 277.269 137.2C280.659 135.26 275.929 116.55 273.819 109.5C273.779 109.38 273.839 109.25 273.949 109.19C274.109 109.11 289.749 100.56 289.749 85.4295C289.749 68.5795 287.049 59.8895 262.349 53.1095C255.849 51.3195 246.719 50.7895 238.519 51.7095C223.489 51.8995 214.129 56.1295 207.299 59.2295C202.969 61.1895 199.559 62.7295 196.229 62.6295C186.889 62.3395 179.289 50.7495 178.809 50.0195C176.109 47.0995 173.329 48.0795 170.969 49.4195C168.969 50.5595 168.089 53.2095 167.699 55.2395C167.469 56.4495 167.669 57.7095 168.269 58.7895C171.369 64.3495 182.279 82.6095 192.289 84.0995C198.519 85.0295 209.659 82.5195 217.789 80.6895C220.099 80.1695 222.099 79.7195 223.709 79.4095C223.839 79.3795 223.979 79.4595 224.009 79.5995C228.769 96.2095 222.179 127.19 221.109 131.97C222.679 131.06 224.979 130.68 227.719 130.68Z" fill="black"/>
<path d="M173.929 61.3294C171.209 61.3294 169.449 58.3194 169.369 58.1894C169.299 58.0594 169.339 57.8994 169.469 57.8294C169.599 57.7594 169.759 57.7994 169.829 57.9294C169.849 57.9594 171.539 60.8394 173.979 60.7994C175.849 60.7694 177.699 59.0794 179.479 55.7594C179.549 55.6294 179.709 55.5794 179.839 55.6494C179.969 55.7194 180.019 55.8794 179.949 56.0094C178.069 59.5094 176.069 61.2994 173.989 61.3294C173.969 61.3294 173.949 61.3294 173.929 61.3294Z" fill="black"/>
<path d="M252.139 101.749C252.039 101.749 251.939 101.689 251.899 101.599C251.839 101.469 251.899 101.309 252.029 101.249C260.999 97.0993 265.339 91.0093 267.399 86.6293C269.629 81.8893 269.749 78.0993 269.749 78.0593C269.749 77.9093 269.879 77.8093 270.019 77.7993C270.169 77.7993 270.279 77.9193 270.279 78.0693C270.279 78.2293 270.159 82.0093 267.879 86.8493C265.779 91.3093 261.359 97.5093 252.249 101.719C252.209 101.739 252.169 101.749 252.139 101.749Z" fill="black"/>
<path d="M256.099 114.199C255.959 114.199 255.839 114.079 255.839 113.939C255.839 113.789 255.959 113.669 256.099 113.669C267.069 113.539 274.329 109.459 274.399 109.419C274.529 109.349 274.689 109.389 274.759 109.519C274.829 109.649 274.789 109.809 274.659 109.879C274.579 109.909 267.219 114.059 256.099 114.199Z" fill="black"/>
<path d="M245.929 113.23C245.929 113.23 248.179 113.47 252.629 112.36C255.999 111.52 254.999 100.59 250.909 103.55C247.489 106.02 245.489 106.34 245.489 106.34L242.189 104.7C240.899 104.06 239.509 103.63 238.079 103.46C232.399 102.79 232.739 104.1 232.739 104.1C232.499 105.43 232.969 105.63 234.009 106.07L238.449 107.94C239.069 108.2 239.209 109.04 238.709 109.5C237.939 110.21 237.049 110.78 236.079 111.16C234.329 111.85 231.269 112.96 228.129 113.68C226.649 114.01 226.179 115.85 227.549 116.53L237.359 117.25C239.849 117.43 242.299 116.57 244.159 114.86L245.929 113.23Z" fill="white"/>
<path d="M238.019 117.53C237.799 117.53 237.579 117.52 237.359 117.51L227.549 116.79C227.519 116.79 227.479 116.78 227.449 116.76C226.769 116.42 226.419 115.8 226.509 115.09C226.609 114.28 227.249 113.61 228.099 113.42C231.139 112.73 234.079 111.68 236.009 110.92C236.949 110.55 237.799 110.01 238.559 109.32C238.559 109.32 238.569 109.32 238.569 109.31C238.729 109.15 238.809 108.92 238.769 108.69C238.729 108.46 238.589 108.28 238.379 108.19L233.939 106.32C232.919 105.89 232.239 105.6 232.499 104.1C232.489 104 232.509 103.82 232.669 103.64C233.239 102.99 235.069 102.85 238.129 103.21C239.579 103.38 240.989 103.8 242.329 104.47L245.539 106.07C245.939 105.98 247.819 105.47 250.769 103.34C251.859 102.55 252.669 102.74 253.169 103.04C254.649 103.95 255.189 107.01 254.839 109.33C254.559 111.15 253.789 112.34 252.719 112.61C248.789 113.59 246.579 113.53 246.049 113.5L244.379 115.04C242.609 116.64 240.329 117.53 238.019 117.53ZM227.629 116.26L237.389 116.98C239.789 117.15 242.199 116.31 243.989 114.66L245.739 113.05C245.799 113 245.869 112.97 245.949 112.98C245.969 112.98 248.219 113.2 252.559 112.11C253.409 111.9 254.039 110.86 254.289 109.26C254.619 107.1 254.129 104.27 252.869 103.5C252.359 103.18 251.749 103.28 251.059 103.77C247.629 106.25 245.609 106.6 245.529 106.61C245.479 106.62 245.419 106.61 245.369 106.59L242.069 104.95C240.789 104.31 239.429 103.9 238.049 103.74C234.289 103.3 233.329 103.75 233.079 103.96C232.999 104.03 232.999 104.08 232.999 104.08C233.009 104.12 233.009 104.13 232.999 104.17C232.789 105.29 233.069 105.41 234.119 105.84L238.559 107.71C238.929 107.87 239.189 108.2 239.259 108.6C239.329 109.01 239.199 109.42 238.889 109.7L238.879 109.71C238.079 110.45 237.169 111.02 236.179 111.41C234.229 112.18 231.259 113.24 228.189 113.94C227.459 114.11 227.069 114.67 227.009 115.16C226.969 115.61 227.189 116.02 227.629 116.26Z" fill="black"/>
<path d="M151.789 33.0498C152.009 32.3998 152.649 32.0198 153.289 32.1598C155.089 32.5598 164.369 34.5998 166.099 34.9898C167.829 35.3798 167.899 37.3098 168.879 39.0698C169.739 40.5998 172.689 46.2198 175.899 50.1398C176.869 51.3198 176.999 53.0098 176.249 54.3498C175.819 55.1198 175.269 55.8698 174.619 56.3198C172.939 57.4698 171.679 58.8298 168.319 50.7798C168.109 50.2898 167.769 49.8698 167.319 49.5698C166.689 49.1598 165.709 48.4098 164.739 47.2698C164.739 47.2698 159.099 54.1598 157.659 40.1698C157.529 38.9298 158.089 37.7198 159.129 37.0998C159.209 37.0498 159.299 36.9998 159.389 36.9498L152.629 34.7798C151.939 34.5698 151.549 33.7798 151.789 33.0498Z" fill="white"/>
<path d="M172.809 57.4598C172.669 57.4598 172.519 57.4398 172.359 57.3997C171.109 57.0397 169.829 55.0897 168.069 50.8797C167.879 50.4297 167.569 50.0597 167.169 49.7897C166.549 49.3797 165.639 48.6897 164.739 47.6697C164.199 48.2397 162.699 49.6097 161.099 49.1297C159.199 48.5597 157.949 45.5497 157.399 40.1997C157.269 38.9397 157.799 37.7197 158.759 37.0397L152.559 35.0498C152.159 34.9198 151.829 34.6398 151.629 34.2498C151.429 33.8498 151.389 33.3898 151.529 32.9598C151.789 32.1798 152.569 31.7197 153.339 31.8997C153.449 31.9197 164.249 34.2998 166.149 34.7298C167.489 35.0398 167.939 36.1697 168.409 37.3797C168.609 37.8897 168.819 38.4297 169.109 38.9497C169.199 39.1197 169.319 39.3398 169.459 39.5898C170.589 41.6598 173.249 46.5098 176.099 49.9798C177.129 51.2398 177.279 53.0497 176.479 54.4897C175.939 55.4497 175.369 56.1398 174.759 56.5498L174.539 56.6997C174.009 57.0697 173.449 57.4598 172.809 57.4598ZM164.749 47.0097C164.829 47.0097 164.899 47.0397 164.949 47.0997C165.879 48.2097 166.829 48.9398 167.469 49.3498C167.959 49.6698 168.339 50.1297 168.559 50.6797C170.199 54.6097 171.459 56.5898 172.509 56.8898C173.099 57.0598 173.629 56.6898 174.249 56.2598L174.469 56.0998C174.999 55.7397 175.529 55.0997 176.019 54.2197C176.719 52.9697 176.589 51.3997 175.699 50.3097C172.819 46.7997 170.149 41.9298 169.009 39.8398C168.869 39.5798 168.749 39.3697 168.659 39.1997C168.349 38.6497 168.139 38.0998 167.929 37.5698C167.479 36.4098 167.119 35.4898 166.049 35.2498C164.149 34.8198 153.349 32.4397 153.249 32.4197C152.739 32.3097 152.219 32.6097 152.049 33.1297C151.949 33.4197 151.979 33.7397 152.119 34.0097C152.249 34.2697 152.469 34.4597 152.739 34.5397L159.499 36.7098C159.599 36.7398 159.669 36.8297 159.679 36.9397C159.689 37.0497 159.629 37.1497 159.539 37.1997C159.449 37.2497 159.369 37.2898 159.289 37.3398C158.349 37.8898 157.829 38.9897 157.949 40.1497C158.609 46.5297 160.119 48.2797 161.279 48.6297C162.889 49.1197 164.549 47.1297 164.569 47.1097C164.589 47.0397 164.669 47.0097 164.749 47.0097Z" fill="black"/>
<path d="M166.039 44.3799C165.989 44.3799 165.949 44.3699 165.909 44.3399C165.469 44.0799 164.649 43.4999 164.309 43.2599C162.479 41.9499 161.459 40.6499 161.009 39.9899C160.699 39.5299 160.539 39.0099 160.559 38.4999C160.589 37.5299 161.199 37.3099 161.499 37.2099C162.589 36.8299 164.329 37.8799 164.519 37.9999C164.639 38.0799 164.679 38.2399 164.609 38.3599C164.529 38.4799 164.369 38.5199 164.249 38.4499C163.779 38.1599 162.399 37.4599 161.679 37.7099C161.399 37.8099 161.109 37.9099 161.089 38.5199C161.079 38.9299 161.209 39.3399 161.449 39.6999C161.879 40.3299 162.849 41.5799 164.609 42.8399C164.939 43.0799 165.749 43.6499 166.169 43.8999C166.299 43.9699 166.339 44.1399 166.269 44.2599C166.219 44.3299 166.129 44.3799 166.039 44.3799Z" fill="black"/>
<path d="M164.819 47.6097C164.749 47.6097 164.679 47.5797 164.629 47.5297C163.139 45.9397 163.219 44.2497 163.229 44.1797C163.239 44.0297 163.369 43.9297 163.509 43.9297C163.659 43.9397 163.769 44.0597 163.759 44.2097C163.759 44.2297 163.689 45.7497 165.019 47.1597C165.119 47.2697 165.109 47.4297 165.009 47.5297C164.949 47.5897 164.889 47.6097 164.819 47.6097Z" fill="black"/>
<path d="M253.64 52.4296L253.03 35.8896L241.43 41.9796L241.56 52.4296C241.64 54.7596 243.56 56.0596 243.56 56.0596C245.93 57.8596 249.25 57.5396 251.67 55.7996L252.23 55.3996C253.16 54.7296 253.69 53.6096 253.64 52.4296Z" fill="white"/>
<path d="M247.259 57.5497C245.859 57.5497 244.509 57.1297 243.389 56.2797C243.319 56.2297 241.379 54.8797 241.289 52.4497L241.159 41.9897C241.159 41.8897 241.209 41.7997 241.299 41.7497L252.899 35.6597C252.979 35.6197 253.079 35.6197 253.159 35.6697C253.239 35.7197 253.289 35.7997 253.289 35.8897L253.899 52.4297C253.959 53.6997 253.389 54.8997 252.369 55.6297L251.809 56.0297C250.399 57.0397 248.799 57.5497 247.259 57.5497ZM241.689 42.1397L241.819 52.4297C241.899 54.5897 243.679 55.8297 243.699 55.8497C245.869 57.4997 248.999 57.3897 251.509 55.5897L252.069 55.1897C252.939 54.5597 253.429 53.5397 253.379 52.4397L252.779 36.3197L241.689 42.1397Z" fill="black"/>
<path d="M236.159 16.9498C239.259 16.7698 235.359 20.0398 246.819 16.5998C251.379 15.2298 249.069 20.7098 250.259 20.3498C254.629 19.0498 254.479 19.0898 256.619 19.6698C258.029 20.0498 258.949 22.7298 258.689 24.7298C258.339 27.3698 256.219 28.0598 254.339 33.6398C253.019 37.5598 253.349 39.9498 251.819 40.5198C250.269 41.0998 249.129 38.9698 247.399 39.4698C245.159 40.1198 245.599 44.1198 243.409 45.7698C242.029 46.8198 238.829 47.2998 233.689 44.7298C232.859 44.3098 232.429 43.3398 232.679 42.4198C232.999 41.2398 233.399 39.7498 233.909 38.3598C236.309 31.7298 238.599 30.2298 237.769 28.5198C236.499 25.8898 231.659 27.3998 230.859 25.2398C230.009 22.9998 231.919 17.1998 236.159 16.9498Z" fill="black"/>
<path d="M246.969 28.3598L246.079 30.0598C245.659 30.8598 245.299 31.6898 244.989 32.5398C244.419 34.1398 243.319 36.8498 242.729 38.3798C240.809 43.2998 234.929 37.8998 234.929 37.8998L234.519 36.5499L233.729 36.2198C233.579 36.1598 233.439 36.0598 233.329 35.9198C233.079 35.5798 233.079 35.1398 233.289 34.8098C234.469 33.0098 236.939 28.9798 237.819 25.3598C237.839 25.3598 242.879 24.0198 246.969 28.3598Z" fill="white"/>
<path d="M240.08 40.71C237.65 40.71 234.889 38.21 234.769 38.09C234.739 38.06 234.709 38.0199 234.699 37.9699L234.33 36.7399L233.649 36.46C233.439 36.37 233.269 36.2399 233.149 36.0799C232.839 35.6699 232.819 35.0999 233.099 34.6699C234.159 33.0699 236.709 28.9399 237.589 25.3099C237.609 25.2199 237.69 25.14 237.78 25.12C237.83 25.11 243.03 23.7899 247.17 28.1899C247.25 28.2699 247.259 28.3899 247.209 28.4899L246.319 30.1899C245.909 30.9799 245.55 31.8 245.25 32.64C244.83 33.8 244.129 35.58 243.569 37C243.349 37.55 243.149 38.06 242.989 38.48C242.519 39.68 241.779 40.41 240.789 40.64C240.549 40.69 240.32 40.71 240.08 40.71ZM235.17 37.75C235.6 38.13 238.529 40.62 240.659 40.12C241.469 39.93 242.079 39.3099 242.479 38.2899C242.639 37.8699 242.849 37.36 243.059 36.8C243.62 35.38 244.319 33.6099 244.729 32.4499C245.039 31.5899 245.41 30.7399 245.83 29.9299L246.629 28.3999C243.109 24.7899 238.88 25.4099 238.03 25.5799C237.12 29.1199 234.81 32.9599 233.5 34.9499C233.34 35.1999 233.35 35.5199 233.53 35.7599C233.6 35.8499 233.689 35.9199 233.819 35.9699L234.61 36.3C234.68 36.33 234.739 36.3899 234.759 36.4699L235.17 37.75Z" fill="black"/>
<path d="M245.719 34.3C245.719 34.3 247.849 30.2 249.439 31.6C251.039 32.99 248.589 37.44 245.719 34.3Z" fill="white"/>
<path d="M237.85 34.9997C237.4 34.9997 237.02 34.8597 236.73 34.5697C236.18 34.0397 235.94 33.0197 236.02 31.5497C236.08 30.4197 236.4 29.7397 236.99 29.4797C237.42 29.2897 237.88 29.2697 238.28 29.4397C238.61 29.5797 238.87 29.8297 238.98 30.1197C239.69 31.9897 239.39 33.5297 238.88 34.3497C238.64 34.7397 238.35 34.9597 238.06 34.9897C237.98 34.9897 237.92 34.9997 237.85 34.9997ZM237.69 29.8497C237.53 29.8497 237.36 29.8897 237.2 29.9597C236.81 30.1297 236.6 30.6597 236.54 31.5697C236.47 32.8597 236.66 33.7697 237.09 34.1797C237.32 34.3997 237.62 34.4897 238 34.4597C238.09 34.4497 238.26 34.3297 238.42 34.0697C238.84 33.3897 239.11 31.9997 238.47 30.3097C238.41 30.1497 238.26 30.0097 238.06 29.9297C237.95 29.8697 237.83 29.8497 237.69 29.8497Z" fill="black"/>
<path d="M247.64 31.1097C247.63 31.1097 247.62 31.1097 247.61 31.1097L237.929 29.8497C237.789 29.8297 237.679 29.6997 237.699 29.5497C237.719 29.4097 237.85 29.2997 238 29.3197L247.679 30.5797C247.819 30.5997 247.929 30.7297 247.909 30.8797C247.879 31.0197 247.77 31.1097 247.64 31.1097Z" fill="black"/>
<path d="M233.62 33.9597C233.58 33.9597 233.54 33.9497 233.5 33.9297C233.22 33.7997 233.019 33.2797 232.929 32.9797C232.639 32.0397 232.54 30.6597 233.14 29.5897C233.34 29.2297 233.63 29.0097 234 28.9397C234.92 28.7697 235.99 29.6297 236.03 29.6597C236.14 29.7497 236.159 29.9197 236.069 30.0297C235.979 30.1397 235.81 30.1597 235.7 30.0697C235.44 29.8597 234.659 29.3497 234.099 29.4497C233.889 29.4897 233.719 29.6197 233.599 29.8397C232.789 31.2797 233.489 33.2597 233.739 33.4497C233.869 33.5097 233.92 33.6697 233.86 33.7997C233.81 33.9097 233.72 33.9597 233.62 33.9597Z" fill="black"/>
<path d="M183.45 138.53C187.498 138.53 190.78 135.248 190.78 131.2C190.78 127.151 187.498 123.87 183.45 123.87C179.401 123.87 176.12 127.151 176.12 131.2C176.12 135.248 179.401 138.53 183.45 138.53Z" fill="white"/>
<path d="M183.449 138.79C179.259 138.79 175.859 135.38 175.859 131.2C175.859 127.01 179.269 123.61 183.449 123.61C187.629 123.61 191.039 127.02 191.039 131.2C191.039 135.39 187.629 138.79 183.449 138.79ZM183.449 124.14C179.549 124.14 176.379 127.31 176.379 131.21C176.379 135.11 179.549 138.28 183.449 138.28C187.349 138.28 190.519 135.11 190.519 131.21C190.509 127.31 187.339 124.14 183.449 124.14Z" fill="black"/>
<path d="M207.409 138.53C211.458 138.53 214.739 135.248 214.739 131.2C214.739 127.151 211.458 123.87 207.409 123.87C203.361 123.87 200.079 127.151 200.079 131.2C200.079 135.248 203.361 138.53 207.409 138.53Z" fill="white"/>
<path d="M207.409 138.79C203.219 138.79 199.819 135.38 199.819 131.2C199.819 127.01 203.229 123.61 207.409 123.61C211.589 123.61 214.999 127.02 214.999 131.2C214.999 135.39 211.599 138.79 207.409 138.79ZM207.409 124.14C203.509 124.14 200.339 127.31 200.339 131.21C200.339 135.11 203.509 138.28 207.409 138.28C211.309 138.28 214.479 135.11 214.479 131.21C214.479 127.31 211.309 124.14 207.409 124.14Z" fill="black"/>
<path d="M204.979 134.04V128.37C204.979 128.08 205.279 127.89 205.539 128.02L211.209 130.82C211.499 130.96 211.499 131.37 211.209 131.52L205.539 134.39C205.279 134.52 204.979 134.33 204.979 134.04Z" fill="black"/>
<path d="M231.369 138.53C235.418 138.53 238.699 135.248 238.699 131.2C238.699 127.151 235.418 123.87 231.369 123.87C227.321 123.87 224.039 127.151 224.039 131.2C224.039 135.248 227.321 138.53 231.369 138.53Z" fill="white"/>
<path d="M231.369 138.79C227.179 138.79 223.779 135.38 223.779 131.2C223.779 127.01 227.189 123.61 231.369 123.61C235.549 123.61 238.959 127.02 238.959 131.2C238.969 135.39 235.559 138.79 231.369 138.79ZM231.369 124.14C227.469 124.14 224.299 127.31 224.299 131.21C224.299 135.11 227.469 138.28 231.369 138.28C235.269 138.28 238.439 135.11 238.439 131.21C238.439 127.31 235.269 124.14 231.369 124.14Z" fill="black"/>
<path d="M233.779 133.86C233.709 133.86 233.639 133.83 233.589 133.78L228.699 128.89C228.599 128.79 228.599 128.62 228.699 128.52C228.799 128.42 228.969 128.42 229.069 128.52L233.959 133.41C234.059 133.51 234.059 133.68 233.959 133.78C233.909 133.84 233.849 133.86 233.779 133.86Z" fill="black"/>
<path d="M228.889 133.86C228.819 133.86 228.749 133.83 228.699 133.78C228.599 133.68 228.599 133.51 228.699 133.41L233.589 128.52C233.689 128.42 233.859 128.42 233.959 128.52C234.059 128.62 234.059 128.79 233.959 128.89L229.069 133.78C229.019 133.84 228.959 133.86 228.889 133.86Z" fill="black"/>
<path d="M19.7295 114.17C6.80948 116.94 0.549477 140.82 0.269477 156.27C-0.190523 182.57 16.2695 207.78 38.9795 219.89C69.1595 235.99 114.159 230.98 128.979 204.83C137.819 189.22 136.609 164.87 124.309 155.09C111.979 145.28 99.3195 158.72 75.7395 152.7C43.1695 144.39 35.8895 110.71 19.7295 114.17Z" fill="white"/>
<path d="M77.3395 229.39C63.7495 229.39 50.2095 226.19 38.8595 220.14C15.1695 207.51 -0.440521 181.84 0.00947878 156.28C0.159479 147.71 2.02948 138.03 5.00948 130.38C7.58948 123.75 12.2295 115.52 19.6695 113.92C27.3395 112.27 32.9995 118.77 40.1495 126.99C48.3095 136.36 58.4595 148.02 75.7995 152.45C87.0695 155.33 95.6795 153.76 103.279 152.38C111.489 150.89 117.969 149.72 124.469 154.89C130.269 159.5 134.049 167.84 134.829 177.76C135.589 187.39 133.539 197.31 129.199 204.97C125.599 211.32 120.159 216.62 113.029 220.72C106.429 224.51 98.3895 227.19 89.7695 228.48C85.6695 229.08 81.4995 229.39 77.3395 229.39ZM19.7795 114.43C12.5695 115.98 8.03948 124.06 5.49948 130.56C2.53948 138.15 0.679479 147.77 0.529479 156.28C0.0794788 181.65 15.5795 207.12 39.0995 219.66C53.8295 227.52 72.2695 230.53 89.6995 227.95C107.659 225.28 121.889 216.81 128.749 204.71C133.039 197.14 135.069 187.33 134.309 177.81C133.529 168.03 129.829 159.83 124.139 155.31C117.829 150.29 111.449 151.45 103.379 152.91C95.7295 154.3 87.0595 155.87 75.6695 152.97C58.1695 148.5 47.9595 136.77 39.7495 127.35C32.7095 119.24 27.1495 112.85 19.7795 114.43Z" fill="black"/>
<path d="M26.2395 193.049C26.2095 193.049 26.1695 193.04 26.1395 193.03C26.0095 192.97 25.9395 192.819 25.9995 192.679C29.0495 185.319 39.2095 183.899 39.3095 183.879C39.4495 183.859 39.5895 183.96 39.6095 184.11C39.6295 184.25 39.5295 184.389 39.3795 184.409C39.2795 184.419 29.4195 185.809 26.4895 192.879C26.4395 192.989 26.3395 193.049 26.2395 193.049Z" fill="black"/>
<path d="M40.0795 197.58C39.9495 197.58 39.8295 197.48 39.8195 197.34C39.0695 190.24 43.2495 185.55 43.2895 185.5C43.3895 185.39 43.5495 185.38 43.6595 185.48C43.7695 185.58 43.7795 185.75 43.6795 185.85C43.6395 185.89 39.6095 190.42 40.3395 197.28C40.3595 197.43 40.2495 197.56 40.1095 197.57C40.0995 197.58 40.0895 197.58 40.0795 197.58Z" fill="black"/>
<path d="M126.45 203.98C126.54 204.23 136.23 214.05 136.23 214.05L130.27 216.78L122.43 208.23L126.45 203.98Z" fill="white"/>
<path d="M130.28 217.04C130.21 217.04 130.14 217.01 130.09 216.95L122.25 208.4C122.16 208.3 122.16 208.14 122.25 208.04L126.26 203.79C126.32 203.72 126.42 203.7 126.51 203.71C126.59 203.73 126.65 203.77 126.69 203.84C127 204.26 132.67 210.04 136.43 213.85C136.49 213.91 136.52 214 136.5 214.08C136.48 214.16 136.43 214.24 136.35 214.27L130.39 217C130.35 217.03 130.31 217.04 130.28 217.04ZM122.8 208.23L130.34 216.46L135.78 213.97C130.44 208.55 127.31 205.34 126.45 204.37L122.8 208.23Z" fill="black"/>
<path d="M129.95 212.58C130.16 212.05 130.53 211.44 131.209 211.02C132.229 210.4 133.54 210.52 134.5 211.23C136.9 213.02 143.42 218.08 147.23 223.07C148.57 224.83 147.98 227.2 145.01 227.2C140.14 227.2 132.36 225.33 125.79 219.84C125.04 219.21 124.65 218.24 124.77 217.27C124.87 216.47 125.06 215.48 125.4 214.53C125.72 213.63 126.66 213.1 127.6 213.27L128.45 213.42C129.08 213.54 129.71 213.18 129.95 212.58Z" fill="white"/>
<path d="M145 227.47C139.92 227.47 132.16 225.52 125.61 220.05C124.78 219.35 124.36 218.3 124.5 217.24C124.64 216.2 124.85 215.26 125.14 214.45C125.5 213.42 126.56 212.82 127.64 213.01L128.49 213.16C129 213.25 129.51 212.97 129.7 212.48C129.98 211.75 130.46 211.17 131.07 210.79C132.15 210.13 133.59 210.22 134.66 211.02C137.24 212.94 143.65 217.94 147.44 222.91C148.2 223.9 148.38 225.09 147.93 226C147.46 226.95 146.42 227.47 145 227.47ZM127.23 213.5C126.52 213.5 125.88 213.94 125.64 214.62C125.36 215.4 125.16 216.3 125.03 217.31C124.91 218.19 125.26 219.07 125.95 219.65C132.39 225.03 140.01 226.95 145 226.95C145 226.95 145 226.95 145.01 226.95C146.22 226.95 147.09 226.54 147.46 225.78C147.82 225.04 147.66 224.07 147.02 223.24C143.27 218.33 136.91 213.36 134.35 211.45C133.45 210.78 132.25 210.7 131.35 211.25C130.83 211.57 130.45 212.05 130.2 212.68C129.92 213.4 129.16 213.82 128.41 213.69L127.56 213.54C127.44 213.51 127.34 213.5 127.23 213.5Z" fill="black"/>
<path d="M143.3 225.16C140.41 225.16 135.23 224.02 127.08 218.51C126.96 218.43 126.93 218.26 127.01 218.14C127.09 218.02 127.26 217.99 127.38 218.07C140.73 227.09 145.93 224.17 145.98 224.14C146.11 224.06 146.27 224.11 146.34 224.23C146.42 224.36 146.37 224.52 146.25 224.59C146.16 224.64 145.24 225.16 143.3 225.16Z" fill="black"/>
<path d="M138.29 219.96C138.23 219.96 138.17 219.94 138.12 219.9C138.01 219.81 137.99 219.64 138.09 219.53L140.41 216.74C140.5 216.63 140.67 216.61 140.78 216.71C140.89 216.8 140.91 216.97 140.81 217.08L138.49 219.87C138.44 219.93 138.37 219.96 138.29 219.96Z" fill="black"/>
<path d="M136.01 218.29C135.95 218.29 135.88 218.27 135.83 218.22C135.72 218.12 135.71 217.96 135.81 217.85L138.37 214.97C138.47 214.86 138.629 214.85 138.739 214.95C138.849 215.05 138.86 215.21 138.76 215.32L136.2 218.2C136.16 218.26 136.09 218.29 136.01 218.29Z" fill="black"/>
<path d="M107.709 210.53L105.569 223L100.77 219.74L102.259 207.79L107.709 210.53Z" fill="white"/>
<path d="M105.569 223.26C105.519 223.26 105.469 223.24 105.419 223.21L100.619 219.95C100.539 219.89 100.489 219.8 100.509 219.7L101.999 207.75C102.009 207.66 102.059 207.59 102.139 207.55C102.219 207.51 102.309 207.51 102.379 207.55L107.829 210.29C107.929 210.34 107.989 210.46 107.969 210.57L105.839 223.04C105.819 223.13 105.769 223.2 105.679 223.24C105.639 223.26 105.609 223.26 105.569 223.26ZM101.059 219.61L105.389 222.55L107.419 210.68L102.479 208.19L101.059 219.61Z" fill="black"/>
<path d="M107.039 220.679C106.969 224.529 106.709 232.269 104.109 237.889C103.409 239.399 100.369 239.449 99.1595 237.519C96.6395 233.479 93.3195 226.559 94.5795 217.919C94.6795 217.239 95.0895 216.659 95.6995 216.339C96.4095 215.959 97.5295 215.479 99.1495 215.089C99.9495 214.899 100.759 215.429 100.899 216.239L101.429 219.229L101.789 218.709C102.329 217.929 103.329 217.609 104.219 217.939C104.699 218.119 105.229 218.319 105.709 218.499C106.579 218.829 107.059 219.719 107.039 220.679Z" fill="white"/>
<path d="M101.959 239.259C100.719 239.259 99.5495 238.649 98.9295 237.649C94.8895 231.179 93.3395 224.529 94.3095 217.869C94.4195 217.109 94.8895 216.449 95.5595 216.089C96.2295 215.729 97.3895 215.219 99.0695 214.819C99.5295 214.709 99.9995 214.789 100.399 215.049C100.789 215.309 101.059 215.719 101.139 216.179L101.559 218.539C102.169 217.659 103.289 217.309 104.289 217.689L105.779 218.25C106.729 218.61 107.319 219.559 107.299 220.679C107.239 223.799 107.079 232.069 104.339 237.989C104.009 238.709 103.199 239.179 102.189 239.239C102.119 239.259 102.039 239.259 101.959 239.259ZM99.4795 215.309C99.3895 215.309 99.2995 215.319 99.2095 215.339C97.5795 215.729 96.4695 216.219 95.8295 216.559C95.2995 216.839 94.9395 217.359 94.8495 217.949C93.8995 224.479 95.4195 231.019 99.3895 237.369C100.069 238.449 101.309 238.78 102.169 238.72C102.989 238.67 103.629 238.309 103.879 237.769C106.569 231.949 106.729 223.75 106.789 220.669C106.809 219.76 106.359 219.019 105.609 218.739L104.119 218.179C103.339 217.889 102.469 218.159 101.999 218.849L101.639 219.369C101.579 219.459 101.469 219.499 101.369 219.479C101.269 219.459 101.179 219.369 101.169 219.269L100.639 216.28C100.579 215.96 100.399 215.68 100.129 215.5C99.9195 215.37 99.6995 215.309 99.4795 215.309Z" fill="black"/>
<path d="M101.509 236.88C101.429 236.88 101.349 236.84 101.289 236.77C95.4995 228.68 96.2095 218.66 96.2195 218.56C96.2295 218.41 96.3595 218.31 96.4995 218.32C96.6495 218.33 96.7495 218.46 96.7395 218.6C96.7295 218.7 96.0395 228.54 101.719 236.46C101.809 236.58 101.779 236.74 101.659 236.83C101.609 236.87 101.559 236.88 101.509 236.88Z" fill="black"/>
<path d="M106.379 226.249C106.359 226.249 106.339 226.249 106.319 226.239L102.679 225.399C102.539 225.369 102.449 225.229 102.479 225.079C102.509 224.939 102.649 224.849 102.799 224.879L106.439 225.719C106.579 225.749 106.669 225.889 106.639 226.039C106.609 226.159 106.499 226.249 106.379 226.249Z" fill="black"/>
<path d="M105.859 229.4C105.829 229.4 105.809 229.4 105.779 229.39L102.319 228.3C102.179 228.26 102.099 228.11 102.149 227.97C102.189 227.83 102.339 227.75 102.479 227.8L105.939 228.89C106.079 228.93 106.159 229.08 106.109 229.22C106.079 229.33 105.979 229.4 105.859 229.4Z" fill="black"/>
<path d="M73.3895 155.98C73.3895 155.98 90.4395 153.01 106.379 160.91C110.399 162.9 113.009 166.92 113.229 171.4C113.659 180.29 113.609 196.59 108.929 211C108.659 211.82 107.759 212.25 106.959 211.94L99.8295 209.24C99.3495 209.06 98.9995 208.65 98.8895 208.15C98.1995 204.92 95.7995 192.62 97.0395 183.54C98.4795 173 64.2595 163.77 64.2595 163.77L73.3895 155.98Z" fill="black"/>
<path d="M128.449 206.05L122.469 210.46C122.069 210.75 121.519 210.72 121.159 210.37C117.119 206.39 94.2895 184.07 88.7195 181.28C82.5995 178.22 71.2395 173.74 61.1695 174.35C51.0995 174.96 48.5995 168.08 48.5995 168.08L62.4495 158.02C62.4495 158.02 87.4495 159.48 98.4095 167.45C108.309 174.65 125.449 199.85 128.679 204.67C128.989 205.12 128.879 205.73 128.449 206.05Z" fill="black"/>
<path d="M113.769 183.62C113.689 183.62 113.619 183.59 113.559 183.52C109.049 177.91 102.089 170.44 98.2595 167.66C96.0395 166.05 93.0495 164.58 89.3895 163.3C89.2495 163.25 89.1795 163.1 89.2295 162.96C89.2795 162.82 89.4295 162.75 89.5695 162.8C93.2895 164.1 96.3195 165.59 98.5795 167.23C102.449 170.04 109.449 177.55 113.979 183.19C114.069 183.3 114.049 183.47 113.939 183.56C113.889 183.6 113.829 183.62 113.769 183.62Z" fill="white"/>
<path d="M61.7195 136.3L63.2895 140.21C65.1495 144.87 68.2395 148.93 72.2295 151.97L73.8495 153.2C74.8895 153.99 76.1495 154.41 77.4595 154.41H77.6595C79.6495 154.4 81.5795 155.12 83.0695 156.43L78.5195 157.54C75.7495 158.22 72.8095 157.8 70.3595 156.33C68.0195 154.92 65.1795 152.68 62.9395 149.27C58.2295 142.13 57.3195 137.87 57.3195 137.87L61.7195 136.3Z" fill="white"/>
<path d="M75.8695 158.12C73.8795 158.12 71.9395 157.59 70.2095 156.55C67.1295 154.7 64.6095 152.3 62.6995 149.41C58.0095 142.31 57.0795 138.1 57.0495 137.92C57.0195 137.79 57.0895 137.66 57.2195 137.62L61.6295 136.04C61.7595 135.99 61.9095 136.06 61.9595 136.19L63.5295 140.1C65.3795 144.71 68.4395 148.74 72.3795 151.75L73.9995 152.98C74.9795 153.73 76.2195 154.13 77.4395 154.13H77.6395C79.6895 154.11 81.6795 154.86 83.2295 156.22C83.2995 156.29 83.3395 156.39 83.3095 156.48C83.2895 156.58 83.2095 156.65 83.1195 156.67L78.5695 157.78C77.6795 158.02 76.7695 158.12 75.8695 158.12ZM57.6295 138.05C57.8895 139.01 59.1195 143.03 63.1495 149.14C65.0095 151.96 67.4795 154.31 70.4895 156.11C72.8695 157.54 75.6995 157.96 78.4495 157.29L82.4895 156.31C81.1195 155.26 79.4395 154.68 77.7095 154.68C77.6895 154.68 77.6795 154.68 77.6595 154.68H77.4595C77.4495 154.68 77.4295 154.68 77.4195 154.68C76.0795 154.68 74.7595 154.23 73.6895 153.42L72.0695 152.19C68.0495 149.12 64.9295 145.02 63.0495 140.32L61.5795 136.64L57.6295 138.05Z" fill="black"/>
<path d="M53.4695 172.15C53.4695 172.15 47.5195 176.05 44.5095 174.59C41.4995 173.13 47.2095 168.21 48.7995 168.12C50.3895 168.02 53.4695 172.15 53.4695 172.15Z" fill="black"/>
<path d="M58.9995 108.73C61.4895 109.36 64.2895 110.99 63.7295 114.75C63.2695 117.83 59.9795 118.53 58.3695 120.07C53.1595 125.07 57.3795 131.19 53.2195 136.25C49.2595 141.07 44.0495 137.18 36.3295 142.49C30.2495 146.67 51.6495 141.19 43.9895 145.51C37.8695 148.95 26.9395 147.85 21.2595 140.3C15.8595 133.13 15.2295 122.9 21.6095 118.45C27.3495 114.44 30.8095 119.85 36.8795 116.14C42.8695 112.48 42.3795 106.85 46.0595 105.4C51.0995 103.43 52.8195 107.17 58.9995 108.73Z" fill="black"/>
<path d="M26.2895 144.39C26.7495 142.51 27.3795 140.31 27.9695 138.87C29.7695 134.44 30.9895 131.56 36.2395 129.23C37.0295 128.88 37.8495 128.61 38.6795 128.4L41.8095 127.6C41.8095 127.6 54.6895 124.9 59.3995 130.14C59.7795 130.56 60.2695 131.05 60.5595 131.59L63.4995 136.79L63.4695 136.8C60.4595 137.79 58.9795 141.2 60.3495 144.06C61.9195 147.35 64.1395 151.22 66.4995 152.93C67.2495 153.47 73.3395 156.5 73.3395 156.5C73.3395 156.5 74.5495 161.31 64.5895 164.65C54.6295 167.99 47.4795 168.94 45.0995 173.78C43.6895 176.64 39.8095 162.16 37.6095 148.7C37.1895 146.11 34.9295 144.22 32.2995 144.28L26.2895 144.39Z" fill="white"/>
<path d="M44.6695 174.39C44.6395 174.39 44.6095 174.39 44.5795 174.38C42.4495 174.06 38.9995 158.88 37.3395 148.72C36.9395 146.27 34.7695 144.48 32.2995 144.52L26.2995 144.65C26.2195 144.64 26.1395 144.61 26.0895 144.55C26.0395 144.49 26.0195 144.4 26.0395 144.32C26.5795 142.11 27.2095 140.03 27.7295 138.76C29.4695 134.47 30.7295 131.38 36.1395 128.97C36.8895 128.64 37.7295 128.35 38.6195 128.12L41.7495 127.32C42.2895 127.21 54.8495 124.64 59.5995 129.94C59.6595 130.01 59.7295 130.08 59.7995 130.16C60.1495 130.54 60.5395 130.96 60.7995 131.45L63.7395 136.65C63.7795 136.72 63.7795 136.8 63.7595 136.87C63.7295 136.94 63.6695 137 63.5995 137.03L63.5695 137.04C62.1995 137.49 61.0895 138.51 60.5195 139.83C59.9595 141.15 59.9895 142.64 60.5995 143.93C62.0595 146.98 64.2995 150.98 66.6695 152.7C67.2495 153.12 71.3695 155.2 73.4795 156.25C73.5495 156.28 73.5995 156.35 73.6195 156.42C73.6695 156.63 74.7695 161.51 64.6995 164.88C62.4595 165.63 60.3195 166.27 58.4295 166.84C51.8895 168.81 47.1595 170.23 45.3595 173.87C45.1195 174.29 44.8695 174.39 44.6695 174.39ZM32.3995 143.99C35.0895 143.99 37.4195 145.97 37.8595 148.63C40.1095 162.37 43.4195 173.67 44.6595 173.85C44.7095 173.86 44.7795 173.77 44.8495 173.63C46.7495 169.78 51.5695 168.33 58.2395 166.33C60.1295 165.76 62.2595 165.12 64.4995 164.37C73.2695 161.43 73.1895 157.37 73.0995 156.65C72.2195 156.21 67.0395 153.63 66.3395 153.11C63.8795 151.33 61.5895 147.25 60.1095 144.14C59.4295 142.72 59.3895 141.06 60.0195 139.6C60.6095 138.22 61.7295 137.15 63.1195 136.61L60.3395 131.68C60.1095 131.25 59.7395 130.85 59.4195 130.5C59.3495 130.42 59.2795 130.35 59.2195 130.28C54.6695 125.21 42.0095 127.8 41.8895 127.83L38.7695 128.63C37.8995 128.85 37.0995 129.13 36.3695 129.45C31.1595 131.77 29.9895 134.63 28.2295 138.95C27.7495 140.13 27.1595 142.04 26.6495 144.1L32.3095 143.98C32.3195 144 32.3595 143.99 32.3995 143.99Z" fill="black"/>
<path d="M63.1195 158.969L58.5295 157.299C57.8495 157.049 57.0895 157.179 56.5195 157.629L54.3495 159.369C53.9395 159.699 53.4095 159.859 52.8795 159.819C50.5695 159.629 40.1095 156.399 39.0795 154.549C38.5695 153.639 37.9095 150.519 37.4295 147.939C37.0295 145.779 35.1195 144.229 32.9295 144.279L28.1995 144.379C28.1995 144.379 29.4095 155.779 33.2095 159.489C36.1695 162.359 43.1995 163.889 53.4495 163.439C53.4495 163.439 55.5895 163.229 57.4195 161.119C58.5895 159.769 61.3695 160.519 63.0295 160.139C63.6395 159.999 63.6895 159.179 63.1195 158.969Z" fill="white"/>
<path d="M49.9795 163.78C41.7295 163.78 35.7795 162.35 33.0395 159.68C29.2095 155.95 27.9995 144.88 27.9495 144.41C27.9395 144.34 27.9695 144.26 28.0095 144.21C28.0595 144.15 28.1295 144.12 28.1995 144.12L32.9295 144.02C35.2595 143.97 37.2695 145.6 37.6995 147.9C38.3595 151.46 38.9195 153.72 39.3195 154.43C40.2995 156.18 50.6295 159.38 52.9195 159.56C53.3795 159.6 53.8395 159.46 54.1995 159.17L56.3695 157.43C56.9995 156.92 57.8695 156.78 58.6395 157.06L63.2295 158.73C63.5995 158.87 63.8295 159.21 63.7995 159.6C63.7795 160 63.5095 160.31 63.1195 160.4C62.5095 160.54 61.7895 160.53 61.0195 160.53C59.6995 160.52 58.3295 160.51 57.6495 161.3C55.7695 163.47 53.5995 163.7 53.4995 163.71C52.2795 163.75 51.1095 163.78 49.9795 163.78ZM28.4995 144.64C28.7195 146.42 30.0395 156.03 33.3995 159.3C36.3795 162.19 43.6795 163.61 53.4495 163.17C53.4595 163.17 55.4995 162.94 57.2295 160.94C58.0695 159.97 59.5595 159.98 61.0095 159.99C61.7395 160 62.4295 160 62.9795 159.87C63.1595 159.83 63.2395 159.68 63.2495 159.56C63.2595 159.44 63.1995 159.28 63.0195 159.22L58.4295 157.55C57.8395 157.33 57.1695 157.45 56.6795 157.84L54.5095 159.58C54.0395 159.95 53.4595 160.13 52.8595 160.08C50.6095 159.9 39.9795 156.7 38.8495 154.68C38.4195 153.91 37.8595 151.66 37.1795 147.99C36.7995 145.95 35.0195 144.49 32.9495 144.55L28.4995 144.64Z" fill="black"/>
<path d="M43.3595 127.38C43.3595 127.38 47.0895 119.28 47.3195 118.26C47.3195 118.26 46.5395 117.71 46.7595 116.43C47.1695 113.99 49.4395 115.53 49.4395 115.53L49.6695 115.62C51.0195 116.14 52.4895 116.26 53.8995 115.96L56.8695 115.34C56.8695 115.34 57.3295 116.46 56.3695 118.38C55.9095 119.3 55.8295 120.42 55.8495 121.61C55.8595 121.92 55.6095 122.18 55.2895 122.19L54.5195 122.21C53.9995 123.08 53.5795 123.58 52.8395 124.08C52.6395 124.22 52.3895 124.27 52.1495 124.23C51.8295 124.17 51.3295 124.03 50.7895 123.72L49.8895 127.25L51.7795 127.45C51.7795 127.45 52.1595 129.79 48.3795 130.94C46.2895 131.58 43.5295 131.03 41.4695 130.41C40.4095 130.09 40.3295 128.63 41.3495 128.2L43.3595 127.38Z" fill="white"/>
<path d="M46.2595 131.5C44.5695 131.5 42.7895 131.09 41.3995 130.67C40.8095 130.49 40.4095 129.98 40.3795 129.37C40.3495 128.76 40.6895 128.21 41.2595 127.97L43.1595 127.18C44.3995 124.5 46.6495 119.5 47.0195 118.35C46.7695 118.1 46.3095 117.47 46.4995 116.39C46.6295 115.62 46.9495 115.12 47.4495 114.9C48.3095 114.53 49.3695 115.17 49.5595 115.29L49.7595 115.37C51.0595 115.87 52.4695 115.99 53.8395 115.7L56.8095 115.08C56.9295 115.06 57.0595 115.12 57.1095 115.24C57.1295 115.29 57.5995 116.49 56.5995 118.5C56.1395 119.43 56.0895 120.59 56.1095 121.61C56.1195 122.07 55.7495 122.45 55.2895 122.46L54.6595 122.47C54.1395 123.33 53.6895 123.81 52.9795 124.3C52.7195 124.48 52.3995 124.55 52.0995 124.49C51.8195 124.44 51.4095 124.33 50.9695 124.11L50.2295 127.02L51.8195 127.19C51.9395 127.2 52.0295 127.29 52.0495 127.41C52.0695 127.51 52.4295 129.99 48.4695 131.2C47.7895 131.41 47.0295 131.5 46.2595 131.5ZM48.0295 115.32C47.8995 115.32 47.7695 115.34 47.6495 115.39C47.3195 115.53 47.1095 115.9 47.0095 116.48C46.8295 117.57 47.4395 118.03 47.4595 118.05C47.5395 118.11 47.5895 118.22 47.5595 118.32C47.3295 119.35 43.7395 127.16 43.5795 127.49C43.5495 127.55 43.4995 127.6 43.4395 127.62L41.4495 128.45C41.0195 128.63 40.8795 129.02 40.8895 129.33C40.9095 129.64 41.0795 130.02 41.5395 130.16C43.4895 130.75 46.2495 131.32 48.2995 130.69C51.1795 129.81 51.4995 128.24 51.5195 127.69L49.8695 127.52C49.7895 127.51 49.7195 127.47 49.6795 127.41C49.6395 127.35 49.6195 127.27 49.6395 127.19L50.5395 123.66C50.5595 123.58 50.6195 123.51 50.6895 123.48C50.7695 123.45 50.8495 123.45 50.9295 123.5C51.4295 123.79 51.8995 123.92 52.1995 123.98C52.3695 124.01 52.5395 123.97 52.6895 123.87C53.3695 123.41 53.7695 122.95 54.2895 122.08C54.3395 122 54.4195 121.95 54.5095 121.95L55.2795 121.93C55.4495 121.93 55.5795 121.79 55.5795 121.62C55.5595 120.54 55.6095 119.3 56.1295 118.27C56.7795 116.96 56.7395 116.04 56.6695 115.65L53.9495 116.22C52.4795 116.52 50.9695 116.4 49.5695 115.86L49.3395 115.77C49.3195 115.76 49.2995 115.75 49.2895 115.74C49.0795 115.61 48.5295 115.32 48.0295 115.32Z" fill="black"/>
<path d="M50.7995 123.99C50.7495 123.99 50.6995 123.98 50.6595 123.95L50.1695 123.64C50.0495 123.56 50.0095 123.4 50.0895 123.28C50.1695 123.16 50.3295 123.12 50.4595 123.2L50.9495 123.51C51.0695 123.59 51.1095 123.75 51.0295 123.87C50.9695 123.95 50.8795 123.99 50.7995 123.99Z" fill="black"/>
<path d="M88.1995 161.93L66.0695 162.08L80.0095 140.56C80.5295 139.75 81.4395 139.25 82.4195 139.25L100.279 139.13C101.449 139.12 102.169 140.37 101.549 141.33L88.1995 161.93Z" fill="white"/>
<path d="M66.0695 162.34C65.9695 162.34 65.8795 162.29 65.8395 162.2C65.7895 162.11 65.7995 162.01 65.8495 161.93L79.7895 140.41C80.3595 139.52 81.3495 138.98 82.4195 138.98L100.279 138.86H100.289C100.929 138.86 101.519 139.2 101.829 139.76C102.129 140.31 102.109 140.95 101.769 141.47L88.4095 162.08C88.3595 162.15 88.2795 162.2 88.1895 162.2L66.0695 162.34ZM100.299 139.38L82.4295 139.5C81.5295 139.51 80.7095 139.95 80.2395 140.69L66.5595 161.8L88.0595 161.66L101.339 141.17C101.569 140.81 101.589 140.37 101.379 140C101.159 139.61 100.759 139.38 100.299 139.38Z" fill="black"/>
<path d="M87.0695 151.16C86.5695 151.94 85.4995 152.57 84.6595 152.58C83.8295 152.59 83.5595 151.96 84.0595 151.18C84.5595 150.4 85.6295 149.77 86.4695 149.76C87.2895 149.75 87.5595 150.38 87.0695 151.16Z" fill="black"/>
<path d="M88.2595 163.09L58.1595 163.29C57.6795 163.29 57.2695 162.69 57.0995 161.85C57.0195 161.43 57.3395 161.04 57.7695 161.04L88.9395 160.83C89.1795 160.83 89.3795 161.03 89.3495 161.27C89.2595 162.3 88.8095 163.08 88.2595 163.09Z" fill="white"/>
<path d="M58.1495 163.55C57.5495 163.55 57.0295 162.9 56.8295 161.9C56.7795 161.62 56.8495 161.34 57.0295 161.12C57.2095 160.9 57.4795 160.77 57.7595 160.77L88.9295 160.56C89.1295 160.55 89.3095 160.64 89.4395 160.78C89.5695 160.92 89.6295 161.1 89.6095 161.29C89.4995 162.5 88.9395 163.35 88.2595 163.35L58.1495 163.55C58.1595 163.55 58.1595 163.55 58.1495 163.55ZM88.9395 161.09L57.7695 161.3C57.6395 161.3 57.5195 161.36 57.4395 161.46C57.3595 161.56 57.3295 161.68 57.3495 161.8C57.4895 162.51 57.8295 163.04 58.1495 163.03L88.2495 162.83C88.5895 162.83 88.9895 162.24 89.0795 161.25C89.0795 161.2 89.0595 161.16 89.0395 161.15C89.0295 161.11 88.9895 161.09 88.9395 161.09Z" fill="black"/>
<path d="M223.629 213.14C223.539 213.14 223.459 213.11 223.389 213.04C223.259 212.91 223.259 212.7 223.389 212.56L225.229 210.72C225.359 210.59 225.569 210.59 225.709 210.72C225.839 210.85 225.839 211.06 225.709 211.2L223.869 213.04C223.799 213.11 223.719 213.14 223.629 213.14Z" fill="black"/>
<path d="M219.339 217.43C219.249 217.43 219.169 217.4 219.099 217.33C218.969 217.2 218.969 216.99 219.099 216.85L220.939 215.01C221.069 214.88 221.279 214.88 221.419 215.01C221.549 215.14 221.549 215.35 221.419 215.49L219.579 217.33C219.509 217.4 219.419 217.43 219.339 217.43Z" fill="black"/>
<path d="M221.179 213.14C221.089 213.14 221.009 213.11 220.939 213.04L219.099 211.2C218.969 211.07 218.969 210.86 219.099 210.72C219.229 210.58 219.439 210.59 219.579 210.72L221.419 212.56C221.549 212.69 221.549 212.9 221.419 213.04C221.349 213.11 221.269 213.14 221.179 213.14Z" fill="black"/>
<path d="M225.479 217.43C225.389 217.43 225.309 217.4 225.239 217.33L223.399 215.49C223.269 215.36 223.269 215.15 223.399 215.01C223.529 214.87 223.739 214.88 223.879 215.01L225.719 216.85C225.849 216.98 225.849 217.19 225.719 217.33C225.649 217.4 225.559 217.43 225.479 217.43Z" fill="black"/>
<path d="M215.339 204.32C215.019 204.32 214.699 204.26 214.399 204.14C213.739 203.88 213.209 203.37 212.929 202.71C212.349 201.36 212.949 199.77 214.279 199.18C214.919 198.89 215.629 198.87 216.279 199.13C216.939 199.39 217.469 199.9 217.749 200.56C218.329 201.91 217.729 203.5 216.399 204.09C216.059 204.24 215.699 204.32 215.339 204.32ZM215.329 199.62C215.059 199.62 214.789 199.68 214.539 199.79C213.549 200.24 213.089 201.43 213.529 202.44C213.739 202.94 214.129 203.32 214.629 203.51C215.109 203.7 215.639 203.68 216.119 203.47C217.109 203.02 217.569 201.83 217.129 200.82C216.919 200.32 216.529 199.94 216.029 199.75C215.809 199.67 215.569 199.62 215.329 199.62Z" fill="black"/>
<path d="M243.679 211.2C243.619 211.2 243.559 211.2 243.499 211.19C242.849 211.14 242.269 210.85 241.849 210.36C241.439 209.88 241.229 209.27 241.279 208.64C241.379 207.33 242.539 206.34 243.859 206.44C244.509 206.49 245.089 206.78 245.509 207.27C245.919 207.75 246.129 208.36 246.079 208.99C245.989 210.24 244.929 211.2 243.679 211.2ZM241.949 208.69C241.919 209.14 242.059 209.58 242.359 209.92C242.659 210.27 243.089 210.48 243.549 210.52C244.509 210.58 245.339 209.88 245.409 208.94C245.439 208.49 245.299 208.05 244.999 207.71C244.699 207.36 244.269 207.15 243.809 207.11C242.849 207.05 242.019 207.75 241.949 208.69Z" fill="black"/>
<path d="M131.169 38.5602L134.909 39.8202V41.9202L128.869 39.4602V37.6402L134.909 35.1802V37.2702L131.169 38.5602Z" fill="black"/>
<path d="M137.119 43.58H135.489L138.889 32.77H140.529L137.119 43.58Z" fill="black"/>
<path d="M145.079 38.5399L141.359 37.2799V35.1899L147.369 37.6499V39.4699L141.359 41.9299V39.8399L145.079 38.5399Z" fill="black"/>
<path d="M93.7295 26.2799C92.0895 25.8199 91.2695 24.7599 91.2695 23.0999V21.7499C91.2695 20.8299 90.8995 20.3699 90.1595 20.3699V18.8199C90.8995 18.8199 91.2695 18.3599 91.2695 17.4299V15.9899C91.2795 15.1699 91.4995 14.5099 91.9095 13.9999C92.3195 13.4899 92.9295 13.1299 93.7295 12.8999L94.1595 14.0999C93.5895 14.3199 93.2895 14.9299 93.2595 15.9399V17.4199C93.2595 18.4399 92.8395 19.1599 91.9995 19.5799C92.8395 19.9999 93.2595 20.7199 93.2595 21.7499V23.2299C93.2795 24.2399 93.5795 24.8499 94.1595 25.0699L93.7295 26.2799Z" fill="black"/>
<path d="M96.5095 21.5898C96.8695 21.5898 97.1795 21.6998 97.4195 21.9098C97.6595 22.1198 97.7795 22.3998 97.7795 22.7398C97.7795 23.0798 97.6595 23.3498 97.4195 23.5698C97.1795 23.7898 96.8795 23.8898 96.5095 23.8898C96.1395 23.8898 95.8395 23.7798 95.5995 23.5598C95.3595 23.3398 95.2395 23.0698 95.2395 22.7298C95.2395 22.3898 95.3595 22.1198 95.5995 21.8998C95.8395 21.6798 96.1395 21.5898 96.5095 21.5898Z" fill="black"/>
<path d="M100.739 21.5898C101.099 21.5898 101.409 21.6998 101.649 21.9098C101.889 22.1198 102.009 22.3998 102.009 22.7398C102.009 23.0798 101.889 23.3498 101.649 23.5698C101.409 23.7898 101.109 23.8898 100.739 23.8898C100.369 23.8898 100.069 23.7798 99.8295 23.5598C99.5895 23.3398 99.4695 23.0698 99.4695 22.7298C99.4695 22.3898 99.5895 22.1198 99.8295 21.8998C100.069 21.6798 100.369 21.5898 100.739 21.5898Z" fill="black"/>
<path d="M104.969 21.5898C105.329 21.5898 105.639 21.6998 105.879 21.9098C106.119 22.1198 106.239 22.3998 106.239 22.7398C106.239 23.0798 106.119 23.3498 105.879 23.5698C105.639 23.7898 105.339 23.8898 104.969 23.8898C104.599 23.8898 104.299 23.7798 104.059 23.5598C103.819 23.3398 103.699 23.0698 103.699 22.7298C103.699 22.3898 103.819 22.1198 104.059 21.8998C104.299 21.6798 104.599 21.5898 104.969 21.5898Z" fill="black"/>
<path d="M109.199 21.5898C109.559 21.5898 109.869 21.6998 110.109 21.9098C110.349 22.1198 110.469 22.3998 110.469 22.7398C110.469 23.0798 110.349 23.3498 110.109 23.5698C109.869 23.7898 109.569 23.8898 109.199 23.8898C108.829 23.8898 108.529 23.7798 108.289 23.5598C108.049 23.3398 107.929 23.0698 107.929 22.7298C107.929 22.3898 108.049 22.1198 108.289 21.8998C108.529 21.6798 108.829 21.5898 109.199 21.5898Z" fill="black"/>
<path d="M113.429 21.5898C113.789 21.5898 114.099 21.6998 114.339 21.9098C114.579 22.1198 114.699 22.3998 114.699 22.7398C114.699 23.0798 114.579 23.3498 114.339 23.5698C114.099 23.7898 113.799 23.8898 113.429 23.8898C113.059 23.8898 112.759 23.7798 112.519 23.5598C112.279 23.3398 112.159 23.0698 112.159 22.7298C112.159 22.3898 112.279 22.1198 112.519 21.8998C112.759 21.6798 113.059 21.5898 113.429 21.5898Z" fill="black"/>
<path d="M118.059 37.0697C118.629 36.8497 118.929 36.2397 118.959 35.2297V33.7497C118.959 32.7197 119.379 31.9997 120.229 31.5897C119.379 31.1797 118.959 30.4597 118.959 29.4297V27.9497C118.939 26.9397 118.639 26.3297 118.059 26.1097L118.489 24.9097C119.309 25.1397 119.919 25.5097 120.329 26.0297C120.739 26.5497 120.949 27.2297 120.949 28.0597V29.4297C120.949 30.3597 121.319 30.8197 122.059 30.8197V32.3697C121.319 32.3697 120.949 32.8297 120.949 33.7397V35.1997C120.919 36.7997 120.099 37.8297 118.489 38.2797L118.059 37.0697Z" fill="black"/>
</svg>
