<svg width="299" height="238" viewBox="0 0 299 238" fill="none" xmlns="http://www.w3.org/2000/svg">
<path d="M192.068 127.218L146.638 127.498C146.348 127.498 146.248 127.768 146.248 128.038V166.688C146.248 170.388 120.438 179.998 120.188 179.518L120.158 183.608C120.158 184.368 120.828 185.048 121.678 185.048H122.248H122.258H160.348C162.118 185.048 163.858 184.648 165.458 183.978L186.398 175.158C190.168 173.568 192.548 170.158 192.548 166.438V127.748C192.548 127.488 192.368 127.218 192.068 127.218Z" fill="black"/>
<path d="M141.648 125.248V163.908C141.648 167.718 139.198 171.188 135.338 172.838L121.208 178.868C120.288 179.258 120.598 180.498 121.618 180.498H160.428C162.178 180.498 163.898 180.158 165.478 179.488L181.128 172.898C185.008 171.268 187.488 167.778 187.488 163.948V125.248C187.488 125.088 187.348 124.958 187.168 124.958H141.958C141.798 124.968 141.648 125.088 141.648 125.248Z" fill="white"/>
<path d="M160.448 180.788H121.638C120.918 180.788 120.508 180.318 120.408 179.848C120.298 179.328 120.578 178.828 121.108 178.598L135.238 172.568C138.958 170.978 141.368 167.578 141.368 163.908V125.248C141.368 124.928 141.638 124.668 141.978 124.668H187.188C187.528 124.668 187.798 124.928 187.798 125.248V163.948C187.798 167.878 185.228 171.498 181.258 173.168L165.608 179.758C164.008 180.428 162.218 180.788 160.448 180.788ZM141.938 125.258V163.908C141.938 167.808 139.398 171.418 135.458 173.098L121.328 179.128C121.048 179.248 120.918 179.468 120.968 179.728C121.008 179.948 121.218 180.198 121.628 180.198H160.438C162.138 180.198 163.838 179.858 165.378 179.208L181.028 172.618C184.788 171.038 187.208 167.628 187.208 163.938V125.248C187.208 125.258 187.198 125.248 187.178 125.248H141.968C141.958 125.258 141.948 125.258 141.938 125.258Z" fill="black"/>
<path d="M56.7384 147.408L252.538 147.848C254.248 147.848 255.958 146.558 256.178 144.858L272.088 22.338C272.468 19.368 270.168 16.418 267.218 16.488L73.6884 17.508L56.7384 147.408Z" fill="black"/>
<path d="M259.528 17.178C262.898 17.178 265.938 20.598 265.508 23.938L250.058 144.548C249.838 146.248 248.018 147.688 246.308 147.688L53.9684 147.378C51.9184 147.378 50.5384 145.678 50.8084 143.628L66.8084 20.788C67.0284 19.088 68.1584 17.178 69.8684 17.178H259.528Z" fill="white"/>
<path d="M246.298 147.988L53.9584 147.678C52.9184 147.678 51.9884 147.268 51.3484 146.538C50.6784 145.768 50.3684 144.708 50.5084 143.608L66.5084 20.768C66.7484 18.898 68.0084 16.908 69.8484 16.908H259.518C261.218 16.908 262.908 17.728 264.168 19.148C265.408 20.558 265.998 22.328 265.788 23.998L250.348 144.588C250.108 146.398 248.218 147.988 246.298 147.988ZM69.8584 17.468C68.3384 17.468 67.2984 19.198 67.0884 20.828L51.0884 143.668C50.9684 144.618 51.2184 145.498 51.7884 146.148C52.3284 146.758 53.0984 147.098 53.9684 147.098L246.308 147.408C247.928 147.408 249.578 146.028 249.778 144.518L265.228 23.908C265.418 22.408 264.878 20.808 263.748 19.518C262.608 18.218 261.068 17.468 259.538 17.468H69.8584Z" fill="black"/>
<path d="M241.778 142.498L60.0584 142.208C59.0984 142.208 58.2384 141.828 57.6384 141.148C57.0184 140.438 56.7284 139.448 56.8584 138.428L71.5784 25.4281C71.7984 23.6981 72.9684 21.8481 74.6784 21.8481H253.948C255.518 21.8481 257.088 22.6081 258.238 23.9181C259.388 25.2181 259.928 26.8581 259.728 28.3981L245.518 139.358C245.308 141.028 243.558 142.498 241.778 142.498ZM74.6784 22.4281C73.2984 22.4281 72.3384 24.0081 72.1484 25.4981L57.4284 138.508C57.3184 139.368 57.5384 140.178 58.0684 140.768C58.5584 141.328 59.2684 141.628 60.0584 141.628L241.778 141.918C243.258 141.918 244.768 140.658 244.948 139.278L259.158 28.3181C259.338 26.9381 258.838 25.4781 257.808 24.2981C256.758 23.1081 255.348 22.4181 253.948 22.4181H74.6784V22.4281Z" fill="black"/>
<path d="M234.838 37.738H160.968C160.888 37.738 160.808 37.698 160.748 37.638C160.698 37.578 160.668 37.488 160.678 37.408L161.178 33.708C161.198 33.568 161.318 33.458 161.468 33.458H235.338C235.418 33.458 235.498 33.498 235.558 33.558C235.608 33.618 235.638 33.708 235.628 33.788L235.128 37.488C235.108 37.638 234.978 37.738 234.838 37.738ZM161.298 37.158H234.588L235.008 34.028H161.718L161.298 37.158Z" fill="black"/>
<path d="M250.778 43.5579H175.518L176.008 39.8579H251.278L250.778 43.5579Z" fill="black"/>
<path d="M240.878 49.948H201.978C201.898 49.948 201.818 49.908 201.758 49.848C201.708 49.788 201.678 49.698 201.688 49.618L202.188 45.918C202.208 45.778 202.328 45.668 202.478 45.668H241.378C241.458 45.668 241.538 45.708 241.598 45.768C241.648 45.828 241.678 45.918 241.668 45.998L241.168 49.698C241.148 49.848 241.028 49.948 240.878 49.948ZM202.308 49.378H240.628L241.048 46.248H202.728L202.308 49.378Z" fill="black"/>
<path d="M228.268 86.5881H154.398C154.318 86.5881 154.238 86.5481 154.178 86.4881C154.128 86.4281 154.098 86.3381 154.108 86.2581L154.608 82.5581C154.628 82.4181 154.748 82.3081 154.898 82.3081H228.768C228.848 82.3081 228.928 82.3481 228.988 82.4081C229.038 82.4681 229.068 82.5581 229.058 82.6381L228.558 86.3381C228.538 86.4781 228.418 86.5881 228.268 86.5881ZM154.728 86.0081H228.018L228.438 82.8781H155.148L154.728 86.0081Z" fill="black"/>
<path d="M188.298 92.688H168.948C168.868 92.688 168.788 92.648 168.728 92.588C168.678 92.528 168.648 92.438 168.658 92.358L169.158 88.658C169.178 88.518 169.298 88.408 169.448 88.408H186.958C187.118 88.408 187.248 88.538 187.248 88.698C187.248 88.858 187.118 88.988 186.958 88.988H169.708L169.288 92.118H188.308C188.468 92.118 188.598 92.248 188.598 92.408C188.598 92.568 188.458 92.688 188.298 92.688Z" fill="black"/>
<path d="M244.208 92.688H197.718C197.558 92.688 197.428 92.5579 197.428 92.3979C197.428 92.2379 197.558 92.1079 197.718 92.1079H243.948L244.368 88.978H195.208C195.048 88.978 194.918 88.848 194.918 88.688C194.918 88.528 195.048 88.3979 195.208 88.3979H244.698C244.778 88.3979 244.858 88.4379 244.918 88.4979C244.968 88.5579 244.998 88.648 244.988 88.728L244.488 92.4279C244.478 92.5879 244.358 92.688 244.208 92.688Z" fill="black"/>
<path d="M243.388 98.7981H203.188C203.028 98.7981 202.898 98.6681 202.898 98.5081C202.898 98.3481 203.028 98.2181 203.188 98.2181H243.138L243.558 95.0881H200.968C200.808 95.0881 200.678 94.9581 200.678 94.7981C200.678 94.6381 200.808 94.5081 200.968 94.5081H243.888C243.968 94.5081 244.048 94.5481 244.108 94.6081C244.158 94.6681 244.188 94.7581 244.178 94.8381L243.678 98.5381C243.658 98.6881 243.538 98.7981 243.388 98.7981Z" fill="black"/>
<path d="M194.478 104.648H167.058C166.978 104.648 166.898 104.608 166.838 104.548C166.788 104.488 166.758 104.398 166.768 104.318L167.268 100.618C167.288 100.478 167.408 100.368 167.558 100.368H190.118C190.278 100.368 190.408 100.498 190.408 100.658C190.408 100.818 190.278 100.948 190.118 100.948H167.808L167.388 104.078H194.478C194.638 104.078 194.768 104.208 194.768 104.368C194.768 104.518 194.638 104.648 194.478 104.648Z" fill="black"/>
<path d="M232.378 55.7681H158.508L158.998 52.0681H232.868L232.378 55.7681Z" fill="black"/>
<path d="M237.548 61.878H173.048L173.548 58.168H237.648L237.548 61.878Z" fill="black"/>
<path d="M228.518 74.3779H198.688C198.608 74.3779 198.528 74.3379 198.468 74.2779C198.418 74.2179 198.388 74.1279 198.398 74.0479L198.898 70.3479C198.918 70.2079 199.038 70.0979 199.188 70.0979H229.018C229.098 70.0979 229.178 70.1379 229.238 70.1979C229.288 70.2579 229.318 70.3479 229.308 70.4279L228.808 74.1279C228.788 74.2679 228.668 74.3779 228.518 74.3779ZM199.028 73.7979H228.268L228.688 70.6679H199.448L199.028 73.7979Z" fill="black"/>
<path d="M236.618 80.188H206.798L207.288 76.488H237.118L236.618 80.188Z" fill="black"/>
<path d="M235.188 67.9781H199.518L200.018 64.2781H235.328L235.188 67.9781Z" fill="black"/>
<path d="M224.988 110.718H151.118L151.618 107.018H225.488L224.988 110.718Z" fill="white"/>
<path d="M204.658 117.118H165.658C165.578 117.118 165.498 117.078 165.438 117.018C165.388 116.958 165.358 116.868 165.368 116.788L165.868 113.088C165.888 112.948 166.008 112.838 166.158 112.838H203.328C203.488 112.838 203.618 112.968 203.618 113.128C203.618 113.288 203.488 113.418 203.328 113.418H166.408L165.988 116.548H204.658C204.818 116.548 204.948 116.678 204.948 116.838C204.948 116.988 204.818 117.118 204.658 117.118Z" fill="black"/>
<path d="M225.178 123.218H192.138C192.058 123.218 191.978 123.178 191.918 123.118C191.868 123.058 191.838 122.968 191.848 122.888L192.348 119.188C192.368 119.048 192.488 118.938 192.638 118.938H224.008C224.168 118.938 224.298 119.068 224.298 119.228C224.298 119.388 224.168 119.518 224.008 119.518H192.898L192.478 122.648H225.188C225.348 122.648 225.478 122.778 225.478 122.938C225.458 123.088 225.338 123.218 225.178 123.218Z" fill="black"/>
<path d="M222.528 129.038H148.658L149.148 125.338H223.018L222.528 129.038Z" fill="white"/>
<path d="M224.878 135.428H163.198C163.118 135.428 163.038 135.388 162.978 135.328C162.928 135.268 162.898 135.178 162.908 135.098L163.408 131.398C163.428 131.258 163.548 131.148 163.698 131.148H225.168C225.328 131.148 225.458 131.278 225.458 131.438C225.458 131.598 225.328 131.728 225.168 131.728H163.948L163.528 134.858H224.878C225.038 134.858 225.168 134.988 225.168 135.148C225.168 135.298 225.038 135.428 224.878 135.428Z" fill="black"/>
<path d="M149.078 80.1179H141.888L142.368 76.5579H149.558L149.078 80.1179Z" fill="black"/>
<path d="M155.088 37.448H147.588L148.088 33.748H155.588L155.088 37.448Z" fill="black"/>
<path d="M155.838 31.8379H148.338L148.838 28.1379H156.338L155.838 31.8379Z" fill="black"/>
<path d="M154.208 43.5579H146.768L147.268 39.8579H154.708L154.208 43.5579Z" fill="black"/>
<path d="M153.138 49.668H146.068L146.568 45.958H153.638L153.138 49.668Z" fill="black"/>
<path d="M152.358 55.7679H145.168L145.658 52.0679H152.848L152.358 55.7679Z" fill="black"/>
<path d="M151.498 61.878H144.308L144.798 58.168H151.988L151.498 61.878Z" fill="black"/>
<path d="M150.068 73.8379H142.938L143.438 70.1379H150.568L150.068 73.8379Z" fill="black"/>
<path d="M150.708 67.7378H143.898L144.388 64.0278H151.208L150.708 67.7378Z" fill="black"/>
<path d="M146.588 98.6679H139.388L139.868 95.1079H147.068L146.588 98.6679Z" fill="black"/>
<path d="M147.568 92.388H140.448L140.948 88.688H148.068L147.568 92.388Z" fill="black"/>
<path d="M148.208 86.2779H141.398L141.898 82.5779H148.708L148.208 86.2779Z" fill="black"/>
<path d="M141.728 134.778H134.538L135.018 131.228H142.208L141.728 134.778Z" fill="black"/>
<path d="M145.788 104.328H138.728L139.218 100.628H146.288L145.788 104.328Z" fill="black"/>
<path d="M145.008 110.428H137.818L138.308 106.728H145.498L145.008 110.428Z" fill="black"/>
<path d="M144.148 116.538H136.958L137.458 112.838H144.648L144.148 116.538Z" fill="black"/>
<path d="M142.718 128.508H135.588L136.088 124.798H143.218L142.718 128.508Z" fill="black"/>
<path d="M143.358 122.398H136.548L137.048 118.698H143.858L143.358 122.398Z" fill="black"/>
<path d="M116.948 31.028H81.3884L81.8684 27.468H117.428L116.948 31.028Z" fill="black"/>
<path d="M123.198 37.498H85.7084C85.6284 37.498 85.5484 37.458 85.4884 37.398C85.4384 37.338 85.4084 37.248 85.4184 37.168L85.9184 33.468C85.9384 33.328 86.0584 33.218 86.2084 33.218H123.688C123.768 33.218 123.848 33.258 123.908 33.318C123.958 33.378 123.988 33.468 123.978 33.548L123.478 37.248C123.458 37.388 123.338 37.498 123.198 37.498ZM86.0484 36.918H122.948L123.368 33.788H86.4684L86.0484 36.918Z" fill="black"/>
<path d="M132.988 43.5981H89.3284C89.2484 43.5981 89.1684 43.5581 89.1084 43.4981C89.0584 43.4381 89.0284 43.3481 89.0384 43.2681L89.5384 39.5681C89.5584 39.4281 89.6784 39.3181 89.8284 39.3181H133.498C133.578 39.3181 133.658 39.3581 133.718 39.4181C133.768 39.4781 133.798 39.5681 133.788 39.6481L133.288 43.3481C133.258 43.4981 133.138 43.5981 132.988 43.5981ZM89.6584 43.0281H132.748L133.168 39.8981H90.0784L89.6584 43.0281Z" fill="black"/>
<path d="M138.588 49.708H102.148C102.068 49.708 101.988 49.668 101.928 49.608C101.878 49.548 101.848 49.458 101.858 49.378L102.358 45.678C102.378 45.538 102.498 45.428 102.648 45.428H139.088C139.168 45.428 139.248 45.468 139.308 45.528C139.358 45.588 139.388 45.678 139.378 45.758L138.878 49.458C138.858 49.598 138.738 49.708 138.588 49.708ZM102.478 49.128H138.338L138.758 45.998H102.898L102.478 49.128Z" fill="black"/>
<path d="M103.618 79.8781H74.8184L75.2984 76.3181H104.098L103.618 79.8781Z" fill="black"/>
<path d="M104.068 86.3381H83.0084C82.9284 86.3381 82.8484 86.2981 82.7884 86.2381C82.7384 86.1781 82.7084 86.0881 82.7184 86.0081L83.2184 82.3081C83.2384 82.1681 83.3584 82.0581 83.5084 82.0581H104.568C104.648 82.0581 104.728 82.0981 104.788 82.1581C104.838 82.2181 104.868 82.3081 104.858 82.3881L104.358 86.0881C104.338 86.2381 104.218 86.3381 104.068 86.3381ZM83.3384 85.7681H103.818L104.238 82.6381H83.7584L83.3384 85.7681Z" fill="black"/>
<path d="M111.608 92.448H91.4484C91.3684 92.448 91.2884 92.408 91.2284 92.348C91.1784 92.288 91.1484 92.198 91.1584 92.118L91.6584 88.418C91.6784 88.278 91.7984 88.168 91.9484 88.168H112.108C112.188 88.168 112.268 88.208 112.328 88.268C112.378 88.328 112.408 88.418 112.398 88.498L111.898 92.198C111.878 92.338 111.758 92.448 111.608 92.448ZM91.7784 91.868H111.358L111.778 88.738H92.1984L91.7784 91.868Z" fill="black"/>
<path d="M124.958 98.5481H99.4484C99.3684 98.5481 99.2884 98.5081 99.2284 98.4481C99.1784 98.3881 99.1484 98.2981 99.1584 98.2181L99.6584 94.5181C99.6784 94.3781 99.7984 94.2681 99.9484 94.2681H125.458C125.538 94.2681 125.618 94.3081 125.678 94.3681C125.728 94.4281 125.758 94.5181 125.748 94.5981L125.248 98.2981C125.228 98.4481 125.108 98.5481 124.958 98.5481ZM99.7784 97.9781H124.708L125.128 94.8481H100.198L99.7784 97.9781Z" fill="black"/>
<path d="M104.308 55.5281H78.5584L79.0584 51.8181H104.808L104.308 55.5281Z" fill="black"/>
<path d="M136.308 61.9179H96.5184C96.4384 61.9179 96.3584 61.8779 96.2984 61.8179C96.2484 61.7579 96.2184 61.6679 96.2284 61.5879L96.7284 57.8879C96.7484 57.7479 96.8684 57.6379 97.0184 57.6379H136.808C136.888 57.6379 136.968 57.6779 137.028 57.7379C137.078 57.7979 137.108 57.8879 137.098 57.9679L136.598 61.6679C136.578 61.8079 136.458 61.9179 136.308 61.9179ZM96.8484 61.3379H136.058L136.478 58.2079H97.2684L96.8484 61.3379Z" fill="black"/>
<path d="M102.988 67.7281H77.2384L77.7384 64.0181H103.488L102.988 67.7281Z" fill="black"/>
<path d="M134.988 74.1179H95.1984C95.1184 74.1179 95.0384 74.0779 94.9784 74.0179C94.9284 73.9579 94.8984 73.8679 94.9084 73.7879L95.4084 70.0879C95.4284 69.9479 95.5484 69.8379 95.6984 69.8379H135.488C135.568 69.8379 135.648 69.8779 135.708 69.9379C135.758 69.9979 135.788 70.0879 135.778 70.1679L135.278 73.8679C135.258 74.0179 135.138 74.1179 134.988 74.1179ZM95.5284 73.5379H134.738L135.158 70.4079H95.9484L95.5284 73.5379Z" fill="black"/>
<path d="M103.558 104.298H71.5384L72.0184 100.738H104.038L103.558 104.298Z" fill="black"/>
<path d="M124.288 110.768H71.9984C71.9184 110.768 71.8384 110.728 71.7784 110.668C71.7284 110.608 71.6984 110.518 71.7084 110.438L72.2084 106.738C72.2284 106.598 72.3484 106.488 72.4984 106.488H124.788C124.868 106.488 124.948 106.528 125.008 106.588C125.058 106.648 125.088 106.738 125.078 106.818L124.578 110.518C124.548 110.658 124.428 110.768 124.288 110.768ZM72.3284 110.188H124.028L124.448 107.058H72.7484L72.3284 110.188Z" fill="black"/>
<path d="M124.108 116.868H94.0884C94.0084 116.868 93.9284 116.828 93.8684 116.768C93.8184 116.708 93.7884 116.618 93.7984 116.538L94.2984 112.838C94.3184 112.698 94.4384 112.588 94.5884 112.588H124.608C124.688 112.588 124.768 112.628 124.828 112.688C124.878 112.748 124.908 112.838 124.898 112.918L124.398 116.618C124.378 116.768 124.248 116.868 124.108 116.868ZM94.4184 116.288H123.848L124.268 113.158H94.8384L94.4184 116.288Z" fill="black"/>
<path d="M111.518 128.788H91.4484L89.8184 125.088H112.018L111.518 128.788Z" fill="black"/>
<path d="M130.108 122.488H101.318C101.238 122.488 101.158 122.448 101.098 122.388C101.048 122.328 101.018 122.238 101.028 122.158L101.528 118.458C101.548 118.318 101.668 118.208 101.818 118.208H130.608C130.688 118.208 130.768 118.248 130.828 118.308C130.878 118.368 130.908 118.458 130.898 118.538L130.398 122.238C130.378 122.388 130.258 122.488 130.108 122.488ZM101.648 121.918H129.858L130.278 118.788H102.068L101.648 121.918Z" fill="black"/>
<path d="M117.458 135.188H94.4784C94.3184 135.188 94.1884 135.058 94.1884 134.898C94.1884 134.738 94.3184 134.608 94.4784 134.608H117.198L117.618 131.478H93.4084C93.2484 131.478 93.1184 131.348 93.1184 131.188C93.1184 131.028 93.2484 130.898 93.4084 130.898H117.948C118.028 130.898 118.108 130.938 118.168 130.998C118.218 131.058 118.248 131.148 118.238 131.228L117.738 134.928C117.718 135.078 117.598 135.188 117.458 135.188Z" fill="black"/>
<path d="M287.128 216.378L286.408 223.288L281.758 223.838V215.638L287.128 216.378Z" fill="white"/>
<path d="M281.758 224.128C281.688 224.128 281.618 224.098 281.568 224.058C281.508 224.008 281.468 223.928 281.468 223.838V215.638C281.468 215.558 281.508 215.478 281.568 215.418C281.628 215.368 281.718 215.338 281.798 215.348L287.168 216.088C287.318 216.108 287.428 216.248 287.418 216.408L286.698 223.328C286.688 223.458 286.578 223.568 286.448 223.588L281.798 224.138C281.788 224.128 281.768 224.128 281.758 224.128ZM282.048 215.968V223.518L286.138 223.038L286.808 216.628L282.048 215.968Z" fill="black"/>
<path d="M281.028 235.878C282.968 236.148 286.138 236.398 289.868 235.878C291.088 235.708 291.898 234.518 291.598 233.308C290.778 229.948 289.368 223.578 286.938 220.628L286.338 222.228L285.508 220.718C285.398 220.508 285.188 220.368 284.958 220.338L283.138 220.108C282.758 220.058 282.398 220.318 282.328 220.688L282.038 222.078L280.928 220.258L280.438 227.058C280.328 228.518 280.118 229.958 279.788 231.388L279.288 233.538C279.118 234.678 279.908 235.718 281.028 235.878Z" fill="white"/>
<path d="M285.418 236.468C283.638 236.468 282.128 236.328 280.988 236.158C279.718 235.978 278.818 234.778 278.978 233.498L279.478 231.328C279.808 229.918 280.018 228.478 280.128 227.048L280.618 220.248C280.628 220.118 280.718 220.018 280.838 219.988C280.958 219.958 281.088 220.008 281.148 220.118L281.878 221.318L282.018 220.648C282.128 220.128 282.628 219.768 283.148 219.838L284.968 220.068C285.288 220.108 285.578 220.308 285.738 220.588L286.268 221.548L286.648 220.528C286.688 220.428 286.768 220.358 286.868 220.348C286.968 220.328 287.068 220.368 287.138 220.448C289.438 223.248 290.848 229.048 291.678 232.518L291.858 233.248C292.018 233.898 291.888 234.598 291.518 235.148C291.138 235.698 290.548 236.068 289.888 236.168C288.298 236.388 286.778 236.468 285.418 236.468ZM281.138 221.188L280.708 227.088C280.598 228.558 280.378 230.028 280.048 231.458L279.548 233.608C279.428 234.558 280.108 235.458 281.068 235.598C283.048 235.878 286.168 236.108 289.828 235.598C290.328 235.528 290.778 235.248 291.058 234.828C291.348 234.408 291.438 233.878 291.318 233.388L291.138 232.658C290.348 229.398 289.058 224.058 287.018 221.228L286.598 222.348C286.558 222.458 286.458 222.528 286.348 222.538C286.228 222.548 286.128 222.488 286.078 222.388L285.248 220.878C285.178 220.748 285.058 220.668 284.908 220.648L283.088 220.418C282.858 220.388 282.638 220.548 282.588 220.778L282.298 222.168C282.278 222.288 282.178 222.378 282.068 222.398C281.948 222.418 281.838 222.368 281.768 222.268L281.138 221.188Z" fill="black"/>
<path d="M285.278 234.418C282.918 234.418 281.478 233.908 281.388 233.878C281.238 233.828 281.158 233.658 281.218 233.508C281.268 233.358 281.438 233.278 281.588 233.338C281.618 233.348 284.688 234.418 289.208 233.378C289.368 233.338 289.518 233.438 289.558 233.598C289.598 233.758 289.498 233.908 289.338 233.948C287.798 234.298 286.428 234.418 285.278 234.418Z" fill="black"/>
<path d="M287.518 229.108L283.148 228.968C282.988 228.958 282.868 228.828 282.868 228.668C282.878 228.508 283.008 228.378 283.168 228.388L287.528 228.528C287.688 228.538 287.808 228.668 287.808 228.828C287.808 228.978 287.678 229.108 287.518 229.108Z" fill="black"/>
<path d="M265.368 212.688L264.668 222.788H259.078L258.818 212.688H265.368Z" fill="white"/>
<path d="M264.668 223.078H259.078C258.918 223.078 258.798 222.958 258.788 222.798L258.528 212.708C258.528 212.628 258.558 212.558 258.608 212.498C258.658 212.438 258.738 212.408 258.818 212.408H265.368C265.448 212.408 265.528 212.438 265.578 212.498C265.628 212.558 265.658 212.638 265.658 212.718L264.958 222.808C264.948 222.958 264.818 223.078 264.668 223.078ZM259.358 222.498H264.398L265.058 212.978H259.118L259.358 222.498Z" fill="black"/>
<path d="M266.128 228.488C266.138 229.438 265.498 230.278 264.568 230.498C261.358 231.248 254.118 232.928 252.048 233.238C249.368 233.638 246.068 232.818 244.658 231.238C243.238 229.658 247.828 225.888 250.008 224.518C253.238 222.478 256.348 218.458 257.658 218.278C258.958 218.098 261.398 221.898 261.398 221.898L265.378 220.218C265.368 220.208 266.058 223.638 266.128 228.488Z" fill="white"/>
<path d="M250.648 233.618C248.178 233.618 245.648 232.758 244.438 231.418C244.158 231.108 244.048 230.718 244.118 230.268C244.398 228.278 248.098 225.368 249.848 224.258C251.438 223.258 252.978 221.788 254.338 220.488C255.798 219.088 256.858 218.078 257.608 217.978C258.918 217.798 260.858 220.568 261.498 221.528L265.248 219.938C265.328 219.908 265.418 219.908 265.498 219.948C265.578 219.988 265.628 220.058 265.648 220.148C265.658 220.178 266.348 223.658 266.418 228.478C266.438 229.558 265.688 230.528 264.638 230.778C261.558 231.498 254.178 233.208 252.098 233.518C251.628 233.588 251.138 233.618 250.648 233.618ZM257.758 218.548C257.738 218.548 257.718 218.548 257.698 218.548C257.138 218.628 255.978 219.738 254.748 220.908C253.368 222.228 251.808 223.718 250.168 224.748C248.378 225.878 244.928 228.678 244.698 230.348C244.658 230.628 244.718 230.848 244.878 231.028C246.198 232.498 249.328 233.338 252.008 232.938C254.068 232.628 261.438 230.918 264.508 230.208C265.298 230.028 265.858 229.298 265.848 228.488C265.788 224.598 265.328 221.608 265.158 220.618L261.518 222.158C261.388 222.218 261.238 222.168 261.158 222.048C260.198 220.568 258.548 218.548 257.758 218.548Z" fill="black"/>
<path d="M250.688 231.148C248.938 231.148 247.378 230.858 246.248 230.118C246.118 230.028 246.078 229.848 246.168 229.718C246.258 229.588 246.438 229.548 246.568 229.638C250.718 232.358 261.768 228.338 263.938 227.498C264.088 227.438 264.258 227.518 264.308 227.668C264.368 227.818 264.288 227.988 264.138 228.038C261.848 228.918 255.558 231.148 250.688 231.148Z" fill="black"/>
<path d="M256.898 225.658C256.828 225.658 256.748 225.628 256.698 225.578L254.378 223.308C254.268 223.198 254.258 223.018 254.378 222.898C254.488 222.788 254.668 222.778 254.788 222.898L257.108 225.168C257.218 225.278 257.228 225.458 257.108 225.578C257.048 225.628 256.978 225.658 256.898 225.658Z" fill="black"/>
<path d="M288.718 146.888C288.718 146.888 290.448 178.448 291.358 189.338C292.268 200.228 289.238 217.738 289.238 217.738L280.608 217.278C280.608 217.278 280.018 195.988 279.378 190.078C279.378 190.078 275.728 182.068 274.648 174.918C273.568 167.768 269.888 156.478 269.888 156.478C269.888 156.478 266.898 212.838 266.608 217.258C266.608 217.258 259.838 217.558 257.418 216.028C257.418 216.028 253.118 195.478 253.738 184.298C254.358 173.118 253.678 145.338 253.678 145.338L288.718 146.888Z" fill="white"/>
<path d="M289.238 218.028C289.228 218.028 289.228 218.028 289.218 218.028L280.588 217.568C280.438 217.558 280.318 217.438 280.318 217.288C280.308 217.078 279.718 196.048 279.088 190.158C278.798 189.508 275.388 181.798 274.358 174.958C273.528 169.458 271.118 161.398 270.088 158.078C269.598 167.278 267.148 213.318 266.898 217.278C266.888 217.428 266.768 217.538 266.618 217.548C266.338 217.558 259.728 217.838 257.258 216.268C257.188 216.228 257.148 216.158 257.128 216.088C257.088 215.878 252.828 195.378 253.438 184.288C254.048 173.248 253.388 145.628 253.378 145.348C253.378 145.268 253.408 145.188 253.468 145.138C253.528 145.078 253.598 145.058 253.688 145.058L288.728 146.608C288.878 146.618 288.998 146.728 289.008 146.878C289.028 147.198 290.748 178.558 291.648 189.318C292.548 200.128 289.558 217.618 289.528 217.798C289.498 217.928 289.378 218.028 289.238 218.028ZM280.888 217.008L288.998 217.438C289.358 215.248 291.908 199.388 291.068 189.358C290.218 179.108 288.608 150.228 288.438 147.158L253.968 145.638C254.038 148.718 254.598 173.878 254.018 184.308C253.438 194.878 257.318 214.118 257.668 215.838C259.798 217.078 265.098 217.008 266.328 216.968C266.698 211.008 269.558 157.008 269.588 156.448C269.598 156.308 269.698 156.198 269.838 156.178C269.978 156.158 270.108 156.238 270.148 156.378C270.188 156.488 273.848 167.778 274.918 174.868C275.978 181.888 279.588 189.878 279.618 189.958C279.628 189.988 279.638 190.018 279.638 190.048C280.258 195.548 280.818 214.528 280.888 217.008Z" fill="black"/>
<path d="M283.598 190.368H280.958C280.798 190.368 280.668 190.238 280.668 190.078C280.668 189.918 280.798 189.788 280.958 189.788H283.598C283.758 189.788 283.888 189.918 283.888 190.078C283.888 190.238 283.758 190.368 283.598 190.368Z" fill="black"/>
<path d="M262.168 206.758C262.008 206.758 261.878 206.628 261.878 206.478C261.788 201.418 255.998 191.908 255.938 191.818C255.858 191.678 255.898 191.508 256.038 191.418C256.178 191.338 256.348 191.378 256.438 191.518C256.678 191.918 262.368 201.258 262.458 206.468C262.458 206.618 262.338 206.758 262.168 206.758Z" fill="black"/>
<path d="M248.348 96.9681C247.868 96.9281 243.888 103.758 242.018 107.018C241.488 107.948 240.298 108.248 239.398 107.688L224.778 98.6581C223.588 97.9181 222.558 96.9381 221.788 95.7581C220.568 93.8981 219.838 92.0081 218.208 90.6881C216.878 89.6081 215.528 88.4181 215.128 88.1081C214.878 87.9081 213.698 88.7481 214.588 90.2281C214.858 90.6881 215.878 91.6081 216.148 92.0281C216.588 92.6981 216.588 93.5881 216.098 94.2181C215.578 94.8881 215.138 95.9681 215.728 97.4781C216.598 99.6981 218.578 100.248 219.688 100.378C220.248 100.438 220.768 100.718 221.138 101.138L234.628 116.598C236.718 118.998 240.218 119.538 242.938 117.878C247.328 115.198 252.978 109.798 257.048 102.968L248.348 96.9681Z" fill="white"/>
<path d="M239.548 119.128C237.638 119.128 235.758 118.318 234.418 116.788L220.918 101.328C220.588 100.958 220.138 100.718 219.648 100.658C218.478 100.518 216.378 99.938 215.448 97.568C214.798 95.918 215.318 94.728 215.858 94.028C216.268 93.498 216.278 92.758 215.898 92.178C215.788 92.008 215.498 91.698 215.218 91.408C214.858 91.028 214.488 90.638 214.328 90.368C213.688 89.298 213.998 88.438 214.458 88.028C214.748 87.768 215.088 87.708 215.298 87.868C215.468 88.008 215.808 88.298 216.238 88.658C216.818 89.148 217.608 89.828 218.378 90.448C219.578 91.418 220.288 92.658 221.048 93.978C221.348 94.508 221.668 95.058 222.018 95.588C222.758 96.708 223.758 97.688 224.918 98.398L239.538 107.428C239.908 107.658 240.348 107.728 240.768 107.618C241.188 107.508 241.548 107.238 241.758 106.858C247.638 96.608 248.068 96.648 248.358 96.658C248.408 96.658 248.458 96.678 248.498 96.708L257.198 102.718C257.328 102.808 257.358 102.968 257.278 103.108C252.898 110.448 247.068 115.668 243.078 118.118C241.988 118.808 240.768 119.128 239.548 119.128ZM214.998 88.368C214.918 88.398 214.758 88.508 214.658 88.718C214.528 88.978 214.448 89.428 214.838 90.078C214.968 90.298 215.328 90.678 215.648 91.018C215.958 91.348 216.248 91.658 216.398 91.868C216.918 92.658 216.898 93.678 216.338 94.398C215.678 95.248 215.568 96.248 216.008 97.378C216.828 99.468 218.698 99.978 219.738 100.098C220.368 100.168 220.948 100.478 221.378 100.958L234.878 116.418C236.878 118.718 240.218 119.228 242.818 117.648C246.718 115.268 252.378 110.198 256.688 103.068L248.378 97.318C247.868 97.848 246.048 100.648 242.308 107.168C242.008 107.688 241.528 108.048 240.958 108.198C240.388 108.348 239.788 108.248 239.288 107.938L224.668 98.908C223.438 98.148 222.368 97.118 221.588 95.918C221.228 95.368 220.908 94.808 220.598 94.278C219.868 93.008 219.178 91.818 218.068 90.908C217.288 90.278 216.498 89.598 215.918 89.108C215.488 88.778 215.178 88.508 214.998 88.368Z" fill="black"/>
<path d="M298.538 109.668C298.538 109.668 299.508 91.6879 285.918 86.6379C275.398 82.7279 261.958 84.4179 257.748 85.8779C247.378 89.4779 242.278 103.178 242.278 103.178L254.428 104.888C254.428 104.888 250.768 144.248 252.358 153.028C252.358 153.028 262.138 154.178 266.288 152.528C270.438 150.888 284.078 148.578 290.598 151.598L289.418 109.498L298.538 109.668Z" fill="black"/>
<path d="M259.258 153.708C255.768 153.708 252.558 153.338 252.328 153.308C252.198 153.298 252.098 153.198 252.078 153.068C250.548 144.638 253.778 108.918 254.128 105.118L242.248 103.448C242.158 103.438 242.088 103.388 242.038 103.308C241.998 103.228 241.988 103.138 242.018 103.058C242.068 102.918 247.288 89.188 257.668 85.588C262.268 83.998 275.738 82.528 286.038 86.348C291.688 88.448 295.688 93.148 297.618 99.948C299.068 105.058 298.848 109.618 298.838 109.658C298.828 109.808 298.698 109.928 298.548 109.928C298.548 109.928 298.548 109.928 298.538 109.928L289.708 109.768L290.888 151.568C290.888 151.668 290.838 151.758 290.758 151.818C290.678 151.878 290.568 151.878 290.478 151.838C283.968 148.828 270.478 151.158 266.398 152.778C264.608 153.508 261.858 153.708 259.258 153.708ZM252.608 152.768C254.058 152.918 262.488 153.728 266.178 152.268C270.238 150.658 283.488 148.358 290.288 151.158L289.118 109.508C289.118 109.428 289.148 109.348 289.198 109.298C289.258 109.238 289.338 109.218 289.408 109.208L298.258 109.368C298.298 107.088 298.138 91.478 285.818 86.908C275.648 83.128 262.368 84.578 257.838 86.148C248.618 89.348 243.538 100.818 242.678 102.938L254.468 104.598C254.618 104.618 254.728 104.758 254.718 104.908C254.678 105.298 251.138 143.718 252.608 152.768Z" fill="white"/>
<path d="M281.608 143.208C281.588 143.208 281.578 143.208 281.558 143.208C265.698 140.388 261.058 129.268 261.008 129.158C260.948 129.008 261.018 128.838 261.168 128.778C261.318 128.718 261.488 128.788 261.548 128.938C261.588 129.048 266.128 139.868 281.658 142.638C281.818 142.668 281.918 142.818 281.888 142.978C281.868 143.108 281.738 143.208 281.608 143.208Z" fill="white"/>
<path d="M252.608 124.148H272.518L266.278 101.758H246.368L252.608 124.148Z" fill="white"/>
<path d="M272.518 124.438H252.608C252.478 124.438 252.368 124.348 252.328 124.228L246.088 101.838C246.068 101.748 246.078 101.658 246.138 101.588C246.188 101.518 246.278 101.478 246.368 101.478H266.278C266.408 101.478 266.518 101.568 266.558 101.688L272.798 124.078C272.818 124.168 272.808 124.258 272.748 124.328C272.698 124.388 272.608 124.438 272.518 124.438ZM252.828 123.858H272.138L266.058 102.048H246.748L252.828 123.858Z" fill="black"/>
<path d="M296.178 109.678L287.418 109.278C287.418 109.278 287.348 116.698 286.558 116.828C283.748 117.298 277.848 117.328 274.018 116.858C272.678 116.698 271.628 115.668 271.378 114.338C271.188 113.338 270.648 112.148 269.278 111.308C267.948 110.488 269.258 113.068 268.018 114.738C267.348 115.628 265.248 115.238 262.368 114.568C259.498 113.898 258.768 116.988 261.988 118.858C265.478 120.888 267.698 120.658 268.818 120.898C271.038 121.368 290.658 124.468 293.678 122.808C296.018 121.518 296.178 109.678 296.178 109.678Z" fill="white"/>
<path d="M289.878 123.578C282.878 123.578 269.868 121.408 268.758 121.168C268.538 121.118 268.248 121.088 267.918 121.058C266.618 120.928 264.648 120.728 261.848 119.098C259.818 117.918 259.318 116.308 259.718 115.308C260.008 114.568 260.878 113.908 262.438 114.278C265.028 114.878 267.218 115.318 267.788 114.558C268.338 113.818 268.338 112.838 268.328 112.118C268.328 111.528 268.318 111.098 268.638 110.918C268.908 110.768 269.218 110.928 269.428 111.058C270.628 111.808 271.408 112.918 271.658 114.288C271.888 115.508 272.848 116.428 274.058 116.578C277.838 117.038 283.618 117.028 286.478 116.558C286.848 116.108 287.108 112.458 287.138 109.278C287.138 109.198 287.168 109.128 287.228 109.068C287.288 109.018 287.358 108.988 287.438 108.988L296.198 109.388C296.358 109.398 296.478 109.528 296.478 109.678C296.458 110.908 296.248 121.728 293.828 123.048C293.138 123.428 291.718 123.578 289.878 123.578ZM261.618 114.758C260.948 114.758 260.448 115.028 260.258 115.528C259.948 116.308 260.408 117.598 262.138 118.608C264.828 120.168 266.728 120.368 267.978 120.488C268.328 120.528 268.628 120.558 268.878 120.608C271.138 121.088 290.638 124.138 293.548 122.548C295.298 121.588 295.828 113.398 295.898 109.958L287.718 109.588C287.708 110.188 287.678 111.618 287.588 113.028C287.358 116.698 286.988 117.058 286.628 117.118C283.748 117.598 277.848 117.618 273.998 117.148C272.548 116.968 271.378 115.868 271.108 114.388C270.878 113.168 270.218 112.208 269.138 111.548C269.048 111.488 268.978 111.458 268.948 111.448C268.918 111.578 268.918 111.878 268.918 112.108C268.928 112.858 268.938 113.998 268.268 114.898C267.488 115.948 265.308 115.528 262.318 114.838C262.068 114.788 261.828 114.758 261.618 114.758Z" fill="black"/>
<path d="M266.028 86.198C266.028 86.198 268.298 84.808 268.268 83.988L268.918 79.798C268.928 79.418 268.688 79.068 268.328 78.948L265.648 78.028C265.308 77.908 265.088 77.568 265.108 77.208L265.318 73.878L264.268 72.948C264.188 72.878 264.178 72.748 264.248 72.668L265.908 70.648C266.448 69.888 266.998 68.058 267.438 68.178C267.438 68.178 276.898 67.088 277.358 71.858C277.428 72.548 277.218 73.238 276.818 73.798L275.978 74.978C275.138 76.168 274.698 77.618 274.848 79.068C274.878 79.368 275.268 81.318 275.538 82.598C275.688 83.328 276.088 83.978 276.678 84.428C277.418 84.998 278.318 85.718 278.168 85.768C278.168 85.768 277.118 86.538 275.468 87.218C272.528 88.428 269.188 88.128 266.478 86.468L266.028 86.198Z" fill="white"/>
<path d="M271.738 88.2381C269.858 88.2381 267.978 87.7281 266.328 86.7181L265.878 86.4481C265.788 86.3981 265.738 86.2981 265.738 86.1981C265.738 86.0981 265.788 86.0081 265.878 85.9481C266.898 85.3181 267.998 84.3881 267.988 83.9881C267.988 83.9681 267.988 83.9581 267.988 83.9381L268.628 79.7681C268.628 79.5181 268.468 79.2881 268.238 79.2081L265.558 78.2881C265.098 78.1281 264.798 77.6681 264.828 77.1681L265.028 73.9781L264.078 73.1381C263.878 72.9581 263.858 72.6581 264.028 72.4581L265.688 70.4381C265.868 70.1881 266.068 69.7581 266.258 69.3381C266.658 68.4781 266.978 67.7981 267.448 67.8581C268.058 67.7881 273.688 67.2581 276.318 69.3781C277.108 70.0081 277.548 70.8281 277.648 71.7981C277.718 72.5381 277.508 73.2981 277.058 73.9381L276.218 75.1181C275.378 76.2981 274.998 77.6781 275.138 79.0181C275.148 79.1481 275.258 79.7681 275.818 82.5181C275.958 83.1781 276.318 83.7681 276.858 84.1781C278.528 85.4681 278.508 85.5881 278.478 85.7781C278.468 85.8581 278.418 85.9281 278.348 85.9781C278.308 86.0081 277.258 86.7781 275.588 87.4681C274.358 87.9881 273.048 88.2381 271.738 88.2381ZM266.578 86.1881L266.638 86.2181C269.288 87.8381 272.548 88.1081 275.368 86.9481C276.528 86.4681 277.388 85.9481 277.778 85.6881C277.608 85.5281 277.248 85.2181 276.508 84.6481C275.868 84.1581 275.418 83.4381 275.258 82.6481C274.828 80.5281 274.588 79.3281 274.568 79.0881C274.418 77.6181 274.838 76.0881 275.758 74.7981L276.598 73.6181C276.968 73.0881 277.148 72.4681 277.088 71.8681C277.008 71.0481 276.648 70.3881 275.978 69.8381C273.438 67.7881 267.548 68.4381 267.498 68.4481C267.478 68.4481 267.458 68.4481 267.438 68.4481C267.278 68.5681 266.988 69.1981 266.808 69.5881C266.598 70.0281 266.388 70.4881 266.168 70.7981L264.548 72.7781L265.538 73.6581C265.608 73.7181 265.638 73.8081 265.638 73.8881L265.428 77.2181C265.418 77.4581 265.558 77.6781 265.778 77.7481L268.458 78.6681C268.938 78.8381 269.248 79.2881 269.238 79.7981C269.238 79.8081 269.238 79.8281 269.238 79.8381L268.598 83.9981C268.548 84.7581 267.278 85.7081 266.578 86.1881Z" fill="black"/>
<path d="M267.128 60.9081C269.288 60.7981 266.558 63.0181 274.538 60.7281C277.718 59.8181 276.088 63.5481 276.908 63.3081C279.958 62.4381 279.848 62.4681 281.338 62.8681C282.318 63.1381 282.948 64.9681 282.748 66.3381C282.488 68.1381 280.468 71.0081 278.658 74.0381C277.718 75.6081 276.058 75.7481 274.048 73.4181C273.838 73.1681 274.928 71.7081 274.358 71.0781C272.878 69.4381 272.218 71.9181 271.018 71.1481C269.868 70.4181 269.398 69.9381 268.178 68.8281C266.708 67.4881 264.238 69.5781 263.388 66.5481C262.948 64.9681 264.178 61.0581 267.128 60.9081Z" fill="black"/>
<path d="M137.178 226.098C137.178 226.098 137.838 226.098 138.468 225.648C140.428 224.258 144.488 221.168 147.268 221.548C151.918 222.198 152.468 225.998 152.468 225.998C152.468 225.998 156.388 225.848 156.308 228.458C156.248 230.458 155.108 233.008 151.938 234.408C147.618 236.318 143.278 237.768 138.498 234.638C137.568 234.028 136.468 233.748 135.368 233.858C132.678 234.128 92.6284 234.988 92.6284 234.988C83.4684 234.988 75.0584 229.908 70.8084 221.788L62.3684 205.688L72.0384 178.668L87.2084 213.898C94.5484 223.938 136.418 226.278 137.178 226.098Z" fill="white"/>
<path d="M144.348 236.748C142.408 236.748 140.408 236.238 138.348 234.888C137.468 234.308 136.418 234.048 135.398 234.148C132.728 234.418 94.2684 235.248 92.6384 235.278C83.3284 235.278 74.8684 230.158 70.5584 221.928L62.1184 205.828C62.0784 205.758 62.0784 205.668 62.0984 205.598L71.7684 178.578C71.8084 178.468 71.9084 178.388 72.0284 178.388C72.1484 178.378 72.2584 178.458 72.2984 178.558L87.4484 213.758C94.5684 223.378 135.498 226.008 137.118 225.808C137.138 225.808 137.148 225.808 137.168 225.808C137.188 225.808 137.758 225.798 138.288 225.418L138.738 225.098C140.928 223.528 144.598 220.898 147.288 221.278C151.398 221.848 152.458 224.838 152.678 225.718C153.308 225.728 154.988 225.848 155.928 226.778C156.378 227.228 156.598 227.798 156.578 228.478C156.548 229.478 156.128 232.878 152.038 234.688C149.598 235.768 147.028 236.748 144.348 236.748ZM135.838 233.558C136.828 233.558 137.818 233.858 138.668 234.408C143.348 237.478 147.568 236.038 151.838 234.158C155.628 232.488 156.008 229.378 156.038 228.468C156.058 227.948 155.898 227.538 155.558 227.198C154.588 226.238 152.518 226.298 152.488 226.298H152.478C152.338 226.298 152.208 226.198 152.188 226.048C152.168 225.898 151.598 222.458 147.228 221.848C144.768 221.508 141.078 224.148 139.098 225.568L138.638 225.898C137.938 226.398 137.198 226.388 137.178 226.398C136.178 226.458 125.718 225.878 114.618 224.128C104.148 222.468 90.8484 219.388 86.9784 214.088C86.9684 214.068 86.9584 214.048 86.9484 214.028L72.0584 179.468L62.6784 205.678L71.0584 221.668C75.2784 229.718 83.5384 234.708 92.6284 234.708C93.0184 234.698 132.698 233.838 135.338 233.578C135.508 233.558 135.668 233.558 135.838 233.558Z" fill="black"/>
<path d="M126.658 218.858L130.528 212.078L133.708 214.138C133.888 214.248 134.028 214.408 134.138 214.588L134.328 214.918C134.568 215.328 135.008 215.588 135.478 215.578C135.738 215.578 135.988 215.648 136.208 215.788L159.858 231.098C160.048 231.228 160.228 231.378 160.388 231.548L165.168 236.848L158.518 235.348C158.158 235.268 157.808 235.138 157.478 234.968L132.598 221.958C132.388 221.848 132.208 221.678 132.078 221.478L132.048 221.428C131.808 221.038 131.378 220.798 130.918 220.798H130.688C130.478 220.798 130.268 220.748 130.078 220.648L126.658 218.858Z" fill="white"/>
<path d="M165.158 237.138C165.138 237.138 165.118 237.138 165.098 237.128L158.448 235.628C158.058 235.538 157.688 235.398 157.338 235.218L132.458 222.208C132.198 222.068 131.978 221.868 131.828 221.618L131.798 221.568C131.608 221.258 131.278 221.078 130.928 221.078H130.698C130.698 221.078 130.698 221.078 130.688 221.078C130.438 221.078 130.178 221.018 129.948 220.898L126.538 219.118C126.468 219.078 126.418 219.018 126.398 218.948C126.378 218.868 126.388 218.788 126.428 218.728L130.298 211.948C130.338 211.878 130.408 211.828 130.478 211.808C130.558 211.788 130.638 211.808 130.708 211.848L133.888 213.908C134.098 214.048 134.278 214.238 134.408 214.458L134.598 214.788C134.788 215.108 135.118 215.308 135.488 215.308C135.498 215.308 135.508 215.308 135.518 215.308C135.828 215.308 136.128 215.398 136.388 215.568L160.038 230.878C160.258 231.018 160.448 231.188 160.628 231.378L165.408 236.678C165.488 236.768 165.508 236.908 165.448 237.018C165.358 237.088 165.258 237.138 165.158 237.138ZM130.908 220.498C131.458 220.498 131.988 220.788 132.278 221.268L132.308 221.318C132.408 221.478 132.548 221.608 132.718 221.698L157.598 234.708C157.908 234.868 158.238 234.988 158.568 235.068L164.328 236.368L160.158 231.748C160.018 231.598 159.858 231.458 159.688 231.348L136.038 216.038C135.868 215.928 135.678 215.868 135.478 215.878C135.468 215.878 135.468 215.878 135.458 215.878C134.888 215.878 134.358 215.568 134.068 215.078L133.878 214.748C133.798 214.608 133.678 214.488 133.548 214.398L130.628 212.498L127.058 218.748L130.198 220.388C130.348 220.468 130.508 220.498 130.668 220.508L130.908 220.498Z" fill="black"/>
<path d="M158.658 234.388C158.618 234.388 158.568 234.378 158.528 234.358C158.388 234.288 158.328 234.108 158.408 233.968L159.828 231.218C159.898 231.078 160.078 231.018 160.218 231.098C160.358 231.168 160.418 231.348 160.338 231.488L158.918 234.238C158.858 234.328 158.758 234.388 158.658 234.388Z" fill="black"/>
<path d="M125.018 208.718L130.648 212.128L126.668 218.898L121.038 215.488C120.008 214.868 119.648 213.538 120.248 212.518L122.068 209.418C122.668 208.408 123.988 208.098 125.018 208.718Z" fill="black"/>
<path d="M126.678 219.188C126.628 219.188 126.578 219.178 126.528 219.148L120.888 215.738C119.718 215.038 119.328 213.528 119.998 212.378L121.818 209.278C122.138 208.728 122.658 208.338 123.278 208.178C123.918 208.018 124.588 208.118 125.158 208.468L130.788 211.878C130.928 211.958 130.968 212.138 130.888 212.268L126.908 219.038C126.868 219.108 126.808 219.148 126.728 219.168C126.728 219.178 126.708 219.188 126.678 219.188ZM123.888 208.688C123.738 208.688 123.578 208.708 123.428 208.748C122.958 208.868 122.568 209.158 122.318 209.578L120.498 212.678C119.978 213.558 120.288 214.708 121.188 215.248L126.568 218.498L130.248 212.228L124.858 208.968C124.568 208.778 124.228 208.688 123.888 208.688Z" fill="black"/>
<path d="M132.228 220.108C132.178 220.108 132.128 220.098 132.078 220.068C131.938 219.988 131.898 219.808 131.978 219.668L133.898 216.488C133.978 216.348 134.158 216.308 134.298 216.388C134.438 216.468 134.478 216.648 134.398 216.788L132.478 219.968C132.428 220.058 132.328 220.108 132.228 220.108Z" fill="black"/>
<path d="M143.548 222.808C143.498 222.808 143.438 222.798 143.398 222.768L136.338 218.338C136.198 218.258 136.158 218.078 136.248 217.938C136.328 217.808 136.508 217.758 136.648 217.848L143.708 222.278C143.848 222.358 143.888 222.538 143.798 222.678C143.738 222.758 143.648 222.808 143.548 222.808Z" fill="black"/>
<path d="M158.258 231.928C158.208 231.928 158.158 231.918 158.108 231.888L155.348 230.168C155.208 230.088 155.168 229.908 155.258 229.768C155.338 229.628 155.518 229.588 155.658 229.678L158.418 231.398C158.558 231.478 158.598 231.658 158.508 231.798C158.448 231.878 158.358 231.928 158.258 231.928Z" fill="black"/>
<path d="M126.058 216.468C126.008 216.468 125.958 216.458 125.908 216.428L121.618 213.788C121.478 213.708 121.438 213.528 121.518 213.388C121.598 213.248 121.778 213.208 121.918 213.298L126.208 215.938C126.348 216.018 126.388 216.198 126.308 216.338C126.248 216.418 126.148 216.468 126.058 216.468Z" fill="white"/>
<path d="M137.178 226.098C137.178 226.098 142.948 225.378 146.628 225.888C149.488 226.288 157.968 224.248 156.188 229.728C155.808 230.908 155.608 231.698 154.558 232.808C153.988 233.418 152.418 234.668 151.528 235.068C147.198 236.978 143.278 237.778 138.488 234.638C137.568 234.028 136.468 233.758 135.368 233.868C134.728 233.928 136.978 226.148 137.178 226.098Z" fill="white"/>
<path d="M144.938 237.038C142.818 237.038 140.668 236.418 138.328 234.878C137.458 234.308 136.418 234.048 135.398 234.148C134.698 234.218 132.438 234.298 132.338 234.298C132.178 234.308 132.048 234.178 132.038 234.018C132.028 233.858 132.158 233.728 132.318 233.718C132.338 233.718 134.658 233.638 135.338 233.568C136.488 233.448 137.668 233.738 138.648 234.388C143.228 237.398 146.928 236.778 151.408 234.798C152.238 234.428 153.778 233.208 154.348 232.608C155.278 231.618 155.498 230.928 155.838 229.868L155.918 229.638C156.248 228.618 156.218 227.878 155.828 227.358C154.968 226.208 152.408 226.288 150.158 226.348C148.738 226.388 147.398 226.428 146.548 226.158C142.188 224.808 137.328 226.348 137.278 226.368C137.038 226.428 136.408 226.408 134.938 226.308C134.778 226.298 134.658 226.158 134.668 225.998C134.678 225.838 134.818 225.718 134.978 225.728C136.258 225.818 136.978 225.848 137.128 225.808C137.308 225.748 142.188 224.198 146.728 225.608C147.488 225.848 148.788 225.808 150.158 225.768C152.558 225.698 155.268 225.628 156.308 227.008C156.808 227.678 156.868 228.618 156.488 229.808L156.418 230.038C156.068 231.128 155.818 231.908 154.798 232.998C154.198 233.628 152.588 234.918 151.668 235.318C149.328 236.358 147.148 237.038 144.938 237.038Z" fill="black"/>
<path d="M48.4284 159.738C48.4284 159.738 66.1984 162.088 72.1084 169.288C79.5884 178.398 82.8084 191.938 83.8584 197.788C84.1684 199.508 84.1284 201.268 83.7484 202.968L83.3184 204.918C81.7784 211.818 75.4884 216.598 68.4384 216.228H68.7884C67.6484 216.168 65.9884 215.788 65.4984 214.758L63.6284 211.348L63.4484 212.578C62.0484 221.648 69.3684 234.058 69.3684 234.058L48.3484 231.218C37.5484 230.138 27.2684 225.878 19.0284 218.818C14.5484 214.988 11.0884 211.398 9.5984 207.038C7.0584 199.638 7.2984 197.538 6.5784 188.558C6.0984 182.448 7.8884 176.348 11.7184 171.558C17.3584 164.548 28.1984 157.168 48.4284 159.738Z" fill="white"/>
<path d="M69.3784 234.348C69.3684 234.348 69.3484 234.348 69.3384 234.348L48.3184 231.508C37.2684 230.398 27.0784 226.088 18.8484 219.038C14.8484 215.618 10.9284 211.808 9.3284 207.138C7.1884 200.888 7.0084 198.408 6.5784 192.408C6.4984 191.278 6.4084 190.018 6.2984 188.588C5.7984 182.308 7.6484 176.198 11.4984 171.388C17.0184 164.498 27.9084 156.838 48.4684 159.448C49.1984 159.548 66.4284 161.898 72.3284 169.098C80.2584 178.758 83.3684 193.458 84.1384 197.728C84.4584 199.498 84.4184 201.278 84.0284 203.028L83.5984 204.978C82.0284 212.038 75.6484 216.888 68.4184 216.518C68.3684 216.518 68.3284 216.498 68.2884 216.478C67.0384 216.328 65.6984 215.848 65.2384 214.878L63.7984 212.248L63.7484 212.618C62.3784 221.478 69.5584 233.788 69.6384 233.908C69.6984 234.008 69.6884 234.118 69.6284 234.218C69.5584 234.308 69.4684 234.348 69.3784 234.348ZM40.5584 159.508C25.2584 159.508 16.6284 165.918 11.9484 171.758C8.1884 176.448 6.3884 182.418 6.8684 188.548C6.9784 189.978 7.0684 191.238 7.1484 192.368C7.5684 198.308 7.7484 200.768 9.8684 206.948C11.4284 211.488 15.2784 215.228 19.2184 218.598C27.3584 225.568 37.4384 229.828 48.3884 230.928L68.8384 233.688C67.4584 231.228 61.9084 220.658 63.1684 212.528L63.3484 211.308C63.3684 211.188 63.4584 211.088 63.5784 211.068C63.6984 211.048 63.8284 211.108 63.8884 211.218L65.7584 214.628C66.1684 215.508 67.6584 215.888 68.8084 215.948C68.8384 215.948 68.8584 215.958 68.8884 215.968C75.6484 216.118 81.5584 211.508 83.0384 204.868L83.4684 202.918C83.8384 201.248 83.8784 199.538 83.5784 197.848C82.8184 193.608 79.7384 179.038 71.8984 169.488C66.1384 162.468 48.5784 160.068 48.4084 160.048C45.6084 159.668 42.9984 159.508 40.5584 159.508Z" fill="black"/>
<path d="M64.8384 214.838C64.7284 214.838 64.6284 214.778 64.5784 214.678L59.5984 204.228C59.5284 204.088 59.5884 203.908 59.7384 203.838C59.8784 203.768 60.0584 203.828 60.1284 203.978L65.1084 214.428C65.1784 214.568 65.1184 214.748 64.9684 214.818C64.9184 214.828 64.8784 214.838 64.8384 214.838Z" fill="black"/>
<path d="M51.2184 124.138L52.5284 123.268C53.5784 122.568 54.0184 121.248 53.5784 120.068C52.2684 116.528 47.4884 110.348 30.0984 115.038C12.3684 119.818 15.4984 148.268 30.6084 154.348C45.7184 160.428 50.8484 129.168 50.8484 129.168L51.2184 124.138Z" fill="black"/>
<path d="M49.0384 124.788C49.2384 123.698 50.6884 123.468 51.2284 124.428C52.5584 126.758 53.1884 128.378 53.3984 129.368C53.6884 130.698 52.4484 132.028 53.1084 133.458C53.7784 134.888 54.8184 136.498 54.9184 139.068C55.0084 141.578 57.5484 153.058 48.6284 152.698C48.2784 152.688 47.9884 152.958 47.9884 153.308C48.0084 155.058 48.1084 159.868 48.4884 162.468C48.6984 163.888 47.8184 165.238 46.4384 165.628C42.8684 166.638 36.2184 168.058 31.2384 166.438C29.9484 166.018 29.2684 164.598 29.7284 163.318C30.3184 161.688 31.1384 157.088 30.5984 154.358C30.5984 154.358 33.5784 154.068 36.8984 152.538C41.9984 150.198 44.5084 144.498 43.0984 139.068C42.7984 137.898 42.1384 136.238 42.8184 134.478C44.5784 129.938 47.2184 134.498 47.2184 134.498L49.0384 124.788Z" fill="white"/>
<path d="M36.4884 167.448C34.6384 167.448 32.8084 167.238 31.1484 166.698C30.4484 166.468 29.8884 165.988 29.5684 165.328C29.2384 164.658 29.1984 163.908 29.4484 163.208C30.0184 161.628 30.8384 157.088 30.3084 154.408C30.2884 154.328 30.3084 154.248 30.3584 154.178C30.4084 154.108 30.4784 154.068 30.5584 154.058C30.5884 154.058 33.5384 153.748 36.7684 152.268C41.6584 150.018 44.2084 144.498 42.8084 139.128C42.7684 138.968 42.7184 138.808 42.6684 138.638C42.3484 137.518 41.9084 135.978 42.5384 134.368C43.0784 132.978 43.7784 132.238 44.6084 132.178C45.6284 132.098 46.5484 133.078 47.0484 133.748L48.7284 124.738C48.8384 124.128 49.3184 123.658 49.9284 123.558C50.5484 123.458 51.1484 123.738 51.4584 124.288C52.9484 126.908 53.4784 128.468 53.6584 129.308C53.7984 129.968 53.6184 130.598 53.4384 131.218C53.2284 131.948 53.0284 132.638 53.3584 133.338C53.4684 133.578 53.5884 133.818 53.7084 134.068C54.3284 135.308 55.1084 136.858 55.1884 139.058C55.1984 139.358 55.2484 139.828 55.3084 140.368C55.6184 143.198 56.1984 148.468 53.6184 151.238C52.4484 152.488 50.7584 153.078 48.5984 152.988C48.5084 152.988 48.4184 153.018 48.3584 153.078C48.2984 153.138 48.2584 153.218 48.2684 153.308C48.2884 155.198 48.3884 159.878 48.7684 162.428C48.9984 163.978 48.0284 165.478 46.5084 165.908C44.1284 166.578 40.2884 167.448 36.4884 167.448ZM30.9384 154.598C31.3784 157.438 30.5884 161.788 29.9984 163.408C29.7984 163.958 29.8284 164.548 30.0884 165.078C30.3384 165.598 30.7784 165.978 31.3284 166.158C36.2484 167.758 42.8584 166.338 46.3584 165.348C47.5984 164.998 48.3884 163.778 48.2084 162.508C47.8184 159.918 47.7284 155.208 47.6984 153.308C47.6984 153.058 47.7884 152.828 47.9684 152.658C48.1484 152.488 48.3884 152.398 48.6384 152.398C50.6284 152.478 52.1684 151.948 53.2084 150.828C55.6084 148.248 55.0484 143.158 54.7484 140.418C54.6884 139.848 54.6384 139.398 54.6284 139.068C54.5484 136.998 53.8384 135.568 53.2084 134.318C53.0784 134.068 52.9584 133.818 52.8484 133.578C52.4284 132.678 52.6784 131.818 52.8984 131.058C53.0684 130.488 53.2184 129.948 53.1084 129.428C52.9684 128.768 52.4984 127.268 50.9684 124.568C50.7384 124.168 50.3384 124.078 50.0384 124.128C49.7384 124.178 49.3984 124.388 49.3084 124.848L47.4984 134.548C47.4784 134.668 47.3784 134.758 47.2584 134.778C47.1384 134.798 47.0184 134.738 46.9584 134.638C46.6384 134.088 45.6084 132.678 44.6484 132.748C44.0584 132.798 43.5284 133.408 43.0784 134.568C42.5184 135.998 42.9084 137.368 43.2284 138.478C43.2784 138.658 43.3284 138.828 43.3684 138.978C44.8284 144.618 42.1584 150.428 37.0084 152.788C34.2784 154.058 31.7884 154.488 30.9384 154.598Z" fill="black"/>
<path d="M22.9584 120.788C22.9584 120.788 14.2284 116.628 7.88839 122.568C1.53839 128.518 -4.60161 141.608 4.91839 155.888C10.8984 164.858 13.1984 171.958 14.0884 175.988C14.3884 177.338 16.1584 177.678 16.9184 176.528C20.7484 170.778 27.7384 158.098 24.3584 146.178C19.7784 130.108 22.9584 120.788 22.9584 120.788Z" fill="black"/>
<path d="M54.9484 137.938C54.8484 137.938 54.7584 137.888 54.6984 137.798C54.6184 137.658 54.6584 137.488 54.7984 137.398C57.6584 135.678 55.8084 130.828 55.2884 129.628L47.1884 133.768C47.0484 133.838 46.8684 133.788 46.7984 133.638C46.7284 133.498 46.7784 133.318 46.9284 133.248L55.2984 128.978C55.3684 128.938 55.4484 128.938 55.5184 128.958C55.5884 128.978 55.6484 129.038 55.6884 129.108C55.8184 129.378 58.7984 135.668 55.0884 137.898C55.0484 137.918 54.9984 137.938 54.9484 137.938Z" fill="black"/>
<path d="M55.1784 141.258C55.1084 141.258 55.0284 141.228 54.9684 141.168C54.8584 141.058 54.8584 140.868 54.9684 140.758L56.1084 139.628C56.4584 139.288 56.4984 138.748 56.2184 138.348L55.4284 137.248C55.3384 137.118 55.3684 136.938 55.4984 136.848C55.6284 136.758 55.8084 136.788 55.8984 136.918L56.6884 138.018C57.1384 138.648 57.0684 139.498 56.5184 140.048L55.3784 141.178C55.3284 141.228 55.2484 141.258 55.1784 141.258Z" fill="black"/>
<path d="M45.9884 142.248C45.7984 142.248 45.6084 142.228 45.3984 142.178C44.4084 141.928 43.5584 141.088 42.8784 139.668C42.8084 139.528 42.8684 139.348 43.0084 139.278C43.1484 139.208 43.3284 139.268 43.3984 139.408C44.0084 140.658 44.7184 141.408 45.5284 141.608C46.3984 141.828 47.0984 141.328 47.1084 141.328C47.2384 141.238 47.4184 141.258 47.5084 141.388C47.5984 141.518 47.5784 141.698 47.4484 141.788C47.4184 141.818 46.8284 142.248 45.9884 142.248Z" fill="black"/>
<path d="M20.7584 119.998C20.7584 119.998 28.8684 122.438 25.5484 130.218C25.5484 130.218 29.2984 127.518 29.1984 123.298C29.1084 119.078 25.9784 117.708 23.8884 117.748C21.7984 117.788 20.7584 119.998 20.7584 119.998Z" fill="white"/>
<path d="M25.5484 130.508C25.4884 130.508 25.4184 130.488 25.3684 130.448C25.2684 130.368 25.2284 130.228 25.2784 130.108C26.2184 127.898 26.2984 125.928 25.5184 124.248C24.1784 121.368 20.7084 120.288 20.6684 120.278C20.5884 120.258 20.5184 120.198 20.4884 120.118C20.4584 120.038 20.4584 119.958 20.4884 119.878C20.5384 119.778 21.6384 117.508 23.8684 117.458C25.1584 117.428 26.4684 117.878 27.4584 118.698C28.3484 119.428 29.4184 120.818 29.4684 123.288C29.5684 127.608 25.8584 130.338 25.6984 130.448C25.6684 130.488 25.6084 130.508 25.5484 130.508ZM21.1884 119.838C22.1484 120.198 24.8384 121.398 26.0484 123.988C26.7684 125.538 26.8284 127.298 26.2184 129.238C27.2784 128.188 28.9684 126.068 28.9084 123.298C28.8684 121.508 28.2484 120.078 27.1084 119.138C26.2284 118.418 25.0284 118.008 23.8984 118.028C22.4484 118.068 21.5384 119.278 21.1884 119.838Z" fill="black"/>
<path d="M5.29839 186.478C11.9884 190.518 25.5984 196.288 47.4984 194.948C49.1084 194.848 50.5984 195.808 51.1684 197.318L52.5384 202.788C54.9384 212.398 59.4584 221.358 65.7584 229.008L69.0284 232.978C69.5284 233.588 69.0584 234.508 68.2684 234.448L53.8284 233.388C29.0384 230.108 9.78839 217.678 3.60839 195.028L1.95839 188.988C1.42839 187.018 3.55839 185.418 5.29839 186.478Z" fill="black"/>
<path d="M175.868 32.4282H223.418C226.108 32.4282 228.168 34.6182 228.168 37.3082V51.0682C228.168 53.7582 226.108 55.9382 223.418 55.9382C223.398 55.9382 222.668 55.9382 221.698 55.9382V65.1282L215.438 55.9382C206.348 55.9382 175.868 55.9382 175.868 55.9382C173.178 55.9382 170.868 53.7682 170.868 51.0682V37.3082C170.868 34.6182 173.178 32.4282 175.868 32.4282Z" fill="white"/>
<path d="M221.698 65.4182C221.608 65.4182 221.518 65.3682 221.458 65.2882L215.288 56.2282H175.868C172.998 56.2282 170.578 53.8682 170.578 51.0682V37.3082C170.578 34.5082 172.998 32.1382 175.868 32.1382H223.418C226.248 32.1382 228.458 34.4082 228.458 37.3082V51.0682C228.458 53.9582 226.248 56.2282 223.418 56.2282H221.988V65.1282C221.988 65.2582 221.908 65.3682 221.788 65.4082C221.748 65.4082 221.728 65.4182 221.698 65.4182ZM175.868 32.7182C173.318 32.7182 171.158 34.8182 171.158 37.3082V51.0682C171.158 53.5482 173.318 55.6482 175.868 55.6482H215.438C215.538 55.6482 215.628 55.6982 215.678 55.7782L221.408 64.1882V55.9382C221.408 55.7782 221.538 55.6482 221.698 55.6482H223.418C225.918 55.6482 227.878 53.6382 227.878 51.0682V37.3082C227.878 34.7282 225.918 32.7182 223.418 32.7182H175.868Z" fill="black"/>
<path d="M193.718 47.588C193.678 47.588 193.638 47.578 193.598 47.558L187.048 44.588C186.948 44.538 186.878 44.438 186.878 44.328C186.878 44.218 186.948 44.108 187.048 44.068L193.598 41.078C193.748 41.008 193.918 41.078 193.978 41.218C194.048 41.368 193.978 41.538 193.838 41.598L187.868 44.318L193.838 47.028C193.988 47.098 194.048 47.268 193.978 47.408C193.938 47.528 193.828 47.588 193.718 47.588Z" fill="black"/>
<path d="M203.098 47.5882C202.988 47.5882 202.878 47.5282 202.838 47.4182C202.768 47.2682 202.838 47.0982 202.978 47.0382L208.948 44.3282L202.978 41.6082C202.828 41.5382 202.768 41.3682 202.838 41.2282C202.908 41.0782 203.078 41.0182 203.218 41.0882L209.768 44.0782C209.868 44.1282 209.938 44.2282 209.938 44.3382C209.938 44.4482 209.868 44.5582 209.768 44.5982L203.218 47.5682C203.178 47.5782 203.138 47.5882 203.098 47.5882Z" fill="black"/>
<path d="M195.688 51.0781C195.658 51.0781 195.618 51.0681 195.588 51.0581C195.438 50.9981 195.368 50.8381 195.418 50.6881L200.518 37.3481C200.578 37.1981 200.738 37.1281 200.888 37.1781C201.038 37.2381 201.108 37.3981 201.058 37.5481L195.958 50.8881C195.918 51.0081 195.808 51.0781 195.688 51.0781Z" fill="black"/>
<path d="M171.928 218.108C171.818 218.108 171.708 218.048 171.668 217.938C171.608 217.788 171.668 217.618 171.818 217.558C186.728 210.948 200.258 200.248 210.928 186.608C211.028 186.478 211.208 186.458 211.338 186.558C211.468 186.658 211.488 186.838 211.388 186.968C200.658 200.688 187.048 211.448 172.048 218.098C172.008 218.098 171.968 218.108 171.928 218.108Z" fill="black"/>
<path d="M170.498 225.728C170.378 225.728 170.278 225.658 170.228 225.548C170.168 225.398 170.248 225.228 170.398 225.178C184.748 219.608 197.598 210.788 208.598 198.948C208.708 198.828 208.888 198.828 209.008 198.938C209.128 199.048 209.128 199.228 209.018 199.348C197.958 211.248 185.028 220.128 170.598 225.718C170.568 225.718 170.538 225.728 170.498 225.728Z" fill="black"/>
<path d="M121.688 9.78823C121.558 9.78823 121.438 9.69823 121.408 9.56823C121.368 9.40823 121.468 9.25823 121.628 9.21823C136.558 5.77823 151.348 5.54823 165.588 8.52823C165.748 8.55823 165.848 8.71823 165.808 8.86823C165.778 9.02823 165.618 9.12823 165.468 9.08823C151.308 6.11823 136.598 6.34823 121.758 9.76823C121.728 9.78823 121.708 9.78823 121.688 9.78823Z" fill="black"/>
<path d="M171.138 3.75815C171.118 3.75815 171.088 3.75815 171.068 3.74815C158.868 0.58815 146.098 -0.21185 133.108 1.36815C132.948 1.38815 132.808 1.27815 132.788 1.11815C132.768 0.95815 132.878 0.81815 133.038 0.79815C146.098 -0.80185 158.938 0.00814962 171.208 3.18815C171.358 3.22815 171.458 3.38815 171.418 3.53815C171.388 3.66815 171.268 3.75815 171.138 3.75815Z" fill="black"/>
<path d="M164.928 220.658C165.994 220.658 166.858 219.794 166.858 218.728C166.858 217.662 165.994 216.798 164.928 216.798C163.862 216.798 162.998 217.662 162.998 218.728C162.998 219.794 163.862 220.658 164.928 220.658Z" fill="black"/>
<path d="M44.8184 99.6581C44.7484 99.6581 44.6784 99.6281 44.6184 99.5781C44.4984 99.4681 44.4984 99.2881 44.6084 99.1681L45.6684 98.0581C45.7784 97.9381 45.9584 97.9381 46.0784 98.0481C46.1984 98.1581 46.1984 98.3381 46.0884 98.4581L45.0284 99.5681C44.9684 99.6281 44.8984 99.6581 44.8184 99.6581Z" fill="black"/>
<path d="M41.0984 103.548C41.0284 103.548 40.9584 103.518 40.8984 103.468C40.7784 103.358 40.7784 103.178 40.8884 103.058L41.9484 101.948C42.0584 101.828 42.2384 101.828 42.3584 101.938C42.4784 102.048 42.4784 102.228 42.3684 102.348L41.3084 103.458C41.2484 103.518 41.1784 103.548 41.0984 103.548Z" fill="black"/>
<path d="M42.1384 99.7181C42.0684 99.7181 41.9884 99.6881 41.9384 99.6381L40.8584 98.5681C40.7484 98.4581 40.7384 98.2781 40.8584 98.1581C40.9684 98.0481 41.1584 98.0381 41.2684 98.1581L42.3484 99.2181C42.4584 99.3281 42.4684 99.5081 42.3484 99.6281C42.2884 99.6881 42.2184 99.7181 42.1384 99.7181Z" fill="black"/>
<path d="M45.9184 103.438C45.8484 103.438 45.7684 103.408 45.7184 103.358L44.6384 102.298C44.5284 102.188 44.5184 101.998 44.6384 101.888C44.7484 101.778 44.9384 101.778 45.0484 101.888L46.1284 102.948C46.2384 103.058 46.2484 103.248 46.1284 103.358C46.0684 103.408 45.9984 103.438 45.9184 103.438Z" fill="black"/>
<path d="M176.998 9.09805C176.648 9.09805 176.308 9.03805 175.968 8.90805C175.248 8.62805 174.678 8.07805 174.358 7.34805C173.718 5.87805 174.378 4.14805 175.828 3.49805C176.528 3.18805 177.298 3.16805 178.008 3.43805C178.728 3.71805 179.298 4.26805 179.618 4.99805C180.258 6.46805 179.598 8.19805 178.148 8.84805C177.788 9.01805 177.388 9.09805 176.998 9.09805ZM176.998 3.82805C176.688 3.82805 176.368 3.89805 176.078 4.02805C174.918 4.54805 174.388 5.93805 174.898 7.12805C175.148 7.70805 175.608 8.14805 176.178 8.37805C176.748 8.59805 177.358 8.57805 177.918 8.33805C179.078 7.81805 179.608 6.42805 179.098 5.23805C178.848 4.65805 178.388 4.21805 177.818 3.98805C177.548 3.87805 177.268 3.82805 176.998 3.82805Z" fill="black"/>
</svg>
