<svg width="299" height="232" viewBox="0 0 299 232" fill="none" xmlns="http://www.w3.org/2000/svg">
<path d="M263.87 215.81H161.68C157.28 215.81 154.16 212.25 154.71 207.86L179.87 9.08C180.43 4.69 184.45 1.13 188.85 1.13L285.91 0C297.05 0 298.56 4.69 298.01 9.08L272.85 207.86C272.29 212.25 268.27 215.81 263.87 215.81Z" fill="black"/>
<path d="M257.72 215.81H155.53C151.13 215.81 148.01 212.24 148.56 207.84L173.72 8.42996C174.28 4.02996 178.3 0.459961 182.7 0.459961H284.89C289.29 0.459961 292.41 4.02996 291.86 8.42996L266.7 207.84C266.14 212.24 262.12 215.81 257.72 215.81Z" fill="white"/>
<path d="M257.72 216.09H155.53C153.33 216.09 151.36 215.23 149.99 213.68C148.6 212.11 148 210.02 148.28 207.79L173.44 8.38016C174.01 3.85016 178.17 0.160156 182.7 0.160156H284.89C287.09 0.160156 289.06 1.02016 290.43 2.57016C291.82 4.14016 292.42 6.23016 292.14 8.45016L266.98 207.86C266.41 212.4 262.25 216.09 257.72 216.09ZM182.7 0.740156C178.44 0.740156 174.54 4.20016 174 8.46016L148.84 207.87C148.58 209.93 149.14 211.86 150.41 213.31C151.67 214.74 153.48 215.53 155.52 215.53H257.71C261.97 215.53 265.87 212.07 266.41 207.81L291.57 8.40016C291.83 6.34016 291.27 4.41016 290 2.96016C288.74 1.53016 286.93 0.740156 284.89 0.740156H182.7Z" fill="black"/>
<path d="M258.73 210.24H155.99C155.42 210.24 154.91 210.02 154.55 209.61C154.19 209.2 154.03 208.66 154.1 208.08L178.13 17.6798C178.28 16.5298 179.33 15.5898 180.49 15.5898H283.23C283.8 15.5898 284.31 15.8098 284.67 16.2198C285.03 16.6298 285.19 17.1698 285.12 17.7498L261.1 208.15C260.94 209.3 259.88 210.24 258.73 210.24ZM180.48 16.1498C179.6 16.1498 178.8 16.8598 178.69 17.7398L154.66 208.14C154.61 208.55 154.72 208.94 154.97 209.22C155.22 209.5 155.58 209.66 155.98 209.66H258.73C259.61 209.66 260.41 208.95 260.52 208.07L284.54 17.6698C284.59 17.2598 284.48 16.8698 284.23 16.5898C283.98 16.3098 283.62 16.1498 283.22 16.1498H180.48Z" fill="black"/>
<path d="M234.808 9.65471C236.088 8.45254 236.268 6.56413 235.209 5.4368C234.151 4.30948 232.255 4.37014 230.974 5.57231C229.694 6.77447 229.514 8.6629 230.573 9.79022C231.631 10.9175 233.527 10.8569 234.808 9.65471Z" fill="black"/>
<path d="M274.45 30.25H169.43C165.6 30.25 162.1 33.37 161.61 37.22L151.63 115.46C151.14 119.31 153.84 122.43 157.67 122.43H262.69C266.52 122.43 270.02 119.31 270.51 115.46L280.49 37.22C280.98 33.36 278.28 30.25 274.45 30.25Z" fill="white"/>
<path d="M262.7 122.71H157.68C155.76 122.71 154.05 121.96 152.86 120.61C151.64 119.23 151.11 117.39 151.36 115.43L161.34 37.1902C161.85 33.2102 165.48 29.9702 169.44 29.9702H274.46C276.38 29.9702 278.09 30.7202 279.28 32.0702C280.5 33.4502 281.03 35.2902 280.78 37.2502L270.8 115.49C270.29 119.47 266.66 122.71 262.7 122.71ZM169.43 30.5302C165.75 30.5302 162.37 33.5402 161.9 37.2502L151.92 115.49C151.69 117.29 152.17 118.97 153.28 120.22C154.36 121.45 155.93 122.13 157.68 122.13H262.7C266.38 122.13 269.76 119.12 270.23 115.41L280.21 37.1702C280.44 35.3702 279.96 33.6902 278.85 32.4402C277.77 31.2102 276.2 30.5302 274.45 30.5302H169.43Z" fill="black"/>
<path d="M274.42 41.9599H166.55C166.39 41.9599 166.26 41.8299 166.26 41.6699C166.26 41.5099 166.39 41.3799 166.55 41.3799H274.42C274.58 41.3799 274.71 41.5099 274.71 41.6699C274.7 41.8399 274.57 41.9599 274.42 41.9599Z" fill="black"/>
<path d="M174.16 35.6001C174.03 36.5901 173.14 37.3901 172.16 37.3901C171.18 37.3901 170.49 36.5901 170.61 35.6001C170.74 34.6101 171.63 33.8101 172.61 33.8101C173.59 33.8101 174.29 34.6201 174.16 35.6001Z" fill="white"/>
<path d="M181.27 35.6001C181.14 36.5901 180.25 37.3901 179.27 37.3901C178.29 37.3901 177.6 36.5901 177.72 35.6001C177.85 34.6101 178.74 33.8101 179.72 33.8101C180.7 33.8101 181.4 34.6201 181.27 35.6001Z" fill="white"/>
<path d="M188.38 35.6001C188.25 36.5901 187.36 37.3901 186.38 37.3901C185.4 37.3901 184.71 36.5901 184.83 35.6001C184.96 34.6101 185.85 33.8101 186.83 33.8101C187.81 33.8101 188.5 34.6201 188.38 35.6001Z" fill="white"/>
<path d="M275.28 35.8901H265.27C265.11 35.8901 264.98 35.7601 264.98 35.6001C264.98 35.4401 265.11 35.3101 265.27 35.3101H275.28C275.44 35.3101 275.57 35.4401 275.57 35.6001C275.56 35.7601 275.44 35.8901 275.28 35.8901Z" fill="black"/>
<path d="M260.77 35.8901H212.37C212.21 35.8901 212.08 35.7601 212.08 35.6001C212.08 35.4401 212.21 35.3101 212.37 35.3101H260.77C260.93 35.3101 261.06 35.4401 261.06 35.6001C261.05 35.7601 260.93 35.8901 260.77 35.8901Z" fill="black"/>
<path d="M201.47 35.8901H192.65C192.49 35.8901 192.36 35.7601 192.36 35.6001C192.36 35.4401 192.49 35.3101 192.65 35.3101H201.47C201.63 35.3101 201.76 35.4401 201.76 35.6001C201.75 35.7601 201.62 35.8901 201.47 35.8901Z" fill="black"/>
<path d="M261.06 109.3H161.26L169.01 48.4902H268.82L261.06 109.3Z" fill="white"/>
<path d="M261.06 109.59H161.25C161.17 109.59 161.09 109.55 161.04 109.49C160.99 109.43 160.96 109.35 160.97 109.27L168.72 48.4604C168.74 48.3204 168.86 48.2104 169 48.2104H268.81C268.89 48.2104 268.97 48.2504 269.02 48.3104C269.07 48.3704 269.1 48.4504 269.09 48.5304L261.34 109.34C261.33 109.48 261.21 109.59 261.06 109.59ZM161.58 109.02H260.81L268.49 48.7804H169.26L161.58 109.02Z" fill="black"/>
<path d="M20.5999 107.01C7.10992 109.9 0.579919 134.81 0.299919 150.93C-0.180081 178.37 16.9899 204.66 40.6899 217.3C72.1799 234.09 119.12 228.87 134.58 201.59C143.81 185.31 142.54 159.9 129.71 149.7C116.84 139.47 103.63 153.48 79.0399 147.21C45.0499 138.53 37.4599 103.39 20.5999 107.01Z" fill="white"/>
<path d="M80.6899 227.21C66.5099 227.21 52.3899 223.87 40.5499 217.55C15.8299 204.38 -0.460092 177.6 0.00990823 150.93C0.169908 141.99 2.11991 131.89 5.22991 123.91C7.92991 116.99 12.7699 108.4 20.5299 106.73C28.5399 105.01 34.4399 111.79 41.9099 120.37C50.4199 130.15 61.0099 142.31 79.0999 146.93C90.8499 149.93 99.8399 148.3 107.76 146.86C116.32 145.31 123.09 144.08 129.87 149.48C135.92 154.29 139.86 162.99 140.69 173.35C141.49 183.4 139.35 193.74 134.82 201.74C131.06 208.37 125.39 213.9 117.95 218.18C111.07 222.14 102.68 224.94 93.6799 226.27C89.3899 226.9 85.0399 227.21 80.6899 227.21ZM20.5999 107.01L20.6599 107.29C13.1399 108.9 8.40991 117.33 5.76991 124.11C2.67991 132.03 0.749908 142.06 0.589908 150.94C0.119908 177.4 16.2899 203.97 40.8299 217.05C56.1899 225.24 75.4299 228.39 93.6099 225.69C112.34 222.91 127.19 214.07 134.34 201.44C138.81 193.54 140.93 183.31 140.14 173.38C139.33 163.18 135.47 154.63 129.54 149.91C122.96 144.67 116.3 145.88 107.89 147.41C99.9099 148.86 90.8599 150.5 78.9799 147.47C60.7199 142.81 50.0599 130.57 41.4999 120.73C34.1499 112.29 28.3499 105.63 20.6699 107.27L20.5999 107.01Z" fill="black"/>
<path d="M98.5199 226.87C98.5199 226.87 110.31 231.72 118.72 231.64C120.14 231.63 121.06 230.14 120.46 228.86C120.11 228.12 119.59 227.18 118.81 226.01C115.89 221.63 103.4 214.52 103.4 214.52L101.39 215.39C100.68 215.7 100.4 216.55 100.77 217.22L101.28 218.13H97.9299C97.1699 218.13 96.5599 218.77 96.5999 219.53C96.6799 221.07 97.0599 223.76 98.5199 226.87Z" fill="white"/>
<path d="M118.54 231.93C110.19 231.93 98.5399 227.18 98.4199 227.13C98.3499 227.1 98.2999 227.05 98.2699 226.99C96.8199 223.91 96.4099 221.24 96.3199 219.54C96.2999 219.09 96.4499 218.67 96.7599 218.35C97.0699 218.02 97.4899 217.85 97.9399 217.85H100.8L100.53 217.37C100.31 216.98 100.27 216.51 100.41 216.09C100.55 215.67 100.87 215.32 101.28 215.14L103.29 214.27C103.37 214.23 103.47 214.24 103.54 214.28C104.05 214.57 116.13 221.47 119.05 225.86C119.77 226.94 120.33 227.91 120.72 228.75C121.04 229.45 120.99 230.25 120.58 230.9C120.17 231.54 119.48 231.93 118.72 231.94C118.66 231.93 118.6 231.93 118.54 231.93ZM98.7399 226.65C99.9099 227.12 110.72 231.36 118.54 231.36C118.6 231.36 118.66 231.36 118.73 231.36C119.3 231.36 119.8 231.07 120.11 230.59C120.42 230.1 120.46 229.5 120.21 228.98C119.83 228.16 119.28 227.22 118.58 226.17C115.89 222.13 104.69 215.6 103.39 214.84L101.51 215.66C101.24 215.78 101.04 215.99 100.95 216.27C100.86 216.55 100.88 216.84 101.03 217.09L101.54 218C101.59 218.09 101.59 218.2 101.54 218.28C101.49 218.37 101.39 218.42 101.29 218.42H97.9399C97.6499 218.42 97.3799 218.54 97.1799 218.75C96.9799 218.96 96.8799 219.23 96.8999 219.52C96.9699 221.14 97.3599 223.7 98.7399 226.65Z" fill="black"/>
<path d="M119.15 229.73C119.14 229.73 119.14 229.73 119.13 229.73C109.98 229.12 99.1899 225.05 99.0899 225.01C98.9399 224.95 98.8699 224.79 98.9199 224.64C98.9799 224.49 99.1399 224.42 99.2899 224.47C99.3999 224.51 110.1 228.55 119.17 229.15C119.33 229.16 119.45 229.3 119.44 229.45C119.42 229.62 119.3 229.73 119.15 229.73Z" fill="black"/>
<path d="M111.19 224.85C111.14 224.85 111.09 224.84 111.05 224.81C110.91 224.73 110.87 224.55 110.95 224.42L112.76 221.35C112.84 221.21 113.01 221.17 113.15 221.25C113.29 221.33 113.33 221.51 113.25 221.64L111.44 224.71C111.38 224.8 111.28 224.85 111.19 224.85Z" fill="black"/>
<path d="M107.13 223.6C107.08 223.6 107.03 223.59 106.99 223.56C106.85 223.48 106.81 223.3 106.89 223.17L109.16 219.31C109.24 219.17 109.41 219.13 109.55 219.21C109.69 219.29 109.73 219.47 109.65 219.6L107.38 223.46C107.32 223.55 107.23 223.6 107.13 223.6Z" fill="black"/>
<path d="M61.5799 151.17C61.9399 150.79 87.7199 139.65 98.2499 137.28C108.79 134.91 112.71 134.89 116.3 140.91C119.89 146.93 99.0299 179.79 99.0299 179.79L54.6599 168.23L61.5799 151.17Z" fill="black"/>
<path d="M86.5499 163.95C86.5099 163.95 86.4699 163.94 86.4299 163.92C86.2899 163.86 86.2199 163.69 86.2899 163.54C91.2499 152.46 99.4499 144.55 99.5299 144.47C99.6399 144.36 99.8199 144.36 99.9299 144.48C100.04 144.59 100.04 144.77 99.9199 144.88C99.8399 144.96 91.7199 152.8 86.8099 163.77C86.7599 163.88 86.6599 163.95 86.5499 163.95Z" fill="white"/>
<path d="M40.4899 165.89C40.4899 165.89 40.4899 172.17 46.4399 178.06C53.8899 185.43 77.9199 180.36 77.9199 180.36C77.9199 180.36 80.3899 184.41 81.9999 195.22C83.6099 206.03 85.4099 220.59 88.0899 224.14L111.36 219.12C111.36 219.12 103.64 172.8 98.2799 166.5C92.9199 160.2 53.9099 159.21 53.9099 159.21L40.4899 165.89Z" fill="black"/>
<path d="M100.97 172.46C100.85 172.46 100.74 172.39 100.7 172.27C99.7299 169.48 98.8399 167.59 98.0599 166.68C94.4799 162.48 68.3899 160.32 60.4799 159.76C60.3199 159.75 60.1999 159.61 60.2199 159.46C60.2299 159.3 60.3699 159.19 60.5199 159.2C70.7299 159.92 94.8799 162.06 98.4999 166.32C99.3399 167.3 100.23 169.19 101.24 172.09C101.29 172.24 101.21 172.4 101.06 172.45C101.03 172.46 101 172.46 100.97 172.46Z" fill="white"/>
<path d="M69.9999 144.11C70.1199 143.74 82.0499 125.57 82.0499 125.57L84.9299 127.67L74.0299 144.67L69.9999 144.11Z" fill="black"/>
<path d="M28.9099 163.591C28.9099 163.591 24.7299 157.751 26.4399 144.681C28.1499 131.611 32.3299 124.821 36.7099 123.271C41.0899 121.721 59.0899 124.551 60.4899 146.511L28.9099 163.591Z" fill="white"/>
<path d="M28.9099 163.87C28.8199 163.87 28.7299 163.83 28.6799 163.75C28.5099 163.51 24.4599 157.67 26.1599 144.64C27.7199 132.69 31.5399 124.8 36.6199 123C38.9699 122.17 44.9599 122.58 50.3299 126.12C54.6899 129 60.0399 134.86 60.7899 146.49C60.7999 146.6 60.7399 146.71 60.6399 146.76L29.0499 163.83C28.9999 163.86 28.9599 163.87 28.9099 163.87ZM39.3399 123.2C38.2899 123.2 37.4199 123.33 36.8099 123.54C32.0099 125.24 28.2399 133.16 26.7299 144.72C25.2299 156.16 28.3199 162.06 29.0099 163.21L60.1999 146.35C59.4299 135.08 54.2399 129.39 50.0099 126.6C46.2199 124.1 42.1399 123.2 39.3399 123.2Z" fill="black"/>
<path d="M41.4899 154.43C41.3399 154.43 41.2199 154.32 41.2099 154.16L40.3399 141.9C40.3299 141.74 40.4499 141.61 40.5999 141.6C40.7499 141.59 40.8899 141.71 40.8999 141.86L41.7699 154.12C41.7799 154.28 41.6599 154.41 41.5099 154.42C41.4999 154.43 41.4999 154.43 41.4899 154.43Z" fill="black"/>
<path d="M27.3899 160.221C27.3899 160.221 28.9099 171.201 44.2499 167.521C59.5899 163.851 67.5899 149.581 67.5899 149.581C67.5899 149.581 76.5199 147.671 76.2199 141.871C76.2199 141.871 73.2299 142.671 70.6899 141.871C68.1499 141.071 65.3899 141.891 64.3399 142.881C57.0799 149.701 33.9099 151.741 27.3899 160.221Z" fill="white"/>
<path d="M38.4499 168.571C35.5799 168.571 33.1599 167.911 31.2299 166.591C27.6799 164.161 27.1199 160.421 27.0999 160.261C27.0899 160.181 27.1099 160.111 27.1599 160.051C30.7599 155.361 39.2699 152.651 47.4899 150.021C54.3699 147.821 60.8699 145.751 64.1299 142.691C65.3499 141.551 68.2299 140.821 70.7599 141.621C73.1999 142.391 76.0999 141.621 76.1299 141.621C76.2099 141.601 76.2999 141.611 76.3699 141.661C76.4399 141.711 76.4799 141.791 76.4899 141.881C76.7899 147.541 68.8999 149.591 67.7599 149.851C66.9599 151.201 58.8699 164.321 44.2999 167.811C42.1899 168.311 40.2299 168.571 38.4499 168.571ZM27.6899 160.301C27.8099 160.941 28.5599 164.071 31.5599 166.121C34.5499 168.161 38.7899 168.541 44.1799 167.251C59.2199 163.651 67.2599 149.591 67.3399 149.451C67.3799 149.381 67.4499 149.331 67.5299 149.311C67.6199 149.291 75.8599 147.461 75.9399 142.241C75.0599 142.431 72.6999 142.821 70.5999 142.151C68.1299 141.371 65.4899 142.201 64.5299 143.101C61.1799 146.241 54.6199 148.341 47.6699 150.561C39.5899 153.141 31.2299 155.811 27.6899 160.301Z" fill="black"/>
<path d="M70.7599 144.65C70.5099 144.65 70.2599 144.64 69.9899 144.63C69.8299 144.62 69.7099 144.49 69.7199 144.33C69.7299 144.17 69.8599 144.05 70.0199 144.06C74.4899 144.24 75.9599 142.78 75.9799 142.77C76.0899 142.66 76.2699 142.66 76.3799 142.76C76.4899 142.87 76.4999 143.05 76.3899 143.16C76.3099 143.23 74.8799 144.65 70.7599 144.65Z" fill="black"/>
<path d="M70.2899 146.77C70.1899 146.77 70.0899 146.77 69.9899 146.77C69.8299 146.77 69.7099 146.64 69.7099 146.48C69.7099 146.32 69.8399 146.2 69.9999 146.2C69.9999 146.2 69.9999 146.2 70.0099 146.2C73.8499 146.27 75.1099 144.91 75.1199 144.9C75.2299 144.78 75.4099 144.77 75.5199 144.88C75.6399 144.98 75.6499 145.16 75.5499 145.28C75.4899 145.34 74.1899 146.77 70.2899 146.77Z" fill="black"/>
<path d="M43.9399 114.57C43.8399 114.76 39.4899 122.19 39.4899 122.19L36.4899 124.21C37.5999 125.05 39.5499 126.32 42.2799 127.04C45.0699 127.78 47.4399 127.63 48.8199 127.44C48.6999 127.06 48.4999 126.57 48.1499 126.05C47.5999 125.24 46.9399 124.75 46.5099 124.49C47.3999 122.95 48.2999 121.42 49.1899 119.88L43.9399 114.57Z" fill="white"/>
<path d="M46.5299 127.88C45.0799 127.88 43.6299 127.69 42.2099 127.31C40.0699 126.74 38.0799 125.77 36.3199 124.43C36.2499 124.37 36.1999 124.29 36.2099 124.19C36.2099 124.1 36.2599 124.01 36.3399 123.96L39.2799 121.98C40.7899 119.4 43.6099 114.57 43.6899 114.42C43.7299 114.34 43.8099 114.29 43.8999 114.27C43.9899 114.26 44.0799 114.29 44.1399 114.35L49.3999 119.66C49.4899 119.75 49.5099 119.89 49.4399 120L46.8899 124.38C47.4799 124.78 47.9799 125.28 48.3799 125.87C48.6899 126.32 48.9199 126.81 49.0899 127.33C49.1199 127.41 49.0999 127.5 49.0599 127.57C49.0199 127.64 48.9399 127.69 48.8599 127.7C48.0799 127.82 47.2999 127.88 46.5299 127.88ZM36.9799 124.22C38.5999 125.39 40.4099 126.25 42.3499 126.76C44.3399 127.29 46.3899 127.43 48.4299 127.19C48.2899 126.84 48.1199 126.51 47.9099 126.2C47.5099 125.61 46.9799 125.11 46.3599 124.73C46.2299 124.65 46.1799 124.48 46.2599 124.34L48.8299 119.92L43.9899 115.03C43.1499 116.47 39.8799 122.06 39.7299 122.33C39.7099 122.37 39.6799 122.4 39.6399 122.42L36.9799 124.22Z" fill="black"/>
<path d="M51.5899 103.06C49.0199 102.73 47.9199 105.44 44.8699 104.96C43.4699 104.74 42.9199 104.06 41.5599 104.31C40.6599 104.48 39.2499 105.09 38.7999 106.27C38.2299 107.78 39.8399 108.58 40.7699 112.04C41.4199 114.47 41.1199 115.9 42.0499 116.31C42.9899 116.73 43.7999 115.49 44.8599 115.87C46.2399 116.36 45.7799 118.76 47.0799 119.86C47.9699 120.62 50.2499 121.07 54.1299 119.27C53.9699 118.57 53.7299 117.12 53.3399 115.81C52.1299 111.7 50.7599 110.69 51.3499 109.69C52.2599 108.16 55.2199 109.29 55.8099 108.02C56.4499 106.7 54.2299 103.41 51.5899 103.06Z" fill="black"/>
<path d="M45.6099 109.18L46.5899 110C46.5899 110 47.2899 114.06 47.8199 115.43C48.3499 116.8 52.7199 115.49 52.7199 115.49L53.0299 114.69L54.2399 114.3C54.2399 114.3 51.9799 110.76 51.4499 107.78C51.4499 107.78 48.3599 106.74 45.6099 109.18Z" fill="white"/>
<path d="M45.8999 109.18C46.2299 109.38 46.5099 109.55 46.7799 109.78C46.8299 109.83 46.8699 109.89 46.8799 109.95C47.0299 110.83 47.1999 111.71 47.3899 112.58C47.5799 113.45 47.7699 114.33 48.0399 115.15L48.0899 115.3C48.1099 115.35 48.1199 115.36 48.1399 115.4C48.1799 115.45 48.2199 115.51 48.2899 115.55C48.4199 115.64 48.6099 115.7 48.8099 115.73C49.2099 115.79 49.6399 115.78 50.0699 115.74C50.9299 115.65 51.8099 115.46 52.6499 115.22L52.4699 115.39L52.7799 114.59L52.7899 114.57C52.8199 114.49 52.8899 114.44 52.9599 114.42L54.1899 114.11L54.0799 114.41C53.4399 113.39 52.8699 112.35 52.3599 111.26C51.8599 110.17 51.4199 109.04 51.1799 107.84L51.3699 108.06C50.9199 107.93 50.3999 107.86 49.9099 107.86C49.4099 107.85 48.9099 107.91 48.4299 108.03C47.9499 108.15 47.4699 108.32 47.0399 108.56C46.8099 108.67 46.6099 108.81 46.3999 108.95C46.2799 109.03 46.2499 109.07 46.1699 109.1C46.0899 109.12 45.9999 109.14 45.8999 109.18ZM45.3299 109.19C45.4299 109.06 45.5399 108.92 45.6799 108.79C45.8099 108.66 45.9699 108.53 46.0699 108.47C46.2999 108.32 46.5199 108.16 46.7699 108.04C47.2499 107.77 47.7699 107.59 48.2999 107.46C48.8299 107.33 49.3799 107.27 49.9199 107.28C50.4699 107.29 50.9999 107.35 51.5499 107.51C51.6499 107.54 51.7199 107.62 51.7399 107.71V107.73C51.9399 108.86 52.3299 109.98 52.7999 111.06C53.2699 112.13 53.8099 113.19 54.4199 114.2C54.4799 114.3 54.4499 114.42 54.3499 114.48C54.3399 114.49 54.3299 114.49 54.3199 114.49H54.3099L53.1299 114.96L53.3099 114.79L52.9999 115.59C52.9699 115.67 52.8999 115.73 52.8199 115.76C51.9399 116.01 51.0499 116.2 50.1299 116.3C49.6699 116.34 49.1999 116.36 48.7199 116.29C48.4799 116.25 48.2199 116.18 47.9799 116.02C47.8599 115.95 47.7499 115.83 47.6599 115.7C47.6299 115.63 47.5799 115.55 47.5599 115.5L47.4999 115.33C47.2099 114.45 47.0299 113.57 46.8299 112.69C46.6499 111.81 46.4799 110.93 46.3199 110.04L46.4199 110.21C46.0299 109.9 45.6499 109.53 45.3299 109.19Z" fill="black"/>
<path d="M46.1399 112.83C46.1399 112.83 44.9899 110.26 43.9299 111.03C42.8699 111.8 44.2099 114.6 46.1399 112.83Z" fill="white"/>
<path d="M44.9099 113.69C44.7199 113.69 44.5599 113.65 44.4199 113.61C43.8399 113.4 43.3799 112.8 43.2799 112.12C43.1999 111.57 43.3799 111.08 43.7499 110.8C44.0099 110.61 44.2999 110.56 44.5899 110.64C45.5499 110.89 46.2999 112.53 46.3899 112.72C46.4399 112.83 46.4099 112.96 46.3199 113.05C45.7799 113.54 45.2999 113.69 44.9099 113.69ZM44.3399 111.17C44.2499 111.17 44.1799 111.2 44.0899 111.26C43.7999 111.47 43.8199 111.87 43.8499 112.03C43.9199 112.5 44.2299 112.93 44.6099 113.07C44.9599 113.2 45.3599 113.09 45.7799 112.75C45.4799 112.14 44.9199 111.31 44.4499 111.18C44.4099 111.18 44.3799 111.17 44.3399 111.17Z" fill="black"/>
<path d="M27.3899 189.31C27.3499 189.31 27.3199 189.3 27.2799 189.29C27.1299 189.23 27.0699 189.06 27.1299 188.92C30.3099 181.24 40.9199 179.75 41.0199 179.74C41.1799 179.72 41.3199 179.83 41.3399 179.99C41.3599 180.15 41.2499 180.29 41.0899 180.31C40.9899 180.32 30.6999 181.77 27.6499 189.14C27.6099 189.24 27.4999 189.31 27.3899 189.31Z" fill="black"/>
<path d="M41.8299 194.03C41.6899 194.03 41.5599 193.92 41.5499 193.77C40.7599 186.36 45.1299 181.46 45.1699 181.41C45.2799 181.29 45.4599 181.28 45.5699 181.39C45.6899 181.5 45.6999 181.68 45.5899 181.79C45.5499 181.84 41.3499 186.55 42.1099 193.7C42.1299 193.86 42.0099 194 41.8599 194.01C41.8499 194.03 41.8399 194.03 41.8299 194.03Z" fill="black"/>
<path d="M205.37 105.26C207.24 103.06 228.24 77.32 215.05 47.97C205.79 27.36 182.23 10.67 154.87 9.77001C150.26 9.62001 121.15 8.66002 105.53 28.21C95.0099 41.37 93.8599 59.76 104.08 73.14C116.23 89.04 139.43 91.31 142.88 91.6C166.98 93.64 180.27 80.64 193.41 86.92C201.46 90.76 204.23 99.33 205.37 105.26Z" fill="white"/>
<path d="M205.37 105.55C205.35 105.55 205.32 105.55 205.3 105.54C205.19 105.51 205.11 105.43 205.09 105.32C203.35 96.19 199.38 90.09 193.29 87.18C186.6 83.99 179.97 85.83 171.56 88.16C163.6 90.37 154.57 92.88 142.86 91.89C140.42 91.68 133.96 90.94 126.66 88.5C116.68 85.16 109.01 80.06 103.86 73.32C98.8599 66.78 96.3999 58.92 96.7499 50.59C97.0799 42.55 100.12 34.54 105.31 28.04C119.49 10.3 144.7 9.16001 154.88 9.49001C168.03 9.92001 180.83 13.99 191.9 21.25C202.36 28.11 210.68 37.56 215.31 47.86C220.86 60.21 221.14 73.34 216.12 86.9C212.31 97.21 206.67 104.16 205.58 105.45C205.53 105.51 205.45 105.55 205.37 105.55ZM185.53 84.89C188.25 84.89 190.88 85.39 193.54 86.66C199.66 89.58 203.7 95.62 205.53 104.62C207.19 102.58 212.14 96.03 215.59 86.7C220.55 73.29 220.28 60.3 214.79 48.09C204.95 26.2 180.87 10.91 154.86 10.06C144.77 9.73001 119.77 10.85 105.76 28.39C95.0699 41.76 94.4799 60.1 104.32 72.97C116.05 88.32 138.53 90.95 142.91 91.32C154.52 92.3 163.5 89.81 171.41 87.61C176.64 86.16 181.2 84.89 185.53 84.89Z" fill="black"/>
<path d="M239.77 205.07C238.08 201.59 237.92 198.08 239.77 194.54L238.44 192.95L202.09 194.15L203.34 205.7L238.53 206.11L239.77 205.07Z" fill="white"/>
<path d="M238.53 206.38C238.52 206.38 238.52 206.38 238.53 206.38L203.34 205.97C203.2 205.97 203.08 205.86 203.06 205.72L201.81 194.17C201.8 194.09 201.83 194.01 201.88 193.95C201.93 193.89 202.01 193.85 202.09 193.85L238.44 192.65C238.53 192.65 238.61 192.69 238.67 192.75L240 194.34C240.07 194.43 240.09 194.55 240.03 194.66C238.29 197.99 238.29 201.35 240.03 204.93C240.09 205.05 240.06 205.19 239.96 205.27L238.72 206.3C238.66 206.36 238.59 206.38 238.53 206.38ZM203.59 205.4L238.42 205.8L239.41 204.98C237.73 201.4 237.74 197.9 239.42 194.57L238.3 193.23L202.4 194.41L203.59 205.4Z" fill="black"/>
<path d="M172.97 191.67H220.88H240.44C241.23 191.67 241.87 192.31 241.87 193.1C241.87 193.89 241.23 194.53 240.44 194.53H209.42C207.15 194.53 205.31 196.37 205.31 198.64V200.95C205.31 203.22 207.15 205.06 209.42 205.06H240.44C241.23 205.06 241.87 205.7 241.87 206.49C241.87 207.28 241.23 207.92 240.44 207.92H172.97C168.78 207.92 165.39 204.52 165.39 200.34V199.26C165.39 195.07 168.78 191.67 172.97 191.67Z" fill="white"/>
<path d="M240.44 208.21H172.97C168.63 208.21 165.1 204.68 165.1 200.34V199.26C165.1 194.92 168.63 191.39 172.97 191.39H240.44C241.38 191.39 242.15 192.16 242.15 193.1C242.15 194.04 241.38 194.81 240.44 194.81H209.42C207.31 194.81 205.59 196.53 205.59 198.64V200.95C205.59 203.06 207.31 204.78 209.42 204.78H240.44C241.38 204.78 242.15 205.55 242.15 206.49C242.15 207.44 241.39 208.21 240.44 208.21ZM172.97 191.96C168.95 191.96 165.67 195.23 165.67 199.26V200.34C165.67 204.36 168.94 207.64 172.97 207.64H240.44C241.07 207.64 241.58 207.13 241.58 206.5C241.58 205.87 241.07 205.36 240.44 205.36H209.42C206.99 205.36 205.02 203.39 205.02 200.96V198.65C205.02 196.22 206.99 194.25 209.42 194.25H240.44C241.07 194.25 241.58 193.74 241.58 193.11C241.58 192.48 241.07 191.97 240.44 191.97H172.97V191.96Z" fill="black"/>
<path d="M238.43 199.6H221.79C221.63 199.6 221.5 199.47 221.5 199.31C221.5 199.15 221.63 199.02 221.79 199.02H238.43C238.59 199.02 238.72 199.15 238.72 199.31C238.72 199.47 238.59 199.6 238.43 199.6Z" fill="black"/>
<path d="M220.63 202.68H217.61C217.45 202.68 217.32 202.55 217.32 202.39C217.32 202.23 217.45 202.1 217.61 202.1H220.63C220.79 202.1 220.92 202.23 220.92 202.39C220.92 202.55 220.79 202.68 220.63 202.68Z" fill="black"/>
<path d="M238.56 202.68H221.92C221.76 202.68 221.63 202.55 221.63 202.39C221.63 202.23 221.76 202.1 221.92 202.1H238.56C238.72 202.1 238.85 202.23 238.85 202.39C238.85 202.55 238.72 202.68 238.56 202.68Z" fill="black"/>
<path d="M238.72 224.52H177.78V209.59H238.72C236.92 214.63 236.87 219.61 238.72 224.52Z" fill="white"/>
<path d="M238.72 224.81H177.78C177.62 224.81 177.49 224.68 177.49 224.52V209.59C177.49 209.43 177.62 209.3 177.78 209.3H238.72C238.81 209.3 238.9 209.35 238.95 209.42C239 209.49 239.02 209.59 238.99 209.68C237.2 214.7 237.2 219.66 238.99 224.41C239.02 224.5 239.01 224.6 238.96 224.67C238.9 224.76 238.81 224.81 238.72 224.81ZM178.06 224.24H238.31C236.66 219.59 236.66 214.77 238.32 209.88H178.06V224.24Z" fill="black"/>
<path d="M185.11 210.33H239.14C239.79 210.33 240.32 209.8 240.32 209.15C240.32 208.5 239.79 207.97 239.14 207.97H169.03C166.17 207.97 163.86 210.28 163.86 213.14V221.27C163.86 224.13 166.17 226.44 169.03 226.44H239.14C239.79 226.44 240.32 225.91 240.32 225.26C240.32 224.61 239.79 224.08 239.14 224.08H185.11C183.09 224.08 181.46 222.44 181.46 220.43V213.97C181.46 211.96 183.09 210.33 185.11 210.33Z" fill="black"/>
<path d="M239.14 226.73H169.03C166.02 226.73 163.57 224.28 163.57 221.27V213.14C163.57 210.13 166.02 207.68 169.03 207.68H239.14C239.95 207.68 240.6 208.34 240.6 209.14C240.6 209.95 239.94 210.6 239.14 210.6H185.11C183.25 210.6 181.74 212.11 181.74 213.97V220.43C181.74 222.29 183.25 223.8 185.11 223.8H239.14C239.95 223.8 240.6 224.46 240.6 225.26C240.6 226.07 239.94 226.73 239.14 226.73ZM169.03 208.26C166.34 208.26 164.15 210.45 164.15 213.14V221.27C164.15 223.96 166.34 226.15 169.03 226.15H239.14C239.63 226.15 240.03 225.75 240.03 225.26C240.03 224.77 239.63 224.37 239.14 224.37H185.11C182.94 224.37 181.17 222.6 181.17 220.43V213.97C181.17 211.8 182.94 210.03 185.11 210.03H239.14C239.63 210.03 240.03 209.63 240.03 209.14C240.03 208.65 239.63 208.25 239.14 208.25H169.03V208.26Z" fill="black"/>
<path d="M237.64 213.42H228.64C228.48 213.42 228.35 213.29 228.35 213.13C228.35 212.97 228.48 212.84 228.64 212.84H237.64C237.8 212.84 237.93 212.97 237.93 213.13C237.93 213.29 237.8 213.42 237.64 213.42Z" fill="black"/>
<path d="M227.1 213.42H210.74C210.58 213.42 210.45 213.29 210.45 213.13C210.45 212.97 210.58 212.84 210.74 212.84H227.1C227.26 212.84 227.39 212.97 227.39 213.13C227.39 213.29 227.25 213.42 227.1 213.42Z" fill="black"/>
<path d="M237.45 215.41H214.96C214.8 215.41 214.67 215.28 214.67 215.12C214.67 214.96 214.8 214.83 214.96 214.83H237.45C237.61 214.83 237.74 214.96 237.74 215.12C237.73 215.29 237.61 215.41 237.45 215.41Z" fill="black"/>
<path d="M213.06 215.41H208.48C208.32 215.41 208.19 215.28 208.19 215.12C208.19 214.96 208.32 214.83 208.48 214.83H213.06C213.22 214.83 213.35 214.96 213.35 215.12C213.34 215.29 213.22 215.41 213.06 215.41Z" fill="black"/>
<path d="M237.45 219.57H213.6C213.44 219.57 213.31 219.44 213.31 219.28C213.31 219.12 213.44 218.99 213.6 218.99H237.45C237.61 218.99 237.74 219.12 237.74 219.28C237.73 219.45 237.61 219.57 237.45 219.57Z" fill="black"/>
<path d="M211.93 219.57H210.74C210.58 219.57 210.45 219.44 210.45 219.28C210.45 219.12 210.58 218.99 210.74 218.99H211.93C212.09 218.99 212.22 219.12 212.22 219.28C212.21 219.45 212.08 219.57 211.93 219.57Z" fill="black"/>
<path d="M251.79 206.28H226.95C225.58 206.28 224.56 207.57 224.89 208.9C226.5 215.36 228.92 220.7 230.72 224.11C232.04 226.61 234.63 228.18 237.46 228.18H241.27C244.1 228.18 246.69 226.61 248.01 224.11C249.81 220.7 252.23 215.37 253.84 208.9C254.18 207.57 253.16 206.28 251.79 206.28Z" fill="white"/>
<path d="M241.27 228.47H237.46C234.52 228.47 231.84 226.85 230.46 224.24C228.69 220.87 226.23 215.49 224.6 208.97C224.42 208.25 224.58 207.51 225.04 206.92C225.5 206.33 226.19 205.99 226.94 205.99H251.78C252.53 205.99 253.22 206.33 253.68 206.92C254.14 207.5 254.3 208.25 254.12 208.97C252.49 215.49 250.04 220.87 248.26 224.24C246.89 226.85 244.21 228.47 241.27 228.47ZM226.94 206.57C226.37 206.57 225.84 206.83 225.49 207.28C225.14 207.73 225.02 208.29 225.16 208.84C226.77 215.31 229.21 220.64 230.97 223.98C232.24 226.4 234.73 227.9 237.46 227.9H241.27C244 227.9 246.49 226.4 247.76 223.98C249.52 220.64 251.95 215.31 253.57 208.84C253.71 208.29 253.58 207.73 253.24 207.28C252.89 206.83 252.36 206.57 251.79 206.57H226.94Z" fill="black"/>
<path d="M235.1 143.75C235.18 139.52 234.64 132.97 230.96 126.44C223.31 112.84 206.6 107.35 204.95 109.54C203.75 111.13 209.85 117.66 221.08 129.7C226.75 135.76 231.68 140.54 235.1 143.75Z" fill="white"/>
<path d="M235.1 144.04C235.03 144.04 234.96 144.01 234.9 143.96C230.11 139.47 225.39 134.74 220.87 129.89C208.86 117.02 203.38 111.15 204.72 109.37C205.06 108.92 205.81 108.73 206.96 108.81C212.02 109.15 224.73 114.79 231.21 126.31C234.1 131.45 235.51 137.32 235.38 143.77C235.38 143.88 235.31 143.98 235.21 144.03C235.18 144.03 235.14 144.04 235.1 144.04ZM206.49 109.36C205.56 109.36 205.27 109.6 205.18 109.71C204.13 111.11 210.95 118.42 221.29 129.49C225.66 134.17 230.21 138.75 234.83 143.1C234.85 137.01 233.47 131.46 230.72 126.58C224.35 115.25 211.88 109.7 206.93 109.37C206.77 109.36 206.62 109.36 206.49 109.36Z" fill="black"/>
<path d="M236.85 143.88C236.33 135.37 237.02 128.44 237.75 123.7C240.5 105.76 247.26 96.5703 248.79 94.5703C249.91 93.1003 255.39 85.9203 257.74 87.0203C259.77 87.9703 258.59 94.6103 256.77 104.48C255.08 113.64 254.24 118.22 252.5 122.53C250.56 127.33 246.32 135.73 236.85 143.88Z" fill="white"/>
<path d="M236.85 144.17C236.81 144.17 236.77 144.16 236.74 144.15C236.64 144.11 236.57 144.01 236.57 143.9C236.15 137.08 236.46 130.27 237.47 123.66C240.02 107.04 246.07 97.6602 248.56 94.4002C251.63 90.3702 255.74 85.7802 257.86 86.7702C260.03 87.7802 259.07 93.5602 257.05 104.55C255.36 113.72 254.52 118.32 252.76 122.65C249.51 130.71 244.22 137.92 237.04 144.1C236.98 144.14 236.92 144.17 236.85 144.17ZM257.2 87.2002C256.22 87.2002 253.94 88.2902 249.01 94.7402C246.55 97.9702 240.55 107.25 238.03 123.74C237.05 130.12 236.74 136.69 237.1 143.28C243.99 137.25 249.07 130.24 252.23 122.43C253.96 118.15 254.8 113.57 256.48 104.45C258.09 95.7002 259.48 88.1602 257.61 87.2902C257.51 87.2402 257.38 87.2002 257.2 87.2002Z" fill="black"/>
<path d="M235.16 145.67C232.9 143.51 227.09 138.58 219.31 138.84C215.7 138.96 211.19 140.22 211.16 141.58C211.12 143.38 219.02 145.06 223.78 145.64C228.5 146.2 232.47 145.97 235.16 145.67Z" fill="white"/>
<path d="M229.61 146.27C227.65 146.27 225.68 146.15 223.74 145.92C223.61 145.9 210.81 144.28 210.87 141.57C210.91 139.88 215.8 138.67 219.3 138.55C226.72 138.3 232.54 142.77 235.35 145.46C235.43 145.54 235.46 145.65 235.42 145.76C235.38 145.86 235.29 145.94 235.18 145.95C233.33 146.16 231.47 146.27 229.61 146.27ZM219.9 139.12C219.71 139.12 219.52 139.12 219.32 139.13C215.59 139.26 211.47 140.54 211.44 141.59C211.41 142.92 217.93 144.64 223.8 145.36C227.33 145.79 230.93 145.82 234.5 145.46C231.7 142.88 226.46 139.12 219.9 139.12Z" fill="black"/>
<path d="M238.91 149.51C239.95 151.14 241.42 153.31 243.37 155.72C244.31 156.89 247.11 160.31 250.36 163.09C255.42 167.43 263.94 172.25 265.69 170.41C267.38 168.64 263.31 160.25 256.82 156.03C254.68 154.64 252.47 153.83 248.61 152.42C244.68 150.98 241.3 150.08 238.91 149.51Z" fill="white"/>
<path d="M264.47 171.1C261.23 171.1 254.44 166.98 250.17 163.32C247.96 161.42 245.59 158.93 243.15 155.91C241.54 153.92 240.03 151.83 238.67 149.67C238.61 149.57 238.61 149.45 238.68 149.35C238.75 149.26 238.87 149.21 238.98 149.24C242.26 150.01 245.53 150.99 248.72 152.16C252.52 153.55 254.82 154.39 256.98 155.8C261.99 159.05 265.93 165.18 266.33 168.64C266.44 169.54 266.29 170.21 265.9 170.62C265.58 170.94 265.09 171.1 264.47 171.1ZM239.54 149.96C240.79 151.89 242.16 153.76 243.6 155.55C246.02 158.54 248.36 161.01 250.55 162.89C255.82 167.41 264.01 171.78 265.49 170.23C265.75 169.96 265.85 169.43 265.76 168.72C265.42 165.84 261.99 159.76 256.66 156.3C254.55 154.93 252.4 154.14 248.51 152.71C245.58 151.61 242.56 150.7 239.54 149.96Z" fill="black"/>
<path d="M239.55 204.2H239.54C239.38 204.19 239.26 204.06 239.27 203.9C240.47 173.49 236.44 146.76 236.4 146.5C236.38 146.34 236.48 146.2 236.64 146.17C236.79 146.15 236.94 146.25 236.97 146.41C237.01 146.68 241.06 173.46 239.85 203.92C239.83 204.08 239.7 204.2 239.55 204.2Z" fill="black"/>
<path d="M237.32 204.2C237.17 204.2 237.05 204.09 237.04 203.94C237.02 203.64 234.7 174.15 225.69 156.11C225.62 155.97 225.68 155.8 225.82 155.73C225.96 155.66 226.13 155.72 226.2 155.86C235.26 174 237.59 203.6 237.61 203.9C237.62 204.06 237.5 204.19 237.35 204.21C237.33 204.2 237.32 204.2 237.32 204.2Z" fill="black"/>
<path d="M225.06 161.65C225.74 162.38 228.81 165.8 228.79 171.09C228.78 176.3 225.78 181.25 224.55 180.95C223.51 180.7 223.09 176.58 225.06 161.65Z" fill="black"/>
<path d="M223.97 157.47C220.84 161.21 215.85 166.28 208.58 170.48C200.54 175.12 189.69 178.71 188.43 176.59C187.4 174.86 193 169.64 195.85 167.32C200.04 163.91 208.82 158.2 223.97 157.47Z" fill="black"/>
<path d="M223.14 154.33C220.06 150.71 214.93 145.72 207.33 142.35C191.14 135.18 172.55 139.27 172.25 142.37C172.09 144.03 177.33 144.06 191.95 150.79C201.68 155.27 205.56 158.1 212.15 157.77C216.88 157.53 220.67 155.79 223.14 154.33Z" fill="black"/>
<path d="M226.19 154C230.02 150.21 236.61 144.82 246.06 142.24C252 140.62 261.44 139.47 262.39 141.94C263.41 144.6 254.71 151.58 245.36 154.21C237.39 156.45 230.3 155.15 226.19 154Z" fill="black"/>
<path d="M236.37 155.73C233.02 155.73 229.59 155.24 226.12 154.27C226.02 154.24 225.95 154.17 225.92 154.07C225.89 153.97 225.92 153.87 226 153.8C231.89 147.96 238.62 143.98 246 141.97C250.74 140.68 261.52 138.85 262.67 141.85C262.86 142.35 262.78 142.98 262.41 143.7C260.74 147.02 253.37 152.27 245.45 154.49C242.49 155.32 239.46 155.73 236.37 155.73ZM226.75 153.86C233.16 155.57 239.4 155.6 245.29 153.94C252.84 151.82 260.28 146.65 261.89 143.44C262.18 142.87 262.26 142.4 262.12 142.05C261.29 139.87 252.25 140.85 246.14 142.52C239 144.46 232.48 148.28 226.75 153.86Z" fill="white"/>
<path d="M71.7399 131.97C71.6699 131.97 71.5999 131.94 71.5399 131.89C71.4299 131.78 71.4199 131.6 71.5299 131.49L72.5799 130.39C72.6899 130.28 72.8699 130.27 72.9799 130.38C73.0899 130.49 73.0999 130.67 72.9899 130.78L71.9399 131.88C71.8899 131.94 71.8199 131.97 71.7399 131.97Z" fill="black"/>
<path d="M68.0699 135.81C67.9999 135.81 67.9299 135.78 67.8699 135.73C67.7599 135.62 67.7499 135.44 67.8599 135.33L68.9099 134.23C69.0199 134.12 69.1999 134.11 69.3099 134.22C69.4199 134.33 69.4299 134.51 69.3199 134.62L68.2699 135.72C68.2199 135.78 68.1399 135.81 68.0699 135.81Z" fill="black"/>
<path d="M69.0999 132.03C69.0299 132.03 68.9599 132 68.8999 131.95L67.8299 130.9C67.7199 130.79 67.7199 130.61 67.8299 130.5C67.9399 130.39 68.1199 130.39 68.2299 130.5L69.2999 131.55C69.4099 131.66 69.4099 131.84 69.2999 131.95C69.2399 132 69.1699 132.03 69.0999 132.03Z" fill="black"/>
<path d="M72.8299 135.7C72.7599 135.7 72.6899 135.67 72.6299 135.62L71.5599 134.57C71.4499 134.46 71.4499 134.28 71.5599 134.17C71.6699 134.06 71.8499 134.06 71.9599 134.17L73.0299 135.21C73.1399 135.32 73.1399 135.5 73.0299 135.61C72.9799 135.67 72.9099 135.7 72.8299 135.7Z" fill="black"/>
<path d="M96.1899 28.8198C96.1399 28.8198 96.0999 28.8098 96.0499 28.7798L80.9099 20.4098C80.7699 20.3298 80.7199 20.1598 80.7999 20.0198C80.8799 19.8798 81.0499 19.8298 81.1899 19.9098L96.3299 28.2798C96.4699 28.3598 96.5199 28.5298 96.4399 28.6698C96.3899 28.7698 96.2899 28.8198 96.1899 28.8198Z" fill="black"/>
<path d="M101.49 25.1898C101.42 25.1898 101.34 25.1598 101.29 25.1098L80.8499 4.42977C80.7399 4.31977 80.7399 4.13977 80.8499 4.02977C80.9599 3.91977 81.1399 3.91977 81.2499 4.02977L101.69 24.6998C101.8 24.8098 101.8 24.9898 101.69 25.0998C101.64 25.1598 101.57 25.1898 101.49 25.1898Z" fill="black"/>
<path d="M107.61 19.9599C107.51 19.9599 107.42 19.9099 107.37 19.8199L97.6699 4.12992C97.5899 3.99992 97.6299 3.81992 97.7599 3.73992C97.8899 3.65992 98.0699 3.69992 98.1499 3.82992L107.85 19.5199C107.93 19.6499 107.89 19.8299 107.76 19.9099C107.72 19.9399 107.66 19.9599 107.61 19.9599Z" fill="black"/>
<path d="M112.04 134.77C111.95 134.77 111.86 134.73 111.81 134.65C111.72 134.52 111.75 134.34 111.88 134.25C112.34 133.93 112.8 133.58 113.24 133.23C113.36 133.13 113.54 133.15 113.64 133.28C113.74 133.4 113.72 133.58 113.59 133.68C113.14 134.03 112.67 134.38 112.2 134.71C112.16 134.75 112.1 134.77 112.04 134.77Z" fill="black"/>
<path d="M65.2399 128.99C65.1599 128.99 65.0799 128.95 65.0199 128.89C64.2799 128 63.5799 127.06 62.9299 126.1C62.8399 125.97 62.8799 125.79 63.0099 125.7C63.1399 125.61 63.3199 125.65 63.4099 125.78C64.0499 126.72 64.7399 127.65 65.4699 128.52C65.5699 128.64 65.5499 128.82 65.4299 128.92C65.3699 128.97 65.3099 128.99 65.2399 128.99ZM61.3799 123.28C61.2799 123.28 61.1799 123.23 61.1299 123.13C60.5799 122.11 60.0699 121.05 59.6199 119.99C59.5599 119.84 59.6299 119.68 59.7699 119.62C59.9099 119.56 60.0799 119.63 60.1399 119.77C60.5799 120.82 61.0799 121.86 61.6199 122.86C61.6999 123 61.6399 123.17 61.5099 123.25C61.4699 123.27 61.4199 123.28 61.3799 123.28ZM58.7099 116.92C58.5899 116.92 58.4699 116.84 58.4399 116.72C58.0999 115.6 57.8199 114.47 57.5999 113.34C57.5699 113.19 57.6699 113.04 57.8299 113.01C57.9799 112.98 58.1299 113.08 58.1599 113.24C58.3699 114.35 58.6499 115.47 58.9799 116.56C59.0299 116.71 58.9399 116.87 58.7899 116.92C58.7599 116.91 58.7299 116.92 58.7099 116.92ZM57.4099 110.14C57.2599 110.14 57.1399 110.03 57.1299 109.88C57.0899 109.44 57.0699 108.99 57.0499 108.55C57.0299 108.17 57.0299 107.79 57.0299 107.41C57.0299 107.07 57.0399 106.73 57.0499 106.39C57.0599 106.23 57.1999 106.11 57.3399 106.11C57.4999 106.12 57.6199 106.25 57.6199 106.4C57.6099 106.73 57.5999 107.07 57.5999 107.4C57.5999 107.77 57.6099 108.15 57.6199 108.52C57.6399 108.95 57.6599 109.39 57.6999 109.82C57.7099 109.98 57.5999 110.11 57.4399 110.13C57.4199 110.14 57.4199 110.14 57.4099 110.14ZM57.6299 103.25C57.6199 103.25 57.5999 103.25 57.5899 103.25C57.4299 103.23 57.3299 103.08 57.3499 102.93C57.5099 101.79 57.7399 100.64 58.0299 99.5099C58.0699 99.3599 58.2199 99.2599 58.3799 99.2999C58.5299 99.3399 58.6299 99.4899 58.5899 99.6499C58.3099 100.76 58.0799 101.89 57.9199 103.01C57.8999 103.15 57.7699 103.25 57.6299 103.25ZM59.3299 96.5599C59.2999 96.5599 59.2599 96.5499 59.2299 96.5399C59.0799 96.4899 59.0099 96.3199 59.0599 96.1699C59.4599 95.0899 59.9199 94.0099 60.4299 92.9699C60.4999 92.8299 60.6699 92.7699 60.8099 92.8399C60.9499 92.9099 61.0099 93.0799 60.9399 93.2199C60.4399 94.2399 59.9899 95.2999 59.5999 96.3699C59.5599 96.4899 59.4499 96.5599 59.3299 96.5599ZM90.0099 91.6099C89.8799 91.6099 89.7599 91.5199 89.7299 91.3799C89.6999 91.2299 89.7999 91.0699 89.9499 91.0399C90.9899 90.8199 91.9599 90.2699 92.7699 89.4399C92.8799 89.3299 93.0599 89.3199 93.1699 89.4299C93.2799 89.5399 93.2899 89.7199 93.1799 89.8299C92.2999 90.7399 91.2199 91.3499 90.0699 91.5899C90.0499 91.5999 90.0299 91.6099 90.0099 91.6099ZM86.6199 91.2899C86.5899 91.2899 86.5499 91.2799 86.5199 91.2699C85.4399 90.8499 84.4299 90.1699 83.5799 89.2799C83.4699 89.1699 83.4799 88.9899 83.5899 88.8799C83.6999 88.7699 83.8899 88.7799 83.9899 88.8899C84.7799 89.7199 85.7299 90.3599 86.7199 90.7399C86.8699 90.7999 86.9399 90.9599 86.8799 91.1099C86.8399 91.2199 86.7399 91.2899 86.6199 91.2899ZM62.3499 90.3599C62.2999 90.3599 62.2499 90.3499 62.1999 90.3199C62.0699 90.2399 62.0199 90.0599 62.1099 89.9299C62.7199 88.9399 63.3899 87.9799 64.0899 87.0599C64.1899 86.9399 64.3699 86.9099 64.4899 87.0099C64.6099 87.1099 64.6399 87.2899 64.5399 87.4099C63.8499 88.3099 63.1899 89.2599 62.5899 90.2299C62.5399 90.3099 62.4499 90.3599 62.3499 90.3599ZM94.7099 86.9799C94.6799 86.9799 94.6499 86.9799 94.6199 86.9699C94.4699 86.9199 94.3899 86.7599 94.4299 86.6099C94.6599 85.8899 94.7699 85.1599 94.7699 84.4399C94.7699 84.0699 94.7399 83.6899 94.6799 83.3299C94.6499 83.1699 94.7599 83.0299 94.9099 82.9999C95.0699 82.9699 95.2099 83.0799 95.2399 83.2299C95.3099 83.6199 95.3399 84.0299 95.3399 84.4299C95.3399 85.2099 95.2199 85.9999 94.9699 86.7799C94.9499 86.8999 94.8399 86.9799 94.7099 86.9799ZM81.9699 86.4499C81.8599 86.4499 81.7499 86.3799 81.6999 86.2699C81.2999 85.2299 81.0499 84.0699 80.9499 82.8199C80.9399 82.6599 81.0599 82.5299 81.2099 82.5099C81.3699 82.4999 81.4999 82.6199 81.5199 82.7699C81.6099 83.9599 81.8499 85.0699 82.2299 86.0599C82.2899 86.2099 82.2099 86.3699 82.0699 86.4299C82.0399 86.4499 81.9999 86.4499 81.9699 86.4499ZM66.5599 84.8899C66.4899 84.8899 66.4199 84.8599 66.3599 84.8099C66.2499 84.6999 66.2399 84.5199 66.3499 84.4099C67.1499 83.5599 67.9999 82.7599 68.8799 82.0099C68.9999 81.9099 69.1799 81.9199 69.2799 82.0399C69.3799 82.1599 69.3699 82.3399 69.2499 82.4399C68.3899 83.1699 67.5599 83.9699 66.7699 84.7999C66.7099 84.8599 66.6399 84.8899 66.5599 84.8899ZM71.8099 80.4199C71.7199 80.4199 71.6299 80.3799 71.5699 80.2899C71.4799 80.1599 71.5199 79.9799 71.6499 79.8899C72.6099 79.2399 73.6199 78.6299 74.6399 78.0999C74.7799 78.0299 74.9499 78.0799 75.0299 78.2199C75.0999 78.3599 75.0499 78.5299 74.9099 78.6099C73.9099 79.1299 72.9199 79.7199 71.9799 80.3699C71.9199 80.3999 71.8699 80.4199 71.8099 80.4199ZM93.6299 80.4099C93.5399 80.4099 93.4499 80.3699 93.3999 80.2899C92.7799 79.3999 91.9799 78.6199 91.0199 77.9499C90.8899 77.8599 90.8599 77.6799 90.9499 77.5499C91.0399 77.4199 91.2199 77.3899 91.3499 77.4799C92.3599 78.1799 93.2099 79.0199 93.8699 79.9599C93.9599 80.0899 93.9299 80.2699 93.7999 80.3599C93.7399 80.3899 93.6899 80.4099 93.6299 80.4099ZM81.3399 79.6399C81.3299 79.6399 81.3199 79.6399 81.2999 79.6399C81.1399 79.6199 81.0299 79.4799 81.0499 79.3199C81.0699 79.1499 81.0899 78.9799 81.1199 78.8099C81.2599 77.8399 81.4699 76.8599 81.7399 75.8999C81.7799 75.7499 81.9399 75.6599 82.0899 75.6999C82.2399 75.7399 82.3299 75.8999 82.2899 76.0499C82.0299 76.9899 81.8199 77.9399 81.6799 78.8899C81.6599 79.0599 81.6299 79.2199 81.6099 79.3899C81.5999 79.5299 81.4799 79.6399 81.3399 79.6399ZM77.9199 77.2299C77.7999 77.2299 77.6999 77.1599 77.6499 77.0399C77.5999 76.8899 77.6699 76.7299 77.8199 76.6699C78.9599 76.2399 80.0899 75.9199 81.1799 75.7099C81.3299 75.6799 81.4799 75.7799 81.5199 75.9399C81.5499 76.0899 81.4499 76.2399 81.2899 76.2799C80.2299 76.4899 79.1299 76.7999 78.0199 77.2199C77.9899 77.2199 77.9599 77.2299 77.9199 77.2299ZM88.0799 76.4999C88.0499 76.4999 88.0199 76.4999 87.9999 76.4899C87.5499 76.3499 87.0899 76.2399 86.6399 76.1599C86.0099 76.0499 85.3499 75.9899 84.6799 75.9699C84.5199 75.9699 84.3999 75.8399 84.3999 75.6799C84.3999 75.5199 84.5299 75.3899 84.6899 75.3999C85.3899 75.4199 86.0699 75.4799 86.7399 75.5999C87.2199 75.6799 87.6999 75.7999 88.1699 75.9499C88.3199 75.9999 88.3999 76.1599 88.3599 76.3099C88.3099 76.4199 88.1999 76.4999 88.0799 76.4999ZM83.1999 73.0099C83.1599 73.0099 83.1199 72.9999 83.0799 72.9899C82.9399 72.9299 82.8699 72.7599 82.9399 72.6099C83.4099 71.5499 83.9599 70.5199 84.5799 69.5299C84.6599 69.3999 84.8399 69.3599 84.9699 69.4399C85.0999 69.5199 85.1399 69.6999 85.0599 69.8299C84.4599 70.7999 83.9199 71.8099 83.4499 72.8399C83.4099 72.9399 83.3099 73.0099 83.1999 73.0099ZM86.8499 67.1699C86.7899 67.1699 86.7199 67.1499 86.6699 67.0999C86.5499 66.9999 86.5299 66.8199 86.6399 66.6999C87.3899 65.8099 88.2099 64.9599 89.0699 64.1899C89.1899 64.0799 89.3699 64.0899 89.4699 64.2099C89.5799 64.3299 89.5699 64.5099 89.4499 64.6099C88.6099 65.3599 87.8099 66.1899 87.0699 67.0599C87.0199 67.1299 86.9299 67.1699 86.8499 67.1699Z" fill="black"/>
<path d="M92.0299 62.56C91.9399 62.56 91.8499 62.51 91.7899 62.43C91.6999 62.3 91.7399 62.12 91.8699 62.03C92.3499 61.71 92.8499 61.41 93.3599 61.13C93.4999 61.05 93.6699 61.1 93.7499 61.24C93.8299 61.38 93.7799 61.55 93.6399 61.63C93.1499 61.9 92.6599 62.2 92.1899 62.51C92.1399 62.54 92.0799 62.56 92.0299 62.56Z" fill="black"/>
<path d="M125.71 45.9099C127.23 45.8999 128.75 45.8899 130.31 45.8799C130.34 49.7699 130.36 53.5899 130.39 57.5199C128.86 57.5299 127.32 57.5399 125.79 57.5499C125.77 53.6699 125.74 49.7899 125.71 45.9099Z" fill="black"/>
<path d="M177.43 74.0098C174.19 74.0298 171.04 74.0498 167.85 74.0698C167.75 58.9898 167.65 43.9398 167.55 28.8398C170.71 28.8198 173.88 28.7998 177.13 28.7798C177.13 28.9798 177.13 29.1998 177.13 29.4098C177.16 33.8898 177.2 38.3698 177.21 42.8498C177.21 43.3498 177.33 43.5698 177.85 43.7398C180.9 44.7198 182.85 46.7898 183.44 49.9398C184.03 53.1198 182.95 55.7698 180.38 57.7398C179.65 58.2998 178.76 58.6898 177.9 59.0198C177.42 59.1998 177.33 59.3998 177.33 59.8498C177.37 64.3298 177.4 68.8098 177.43 73.2898C177.43 73.5198 177.43 73.7398 177.43 74.0098Z" fill="black"/>
<path d="M164.13 33.75C164.21 45.56 164.29 57.37 164.37 69.25C164.23 69.16 164.12 69.11 164.02 69.04C159.98 66.05 155.49 63.99 150.69 62.59C150.25 62.46 150.11 62.29 150.11 61.83C150.08 54.98 150.03 48.13 149.98 41.27C149.98 40.87 150.07 40.68 150.48 40.56C155.29 39.1 159.77 36.98 163.78 33.93C163.85 33.87 163.93 33.82 164.01 33.77C164.03 33.75 164.07 33.76 164.13 33.75Z" fill="black"/>
<path d="M133.75 41.5597C138.03 41.5297 142.27 41.4997 146.55 41.4697C146.59 48.1997 146.64 54.9197 146.68 61.6797C142.43 61.7097 138.17 61.7397 133.88 61.7697C133.84 55.0497 133.8 48.3397 133.75 41.5597Z" fill="black"/>
<path d="M150.47 80.4499C150.23 80.4599 150.05 80.4799 149.87 80.4899C146.33 80.5199 142.79 80.5299 139.26 80.5699C138.85 80.5699 138.62 80.4499 138.42 80.0899C137.51 78.4899 136.56 76.9099 135.64 75.3099C135.52 75.1099 135.42 74.8599 135.42 74.6299C135.39 71.5799 135.37 68.5299 135.35 65.4799C135.35 65.4099 135.37 65.3299 135.38 65.2199C138.82 65.1999 142.25 65.1699 145.74 65.1499C145.75 65.3599 145.77 65.5599 145.77 65.7599C145.79 67.7699 145.78 69.7899 145.82 71.7999C145.83 72.1499 145.94 72.5399 146.11 72.8499C147.44 75.1899 148.79 77.5099 150.13 79.8399C150.24 80.0299 150.34 80.2099 150.47 80.4499Z" fill="black"/>
</svg>
