<svg width="300" height="240" viewBox="0 0 300 240" fill="none" xmlns="http://www.w3.org/2000/svg">
<path d="M143.18 145.23H224.88C229.06 145.23 232.45 141.84 232.45 137.67V7.88007C232.45 3.70007 229.06 0.320068 224.88 0.320068H35.36C31.18 0.320068 27.79 3.71007 27.79 7.88007V137.66C27.79 141.84 31.18 145.22 35.36 145.22H143.18V145.23Z" fill="white"/>
<path d="M35.52 142.27C32.98 142.27 30.91 140.2 30.91 137.66V7.88002C30.91 5.34002 32.98 3.27002 35.52 3.27002H225.04C227.58 3.27002 229.65 5.34002 229.65 7.88002V137.66C229.65 140.2 227.58 142.27 225.04 142.27H35.52Z" fill="white"/>
<path d="M225.04 142.58H35.52C32.8 142.58 30.6 140.37 30.6 137.66V7.87996C30.6 5.16996 32.81 2.95996 35.52 2.95996H225.04C227.76 2.95996 229.96 5.16996 229.96 7.87996V137.66C229.96 140.38 227.75 142.58 225.04 142.58ZM35.52 3.58996C33.15 3.58996 31.22 5.51996 31.22 7.88996V137.67C31.22 140.04 33.15 141.97 35.52 141.97H225.04C227.41 141.97 229.34 140.04 229.34 137.67V7.87996C229.34 5.50996 227.41 3.57996 225.04 3.57996H35.52V3.58996Z" fill="black"/>
<path d="M103.56 145.54H62.12C61.95 145.54 61.81 145.4 61.81 145.23C61.81 145.06 61.95 144.92 62.12 144.92H103.56C103.73 144.92 103.87 145.06 103.87 145.23C103.87 145.4 103.73 145.54 103.56 145.54Z" fill="black"/>
<path d="M38.75 145.54H35.36C31.01 145.54 27.47 142.01 27.47 137.66V7.88C27.47 3.54 31.01 0 35.36 0H224.88C229.23 0 232.77 3.53 232.77 7.88V51.4C232.77 51.57 232.63 51.71 232.46 51.71C232.29 51.71 232.15 51.57 232.15 51.4V7.88C232.15 3.88 228.89 0.63 224.89 0.63H35.36C31.36 0.63 28.1 3.88 28.1 7.88V137.66C28.1 141.66 31.36 144.91 35.36 144.91H38.75C38.92 144.91 39.06 145.05 39.06 145.22C39.06 145.39 38.93 145.54 38.75 145.54Z" fill="black"/>
<path d="M245.39 238.74H230.3V73.04L245.24 71.98L245.39 238.74Z" fill="white"/>
<path d="M245.39 239.05H230.3C230.13 239.05 229.99 238.91 229.99 238.74V73.0399C229.99 72.8799 230.12 72.7399 230.28 72.7299L245.22 71.6799C245.31 71.6799 245.39 71.6999 245.45 71.7599C245.51 71.8199 245.55 71.8999 245.55 71.9899L245.7 238.75C245.7 238.83 245.67 238.91 245.61 238.97C245.55 239.02 245.47 239.05 245.39 239.05ZM230.61 238.43H245.07L244.92 72.3199L230.61 73.3299V238.43Z" fill="black"/>
<path d="M299.38 238.74H245.54C245.43 238.74 245.34 238.65 245.34 238.53V72.2C245.34 72.08 245.43 71.99 245.55 71.99L299.39 74.12C299.5 74.12 299.58 74.22 299.58 74.33V238.53C299.59 238.65 299.5 238.74 299.38 238.74Z" fill="white"/>
<path d="M299.38 239.05H245.54C245.19 239.05 244.92 238.82 244.92 238.53V72.2C244.92 72.04 245 71.9 245.14 71.8C245.26 71.72 245.41 71.67 245.57 71.68L299.41 73.81C299.74 73.82 300 74.05 300 74.33V238.53C300 238.82 299.73 239.05 299.38 239.05ZM245.75 238.43H299.17V74.43L245.75 72.32V238.43Z" fill="black"/>
<path d="M272.56 161.39C272.39 161.39 272.25 161.25 272.25 161.08V85.9299C272.25 85.7599 272.39 85.6199 272.56 85.6199C272.73 85.6199 272.87 85.7599 272.87 85.9299V161.08C272.88 161.25 272.74 161.39 272.56 161.39Z" fill="black"/>
<path d="M259.77 134.61C259.6 134.61 259.46 134.47 259.46 134.3V112.13C259.46 111.96 259.6 111.82 259.77 111.82C259.94 111.82 260.08 111.96 260.08 112.13V134.3C260.08 134.47 259.94 134.61 259.77 134.61Z" fill="black"/>
<path d="M259.77 210.64C259.6 210.64 259.46 210.5 259.46 210.33V172.07C259.46 171.9 259.6 171.76 259.77 171.76C259.94 171.76 260.08 171.9 260.08 172.07V210.33C260.08 210.5 259.94 210.64 259.77 210.64Z" fill="black"/>
<path d="M172.3 238.76H148.18V119.96L172.17 115.25L172.3 238.76Z" fill="white"/>
<path d="M172.3 239.07H148.18C148.01 239.07 147.87 238.93 147.87 238.76V119.96C147.87 119.81 147.98 119.68 148.12 119.65L172.11 114.94C172.2 114.92 172.3 114.95 172.37 115.01C172.44 115.07 172.48 115.16 172.48 115.25L172.61 238.76C172.61 238.84 172.58 238.92 172.52 238.98C172.46 239.04 172.38 239.07 172.3 239.07ZM148.49 238.45H171.99L171.86 115.63L148.49 120.22V238.45Z" fill="black"/>
<path d="M237.4 238.76H172.42C172.29 238.76 172.18 238.69 172.18 238.6V115.42C172.18 115.33 172.29 115.26 172.43 115.26L237.41 116.9C237.54 116.9 237.64 116.97 237.64 117.06V238.6C237.64 238.69 237.53 238.76 237.4 238.76Z" fill="white"/>
<path d="M237.4 239.07H172.42C172.11 239.07 171.87 238.86 171.87 238.6V115.42C171.87 115.3 171.92 115.19 172.01 115.11C172.12 115 172.28 114.95 172.45 114.95L237.43 116.59C237.74 116.6 237.97 116.8 237.97 117.06V238.6C237.95 238.86 237.71 239.07 237.4 239.07ZM172.48 238.45H237.33V117.2L172.48 115.57V238.45Z" fill="black"/>
<path d="M204.92 189.89C204.75 189.89 204.61 189.75 204.61 189.58V126.3C204.61 126.13 204.75 125.99 204.92 125.99C205.09 125.99 205.23 126.13 205.23 126.3V189.58C205.23 189.75 205.09 189.89 204.92 189.89Z" fill="black"/>
<path d="M187.76 147.25C187.59 147.25 187.45 147.11 187.45 146.94V136.15C187.45 135.98 187.59 135.84 187.76 135.84C187.93 135.84 188.07 135.98 188.07 136.15V146.94C188.07 147.11 187.93 147.25 187.76 147.25Z" fill="black"/>
<path d="M187.76 218.82C187.59 218.82 187.45 218.68 187.45 218.51V164.78C187.45 164.61 187.59 164.47 187.76 164.47C187.93 164.47 188.07 164.61 188.07 164.78V218.51C188.07 218.68 187.93 218.82 187.76 218.82Z" fill="black"/>
<path d="M222.08 168.52C221.91 168.52 221.77 168.38 221.77 168.21V157.42C221.77 157.25 221.91 157.11 222.08 157.11C222.25 157.11 222.39 157.25 222.39 157.42V168.21C222.39 168.38 222.25 168.52 222.08 168.52Z" fill="black"/>
<path d="M83.84 238.76H54.31V178.71L83.84 175.45V238.76Z" fill="white"/>
<path d="M83.84 239.07H54.31C54.14 239.07 54 238.93 54 238.76V178.71C54 178.55 54.12 178.42 54.28 178.4L83.81 175.13C83.9 175.12 83.99 175.15 84.05 175.21C84.12 175.27 84.15 175.35 84.15 175.44V238.76C84.15 238.93 84.01 239.07 83.84 239.07ZM54.63 238.45H83.53V175.79L54.63 178.99V238.45Z" fill="black"/>
<path d="M164.42 238.76H83.84V175.62C83.84 175.53 84 175.45 84.18 175.45L164.41 176.81V238.76H164.42Z" fill="white"/>
<path d="M164.42 239.07H83.84C83.67 239.07 83.53 238.93 83.53 238.76V175.62C83.53 175.51 83.58 175.4 83.66 175.32C83.78 175.2 83.98 175.15 84.19 175.14L164.42 176.5C164.59 176.5 164.73 176.64 164.73 176.81V238.76C164.73 238.93 164.59 239.07 164.42 239.07ZM84.15 238.45H164.1V177.11L84.18 175.76C84.17 175.76 84.16 175.76 84.15 175.76V238.45Z" fill="black"/>
<path d="M105.26 229.62C105.09 229.62 104.95 229.51 104.95 229.38V191.89C104.95 191.76 105.09 191.65 105.26 191.65C105.43 191.65 105.57 191.76 105.57 191.89V229.38C105.57 229.52 105.43 229.62 105.26 229.62Z" fill="black"/>
<path d="M147.49 234.01C147.32 234.01 147.18 233.9 147.18 233.77V196.28C147.18 196.15 147.32 196.04 147.49 196.04C147.66 196.04 147.8 196.15 147.8 196.28V233.77C147.8 233.9 147.66 234.01 147.49 234.01Z" fill="black"/>
<path d="M126.38 219.32C126.21 219.32 126.07 219.21 126.07 219.08V211.41C126.07 211.28 126.21 211.17 126.38 211.17C126.55 211.17 126.69 211.28 126.69 211.41V219.08C126.69 219.21 126.55 219.32 126.38 219.32Z" fill="black"/>
<path d="M20.96 238.76H0.48999V218.74L20.77 215.8L20.96 238.76Z" fill="white"/>
<path d="M20.96 239.07H0.49C0.22 239.07 0 238.93 0 238.76V218.74C0 218.59 0.16 218.47 0.38 218.44L20.66 215.5C20.81 215.48 20.96 215.5 21.07 215.56C21.19 215.62 21.25 215.71 21.25 215.8L21.44 238.76C21.44 238.84 21.39 238.92 21.3 238.98C21.22 239.04 21.09 239.07 20.96 239.07ZM0.98 238.45H20.47L20.28 216.19L0.98 218.99V238.45Z" fill="black"/>
<path d="M75.91 238.76H20.96C20.85 238.76 20.77 238.7 20.77 238.62V215.94C20.77 215.86 20.86 215.8 20.97 215.8L75.92 216.46C76.03 216.46 76.11 216.52 76.11 216.6V238.62C76.11 238.7 76.02 238.76 75.91 238.76Z" fill="white"/>
<path d="M75.91 239.07H20.96C20.58 239.07 20.28 238.87 20.28 238.62V215.94C20.28 215.81 20.36 215.69 20.5 215.61C20.63 215.53 20.81 215.48 20.98 215.49L75.93 216.15C76.3 216.15 76.6 216.36 76.6 216.6V238.62C76.6 238.87 76.29 239.07 75.91 239.07ZM21.26 238.45H75.62V216.77L21.26 216.12V238.45Z" fill="black"/>
<path d="M65.63 229.07C65.46 229.07 65.32 228.93 65.32 228.76V223.06C65.32 222.89 65.46 222.75 65.63 222.75C65.8 222.75 65.94 222.89 65.94 223.06V228.76C65.94 228.93 65.8 229.07 65.63 229.07Z" fill="black"/>
<path d="M54.55 239.5C54.38 239.5 54.24 239.36 54.24 239.19V231.8C54.24 231.63 54.38 231.49 54.55 231.49C54.72 231.49 54.86 231.63 54.86 231.8V239.19C54.86 239.36 54.72 239.5 54.55 239.5Z" fill="black"/>
<path d="M189.67 62.66C187.87 64.15 188.93 65.42 186.63 68.84C184.94 71.35 183.5 71.96 183.55 73.6C183.6 75.08 184.81 76.14 185.62 76.84C189.27 80.03 194.3 79.68 197.38 79.47C199.88 79.3 203.3 79.07 203.77 77.5C204.23 75.96 201.28 74.9 201.01 71.85C200.8 69.4 202.59 68.71 202.19 66.54C201.67 63.73 198.19 62.3 197.63 62.07C195.39 61.17 191.88 60.83 189.67 62.66Z" fill="black"/>
<path d="M191.44 62.9701C191.44 62.9701 190.96 58.1901 187.12 59.2401C183.28 60.2801 186.68 64.4001 189.5 64.8801C192.32 65.3601 191.44 62.9701 191.44 62.9701Z" fill="black"/>
<path d="M205.42 144.86L201.29 151.7L199.06 148.77L202.67 142.09L205.42 144.86Z" fill="white"/>
<path d="M201.29 152.01C201.19 152.01 201.1 151.96 201.04 151.89L198.81 148.96C198.74 148.86 198.73 148.73 198.78 148.62L202.39 141.94C202.44 141.85 202.52 141.79 202.62 141.78C202.72 141.77 202.82 141.8 202.89 141.87L205.64 144.64C205.74 144.74 205.76 144.9 205.69 145.02L201.57 151.86C201.52 151.95 201.42 152 201.32 152.01C201.3 152.01 201.3 152.01 201.29 152.01ZM199.43 148.74L201.26 151.15L205.02 144.91L202.74 142.61L199.43 148.74Z" fill="black"/>
<path d="M202.72 150.66C201.63 152.78 198.88 157.94 196.23 160.41C195.58 161.01 194.49 160.73 194.26 159.9C193.43 156.92 192.88 150.73 195.97 145.84C195.97 145.84 197.44 145.68 200.19 146.17L199.58 148.61L199.92 148.38C200.43 148.04 201.12 148.06 201.59 148.45L202.38 149.09C202.85 149.48 202.99 150.12 202.72 150.66Z" fill="black"/>
<path d="M195.79 159.83C195.67 159.83 195.55 159.76 195.5 159.63C193.07 153.55 196.23 146.64 196.37 146.35C196.44 146.19 196.63 146.13 196.78 146.2C196.93 146.27 197 146.46 196.93 146.61C196.9 146.68 193.75 153.56 196.08 159.39C196.14 159.55 196.07 159.73 195.91 159.79C195.87 159.82 195.83 159.83 195.79 159.83Z" fill="white"/>
<path d="M201.12 153.93C201.06 153.93 201.01 153.92 200.96 153.88L198.9 152.61C198.75 152.52 198.71 152.33 198.8 152.18C198.89 152.03 199.08 151.99 199.23 152.08L201.29 153.35C201.44 153.44 201.48 153.63 201.39 153.78C201.33 153.88 201.22 153.93 201.12 153.93Z" fill="white"/>
<path d="M200.09 155.67C200.03 155.67 199.96 155.65 199.91 155.61L198.02 154.23C197.88 154.13 197.85 153.93 197.95 153.79C198.05 153.65 198.25 153.62 198.39 153.72L200.28 155.1C200.42 155.2 200.45 155.4 200.35 155.54C200.28 155.62 200.18 155.67 200.09 155.67Z" fill="white"/>
<path d="M217.12 147.51C217.12 147.67 220.9 155.49 220.9 155.49L216.6 155.82L213.68 149.14L217.12 147.51Z" fill="white"/>
<path d="M216.6 156.13C216.48 156.13 216.36 156.06 216.31 155.94L213.39 149.26C213.32 149.11 213.39 148.93 213.54 148.85L216.98 147.22C217.08 147.17 217.19 147.18 217.28 147.24C217.35 147.28 217.4 147.36 217.42 147.44C217.56 147.83 219.74 152.37 221.18 155.35C221.22 155.44 221.22 155.55 221.17 155.64C221.12 155.73 221.03 155.79 220.92 155.8L216.62 156.13C216.62 156.13 216.61 156.13 216.6 156.13ZM214.09 149.29L216.8 155.49L220.42 155.22C218.06 150.35 217.24 148.59 216.96 147.94L214.09 149.29Z" fill="black"/>
<path d="M216.95 153.86C216.95 153.86 217.81 151.91 220.04 152.88C220.04 152.88 224.14 158.49 225.67 163.13C226.1 164.44 224.68 165.62 223.36 165.06C220.27 163.74 215.42 160.96 212.65 155.81C212.65 155.81 213.51 153.69 214.88 152.72L216.95 153.86Z" fill="black"/>
<path d="M224.41 163.96C223.24 163.96 218.98 163.41 213.43 156.17C213.33 156.03 213.35 155.84 213.49 155.73C213.63 155.63 213.82 155.65 213.93 155.79C220.07 163.82 224.6 163.33 224.64 163.33C224.81 163.31 224.97 163.43 224.99 163.6C225.01 163.77 224.9 163.93 224.73 163.95C224.7 163.94 224.59 163.96 224.41 163.96Z" fill="white"/>
<path d="M220.9 159.55C220.79 159.55 220.68 159.49 220.63 159.39C220.55 159.24 220.6 159.05 220.75 158.97L222.81 157.83C222.96 157.75 223.15 157.8 223.23 157.95C223.31 158.1 223.26 158.29 223.11 158.37L221.05 159.51C221 159.53 220.95 159.55 220.9 159.55Z" fill="white"/>
<path d="M219.87 158.08C219.76 158.08 219.65 158.02 219.59 157.91C219.51 157.76 219.57 157.57 219.73 157.49L221.96 156.35C222.11 156.27 222.3 156.33 222.38 156.49C222.46 156.64 222.4 156.83 222.24 156.91L220.01 158.05C219.97 158.07 219.92 158.08 219.87 158.08Z" fill="white"/>
<path d="M196.48 105.61C196.48 105.61 207.68 107.51 215.76 115.53C217.8 117.55 218.52 120.47 217.64 123.14C215.85 128.62 211.94 138.64 205.42 146.17L200.44 142.1C200.44 142.1 201.64 132.65 204.91 126.79C208.18 120.93 189.1 108.22 189.1 108.22L196.48 105.61Z" fill="black"/>
<path d="M218.5 148.97L212.66 150.6C212.66 150.6 202 129.26 198.91 126.17C195.82 123.08 189.8 118.03 183.44 116.24C177.08 114.45 178.21 110.36 178.21 110.36L187.91 106.96C187.91 106.96 203.03 113.15 208.02 120.15C213 127.15 218.5 148.97 218.5 148.97Z" fill="black"/>
<path d="M200.38 113.48C203.43 115.46 206.31 117.76 208.01 120.14C212.99 127.14 218.49 148.97 218.49 148.97L212.65 150.6C212.65 150.6 201.99 129.26 198.9 126.17C195.81 123.08 189.79 118.03 183.43 116.24C177.07 114.45 178.2 110.36 178.2 110.36L187.9 106.96C187.9 106.95 194.48 109.64 200.38 113.48Z" fill="black"/>
<path d="M213.74 133.29C213.61 133.29 213.49 133.21 213.45 133.08C211.35 126.96 209.43 122.67 207.76 120.33C205.04 116.5 199.18 112.9 194.75 110.56C194.6 110.48 194.54 110.29 194.62 110.14C194.7 109.99 194.89 109.93 195.04 110.01C199.53 112.39 205.47 116.04 208.27 119.97C209.98 122.37 211.92 126.71 214.04 132.88C214.1 133.04 214.01 133.22 213.85 133.28C213.81 133.29 213.77 133.29 213.74 133.29Z" fill="white"/>
<path d="M208.62 143.05C208.51 143.05 208.4 142.99 208.34 142.88C206.18 138.75 204.3 135.29 202.74 132.59C202.65 132.44 202.71 132.25 202.85 132.16C203 132.07 203.19 132.13 203.28 132.27C204.84 134.98 206.72 138.45 208.89 142.59C208.97 142.74 208.91 142.93 208.76 143.01C208.72 143.04 208.67 143.05 208.62 143.05Z" fill="white"/>
<path d="M189.39 75.61C187.89 75.05 186.2 75.27 184.88 76.19C182.72 77.69 179.78 80.48 179.46 84.72C178.94 91.53 172.85 108.22 179.16 115.67C179.67 115.26 189.09 106.12 198.17 106.09C197.96 101.71 198.47 88.02 196.77 82.26C195.64 78.4 191.85 76.52 189.39 75.61Z" fill="white"/>
<path d="M179.17 115.98C179.08 115.98 178.99 115.94 178.93 115.87C174.1 110.17 176.35 99.2901 178 91.3501C178.55 88.6901 179.03 86.3801 179.16 84.6901C179.49 80.4001 182.36 77.5601 184.72 75.9201C186.13 74.9401 187.92 74.7201 189.51 75.3101C193.65 76.8501 196.2 79.1501 197.09 82.1701C198.38 86.5201 198.41 95.4001 198.43 101.27C198.44 103.26 198.44 104.97 198.5 106.07C198.5 106.15 198.47 106.24 198.41 106.3C198.35 106.36 198.27 106.4 198.19 106.4C190.97 106.42 183.47 112.22 179.64 115.67C179.5 115.79 179.41 115.87 179.37 115.91C179.31 115.96 179.24 115.98 179.17 115.98ZM187.69 75.6101C186.76 75.6101 185.84 75.8901 185.06 76.4301C182.82 77.9801 180.08 80.6901 179.77 84.7301C179.64 86.4601 179.16 88.7801 178.6 91.4601C177.01 99.1601 174.83 109.67 179.2 115.2C179.2 115.2 179.21 115.2 179.21 115.19C183.05 111.73 190.53 105.95 197.85 105.76C197.81 104.65 197.8 103.06 197.8 101.25C197.78 95.4101 197.74 86.5901 196.48 82.3201C195.65 79.5101 193.23 77.3401 189.28 75.8701C188.77 75.7101 188.23 75.6101 187.69 75.6101Z" fill="black"/>
<path d="M204.35 84.86L206.07 80.35L208.12 80.28L212.21 85.51L212.38 86.17L207.23 95.76L200.88 96.51L201.04 92.12L202.74 84.83L204.35 84.86Z" fill="black"/>
<path d="M206.07 80.3501L209.07 84.6601L204.32 84.7601L206.07 80.3501Z" fill="white"/>
<path d="M204.32 85.0701C204.22 85.0701 204.12 85.0201 204.06 84.9401C204 84.8501 203.99 84.7401 204.03 84.6501L205.78 80.2401C205.82 80.1301 205.92 80.0601 206.03 80.0501C206.14 80.0401 206.26 80.0901 206.32 80.1801L209.32 84.4901C209.39 84.5801 209.39 84.7101 209.34 84.8101C209.29 84.9101 209.18 84.9801 209.07 84.9801L204.32 85.0701ZM206.14 81.0101L204.78 84.4401L208.48 84.3601L206.14 81.0101Z" fill="black"/>
<path d="M202.48 86.0599C202.45 86.0599 202.42 86.0599 202.39 86.0499C202.22 85.9999 202.13 85.8299 202.18 85.6599L202.44 84.7399C202.48 84.6099 202.6 84.5199 202.74 84.5099L209.88 84.4399C210.05 84.4399 210.19 84.5799 210.19 84.7499C210.19 84.9199 210.05 85.0599 209.88 85.0599L202.97 85.1199L202.77 85.8099C202.74 85.9699 202.62 86.0599 202.48 86.0599Z" fill="black"/>
<path d="M200.58 96.82C200.42 96.82 200.29 96.7 200.27 96.54C200.25 96.37 200.37 96.21 200.54 96.2L207.03 95.47L211.92 86.13C212.01 85.96 211.99 85.75 211.87 85.59L207.41 79.85C207.3 79.71 207.33 79.52 207.46 79.41C207.6 79.3 207.79 79.33 207.9 79.46L212.36 85.2C212.63 85.55 212.67 86.02 212.47 86.41L207.5 95.9C207.45 95.99 207.36 96.05 207.26 96.07L200.61 96.82C200.6 96.82 200.59 96.82 200.58 96.82Z" fill="black"/>
<path d="M203.96 86.6899C203.87 86.6899 203.78 86.6499 203.72 86.5699L202.5 85.0199C202.39 84.8799 202.42 84.6899 202.55 84.5799C202.69 84.4699 202.88 84.4999 202.99 84.6299L204.21 86.1799C204.32 86.3199 204.29 86.5099 204.16 86.6199C204.1 86.6699 204.03 86.6899 203.96 86.6899Z" fill="black"/>
<path d="M182.32 92.2702C182.32 92.2702 185.7 93.2102 188.72 91.6402L188.79 96.7402C188.79 96.7402 196.34 94.4002 198.3 93.0302C200.27 91.6602 198.8 86.8602 202.48 85.7502C202.48 85.7502 201.69 87.9802 202.02 88.2402C202.35 88.5002 203.33 88.6302 204.44 87.9102C205.55 87.1902 207.59 86.2102 208.96 86.5402C210.34 86.8702 208.2 92.1502 204.9 93.2802C200.7 94.7102 193.3 104.14 187.29 105.77C185.82 106.17 184.28 105.48 183.63 104.1C183.27 103.35 182.96 102.32 182.81 100.93C182.45 97.3102 182.32 92.2702 182.32 92.2702Z" fill="white"/>
<path d="M186.47 106.19C185.17 106.19 183.94 105.45 183.36 104.23C182.93 103.32 182.65 102.22 182.52 100.96C182.15 97.3701 182.02 92.3301 182.02 92.2801C182.02 92.1801 182.06 92.0901 182.14 92.0301C182.22 91.9701 182.32 91.9501 182.42 91.9801C182.45 91.9901 185.72 92.8701 188.59 91.3701C188.69 91.3201 188.8 91.3201 188.89 91.3801C188.98 91.4401 189.04 91.5401 189.04 91.6401L189.1 96.3301C190.68 95.8301 196.48 93.9401 198.13 92.7901C198.84 92.3001 199.05 91.2001 199.28 90.0401C199.64 88.2301 200.05 86.1701 202.39 85.4601C202.5 85.4301 202.62 85.4601 202.71 85.5401C202.79 85.6201 202.82 85.7501 202.78 85.8601C202.45 86.8001 202.22 87.7601 202.26 88.0301C202.5 88.1701 203.29 88.3001 204.28 87.6601C204.76 87.3501 207.25 85.8201 209.04 86.2401C209.27 86.3001 209.67 86.5001 209.7 87.2201C209.78 88.8201 207.85 92.6101 205 93.5801C203.21 94.1901 200.72 96.3901 198.09 98.7201C194.68 101.73 190.81 105.15 187.38 106.08C187.08 106.15 186.77 106.19 186.47 106.19ZM182.65 92.6601C182.69 93.9301 182.83 97.9201 183.14 100.89C183.26 102.08 183.53 103.11 183.93 103.95C184.52 105.18 185.9 105.81 187.23 105.45C190.52 104.56 194.33 101.19 197.69 98.2201C200.37 95.8501 202.91 93.6101 204.82 92.9601C207.36 92.1001 209.16 88.6301 209.09 87.2201C209.08 87.0501 209.04 86.8501 208.91 86.8101C207.79 86.5401 205.95 87.2901 204.63 88.1401C203.35 88.9701 202.24 88.7701 201.84 88.4501C201.72 88.3501 201.41 88.1001 201.98 86.2601C200.52 87.0101 200.2 88.5901 199.9 90.1201C199.64 91.4001 199.4 92.6201 198.49 93.2601C196.51 94.6501 189.2 96.9201 188.89 97.0101C188.8 97.0401 188.69 97.0201 188.61 96.9601C188.53 96.9001 188.48 96.8101 188.48 96.7101L188.42 92.0901C186.04 93.1801 183.6 92.8501 182.65 92.6601Z" fill="black"/>
<path d="M190.23 71.48L188.26 74.92C187.29 76.61 187.4 78.74 188.6 80.28C188.8 80.54 189.03 80.8 189.28 81.04C189.93 81.66 191 81.44 191.37 80.62L193.46 76.06L190.23 71.48Z" fill="white"/>
<path d="M190.16 81.7099C189.75 81.7099 189.36 81.5599 189.06 81.2699C188.81 81.0299 188.57 80.7599 188.35 80.4699C187.08 78.8399 186.94 76.5999 187.99 74.7699L189.96 71.3299C190.01 71.2399 190.11 71.1799 190.22 71.1699C190.33 71.1699 190.43 71.2199 190.49 71.2999L193.72 75.8799C193.78 75.9699 193.79 76.0899 193.75 76.1899L191.66 80.7499C191.44 81.2299 191 81.5799 190.47 81.6799C190.36 81.6999 190.26 81.7099 190.16 81.7099ZM190.26 72.0599L188.53 75.0799C187.61 76.6899 187.73 78.6599 188.84 80.0899C189.05 80.3499 189.26 80.5999 189.49 80.8199C189.72 81.0399 190.03 81.1299 190.35 81.0699C190.67 81.0099 190.95 80.7899 191.09 80.4999L193.1 76.0999L190.26 72.0599Z" fill="black"/>
<path d="M200.61 68.48C201.15 68.64 198.43 77.3 195.65 77.55C192.87 77.8 189.31 75.29 189.54 72.27C189.54 72.27 187.78 71.76 188.65 69.45C189.39 67.52 190.85 69.25 191.28 69.83C191.36 69.94 191.48 70.02 191.62 70.06C193.43 70.36 192.35 67.03 197.38 66.75C197.38 66.76 198.58 67.89 200.61 68.48Z" fill="white"/>
<path d="M195.26 77.88C193.71 77.88 191.99 77.14 190.77 75.94C189.74 74.92 189.2 73.7 189.22 72.48C188.96 72.35 188.56 72.09 188.31 71.59C188.01 70.98 188.03 70.23 188.36 69.35C188.61 68.7 188.97 68.34 189.44 68.27C190.27 68.15 191.11 69.08 191.54 69.65C191.58 69.7 191.64 69.74 191.7 69.77C192.16 69.84 192.32 69.62 192.7 69C193.27 68.06 194.14 66.63 197.37 66.46C197.45 66.45 197.54 66.49 197.6 66.54C197.61 66.55 198.78 67.63 200.7 68.19C201.04 68.29 201 68.74 200.98 68.91C200.81 70.62 198.42 77.62 195.68 77.87C195.54 77.87 195.4 77.88 195.26 77.88ZM189.58 68.87C189.56 68.87 189.54 68.87 189.52 68.87C189.24 68.91 189.05 69.26 188.94 69.56C188.67 70.27 188.64 70.85 188.86 71.29C189.11 71.8 189.62 71.96 189.63 71.96C189.77 72 189.86 72.14 189.85 72.28C189.76 73.39 190.25 74.53 191.21 75.47C192.42 76.66 194.15 77.35 195.62 77.22C196.19 77.17 196.84 76.65 197.51 75.73C199.15 73.47 200.36 69.54 200.37 68.72C198.7 68.2 197.6 67.34 197.27 67.06C194.48 67.25 193.75 68.43 193.23 69.3C192.87 69.89 192.49 70.51 191.58 70.36C191.57 70.36 191.56 70.36 191.54 70.35C191.34 70.29 191.16 70.17 191.04 70C190.51 69.31 189.95 68.87 189.58 68.87Z" fill="black"/>
<path d="M37.26 206.45C42.76 199.21 48 190.52 49.44 181.55L49.71 179.85L42.87 175.67L40.35 188.93C39.43 194.81 33.49 204.03 33.49 204.03L37.26 206.45Z" fill="black"/>
<path d="M51.72 209.27L56.26 209.23L57.32 200.39C57.6 196.83 57.94 193.44 57.71 189.87L56.96 178.38L48.91 178.42L50.94 189.21C51.49 193.27 51.89 196.96 51.96 201.2L51.72 209.27Z" fill="black"/>
<path d="M51.23 207.9L51.29 208.75C51.35 209.55 51.29 210.33 50.89 211.02C50.55 211.61 50.19 212.44 50.19 213.37C50.19 213.37 57.08 214.97 63.11 213.45C63.11 213.45 63.14 212.74 61.29 212.33C59.44 211.92 57.22 211.65 57.08 211.02C56.93 210.39 56.93 208.73 56.67 208.4C56.41 208.07 54.19 207.51 53.05 208.4C53.05 208.41 52.02 207.68 51.23 207.9Z" fill="white"/>
<path d="M57.31 214.42C53.38 214.42 50.17 213.69 50.12 213.68C49.98 213.65 49.88 213.52 49.88 213.38C49.88 212.35 50.28 211.45 50.62 210.87C50.93 210.33 51.05 209.67 50.98 208.78L50.92 207.93C50.91 207.78 51 207.65 51.15 207.61C51.87 207.41 52.68 207.82 53.04 208.04C54.31 207.26 56.53 207.73 56.91 208.22C57.11 208.48 57.17 209.04 57.25 209.94C57.28 210.33 57.32 210.73 57.37 210.96C57.47 211.27 59.15 211.6 60.15 211.79C60.55 211.87 60.96 211.95 61.35 212.04C63.35 212.48 63.42 213.31 63.41 213.47C63.4 213.61 63.31 213.73 63.17 213.76C61.24 214.25 59.19 214.42 57.31 214.42ZM50.51 213.13C51.76 213.39 57.5 214.43 62.65 213.25C62.46 213.07 62.04 212.83 61.22 212.65C60.83 212.57 60.43 212.49 60.03 212.41C58.05 212.02 56.92 211.77 56.77 211.11C56.71 210.84 56.67 210.44 56.63 210.01C56.59 209.54 56.52 208.76 56.42 208.61C56.21 208.41 54.24 207.89 53.24 208.67C53.13 208.75 52.98 208.76 52.87 208.68C52.65 208.53 52.06 208.19 51.57 208.19L51.61 208.75C51.66 209.39 51.66 210.35 51.17 211.2C50.89 211.64 50.57 212.34 50.51 213.13Z" fill="black"/>
<path d="M63.13 214.9C63.16 214.6 63.17 214.13 63.14 213.76C63.13 213.6 62.98 213.48 62.82 213.51C61.59 213.7 56.56 214.37 50.51 213.43C50.34 213.4 50.19 213.53 50.19 213.7V214.86C50.19 215.18 50.43 215.46 50.75 215.5C52.42 215.72 58.18 216.24 62.64 215.42C62.91 215.38 63.1 215.16 63.13 214.9Z" fill="white"/>
<path d="M56.87 216.18C54.35 216.18 52.03 215.98 50.71 215.81C50.24 215.75 49.88 215.34 49.88 214.86V213.7C49.88 213.53 49.95 213.37 50.09 213.25C50.22 213.14 50.39 213.09 50.57 213.11C56.51 214.03 61.42 213.4 62.78 213.19C62.94 213.16 63.11 213.21 63.24 213.31C63.37 213.41 63.45 213.56 63.46 213.73C63.49 214.11 63.48 214.59 63.45 214.93C63.41 215.33 63.11 215.65 62.71 215.73C60.89 216.07 58.82 216.18 56.87 216.18ZM50.51 213.74V214.86C50.51 215.03 50.63 215.17 50.8 215.19C53.09 215.49 58.51 215.87 62.6 215.11C62.72 215.09 62.82 214.99 62.83 214.86C62.86 214.58 62.86 214.15 62.84 213.81C61.4 214.04 56.46 214.66 50.51 213.74Z" fill="black"/>
<path d="M60.32 213.12C60.28 213.12 60.25 213.11 60.21 213.1C60.05 213.04 59.97 212.86 60.03 212.7L60.24 212.14C60.3 211.98 60.48 211.9 60.64 211.96C60.8 212.02 60.88 212.2 60.82 212.36L60.61 212.92C60.56 213.04 60.44 213.12 60.32 213.12Z" fill="black"/>
<path d="M58.9 213.09C58.86 213.09 58.82 213.08 58.78 213.07C58.62 213 58.55 212.82 58.61 212.66L58.94 211.85C59.01 211.69 59.19 211.62 59.35 211.68C59.51 211.75 59.58 211.93 59.52 212.09L59.19 212.9C59.13 213.02 59.02 213.09 58.9 213.09Z" fill="black"/>
<path d="M57.4 212.7C57.33 212.7 57.27 212.68 57.21 212.63C57.07 212.52 57.05 212.33 57.16 212.19L57.75 211.43C57.86 211.29 58.05 211.27 58.19 211.38C58.33 211.49 58.35 211.68 58.24 211.82L57.65 212.58C57.58 212.66 57.49 212.7 57.4 212.7Z" fill="black"/>
<path d="M55.94 211.71C55.82 211.71 55.71 211.64 55.66 211.53C55.59 211.37 55.66 211.19 55.82 211.12L56.9 210.63C57.06 210.56 57.24 210.63 57.31 210.79C57.38 210.95 57.31 211.13 57.15 211.2L56.07 211.69C56.03 211.7 55.98 211.71 55.94 211.71Z" fill="black"/>
<path d="M55.58 210.19C55.42 210.19 55.28 210.07 55.27 209.9C55.26 209.73 55.39 209.58 55.56 209.57L56.88 209.47C57.05 209.45 57.2 209.59 57.21 209.76C57.22 209.93 57.09 210.08 56.92 210.09L55.6 210.19C55.6 210.19 55.59 210.19 55.58 210.19Z" fill="black"/>
<path d="M33.75 202.72L33.34 203.47C32.95 204.17 32.47 204.79 31.76 205.15C31.15 205.46 30.39 205.96 29.88 206.74C29.88 206.74 34.78 211.84 40.65 213.86C40.65 213.86 41.06 213.28 39.74 211.93C38.42 210.58 36.69 209.13 36.93 208.53C37.21 207.83 37.99 206.94 38.07 206.38C38.16 205.74 36.43 204.02 34.99 204.13C34.99 204.14 34.53 202.96 33.75 202.72Z" fill="white"/>
<path d="M40.65 214.17C40.62 214.17 40.58 214.16 40.55 214.15C34.67 212.13 29.71 207 29.66 206.95C29.56 206.85 29.54 206.69 29.62 206.56C30.18 205.7 31.02 205.16 31.62 204.86C32.17 204.58 32.63 204.09 33.07 203.31L33.48 202.56C33.55 202.43 33.7 202.37 33.85 202.41C34.56 202.63 35.01 203.42 35.2 203.81C36.18 203.84 37.17 204.52 37.75 205.13C38.02 205.41 38.45 205.95 38.39 206.41C38.33 206.79 38.05 207.24 37.75 207.71C37.55 208.03 37.34 208.36 37.22 208.64C37.14 208.95 38.35 210.12 39.07 210.82C39.37 211.11 39.67 211.41 39.96 211.7C41.4 213.16 41 213.9 40.9 214.03C40.84 214.12 40.75 214.17 40.65 214.17ZM30.29 206.7C31.2 207.6 35.44 211.6 40.39 213.43C40.33 213.18 40.11 212.75 39.52 212.14C39.24 211.85 38.94 211.56 38.64 211.27C37.19 209.86 36.39 209.04 36.64 208.4C36.77 208.07 37 207.72 37.22 207.37C37.47 206.98 37.73 206.57 37.77 206.32C37.78 206.25 37.68 205.96 37.3 205.55C36.73 204.95 35.81 204.36 35.03 204.43C34.89 204.44 34.77 204.36 34.72 204.23C34.62 203.98 34.31 203.38 33.9 203.11L33.63 203.6C33.32 204.16 32.8 204.97 31.92 205.41C31.41 205.67 30.76 206.08 30.29 206.7Z" fill="black"/>
<path d="M39.88 215.08C40.05 214.87 40.27 214.55 40.44 214.26C40.56 214.05 40.48 213.79 40.26 213.69C38.95 213.09 34.6 210.95 30.24 207.06C30.05 206.89 29.76 206.93 29.63 207.14L29.08 207.99C28.9 208.26 28.95 208.62 29.2 208.83C30.48 209.93 35.01 213.51 39.2 215.26C39.43 215.35 39.71 215.28 39.88 215.08Z" fill="white"/>
<path d="M39.41 215.61C39.29 215.61 39.18 215.59 39.06 215.54C35.15 213.91 30.76 210.59 28.98 209.06C28.62 208.75 28.54 208.21 28.8 207.81L29.35 206.96C29.46 206.79 29.65 206.67 29.86 206.64C30.07 206.61 30.28 206.68 30.44 206.82C34.79 210.69 39.15 212.83 40.38 213.4C40.57 213.48 40.71 213.64 40.77 213.84C40.83 214.03 40.81 214.24 40.7 214.42C40.52 214.72 40.29 215.06 40.11 215.28C39.94 215.49 39.68 215.61 39.41 215.61ZM29.96 207.26C29.95 207.26 29.95 207.26 29.95 207.26C29.93 207.26 29.9 207.27 29.88 207.3L29.33 208.15C29.24 208.29 29.26 208.48 29.39 208.59C31.14 210.09 35.47 213.36 39.31 214.97C39.42 215.02 39.56 214.98 39.64 214.89C39.8 214.69 40.01 214.39 40.17 214.11C40.19 214.08 40.18 214.05 40.18 214.04C40.18 214.02 40.16 214 40.13 213.98C38.88 213.41 34.44 211.23 30.03 207.3C30 207.27 29.98 207.26 29.96 207.26Z" fill="black"/>
<path d="M38.67 212.1C38.57 212.1 38.48 212.059 38.42 211.969C38.32 211.829 38.35 211.639 38.49 211.529L38.97 211.179C39.11 211.079 39.3 211.109 39.41 211.249C39.51 211.389 39.48 211.579 39.34 211.689L38.86 212.039C38.8 212.079 38.73 212.1 38.67 212.1Z" fill="black"/>
<path d="M37.5 211.3C37.4 211.3 37.3 211.25 37.24 211.16C37.14 211.02 37.18 210.82 37.32 210.73L38.04 210.24C38.18 210.14 38.38 210.18 38.47 210.32C38.57 210.46 38.53 210.66 38.39 210.75L37.67 211.24C37.62 211.28 37.56 211.3 37.5 211.3Z" fill="black"/>
<path d="M36.45 210.15C36.32 210.15 36.2 210.07 36.16 209.94C36.1 209.78 36.19 209.6 36.35 209.54L37.26 209.23C37.42 209.17 37.6 209.26 37.66 209.42C37.72 209.58 37.63 209.76 37.47 209.82L36.56 210.13C36.52 210.15 36.49 210.15 36.45 210.15Z" fill="black"/>
<path d="M36.95 208.71C36.93 208.71 36.92 208.71 36.9 208.71L35.73 208.53C35.56 208.5 35.44 208.34 35.47 208.17C35.5 208 35.66 207.88 35.83 207.91L37 208.09C37.17 208.12 37.29 208.28 37.26 208.45C37.23 208.6 37.1 208.71 36.95 208.71Z" fill="black"/>
<path d="M37.47 207.7C37.42 207.7 37.37 207.69 37.32 207.66L36.16 207.02C36.01 206.94 35.95 206.75 36.04 206.6C36.12 206.45 36.31 206.39 36.46 206.48L37.62 207.12C37.77 207.2 37.83 207.39 37.74 207.54C37.68 207.64 37.58 207.7 37.47 207.7Z" fill="black"/>
<path d="M71.0466 158.918C72.1333 155.958 70.0472 152.469 66.3871 151.126C62.727 149.782 58.8789 151.092 57.7922 154.053C56.7055 157.013 58.7916 160.502 62.4517 161.845C66.1119 163.189 69.9599 161.879 71.0466 158.918Z" fill="white"/>
<path d="M65.37 162.68C64.38 162.68 63.36 162.5 62.35 162.13C60.51 161.45 59 160.23 58.08 158.7C57.15 157.14 56.95 155.45 57.51 153.93C58.66 150.82 62.7 149.43 66.52 150.84C68.36 151.52 69.87 152.74 70.79 154.27C71.72 155.83 71.92 157.52 71.36 159.04C70.51 161.32 68.1 162.68 65.37 162.68ZM63.49 150.91C61.02 150.91 58.85 152.11 58.1 154.15C57.6 155.49 57.79 156.99 58.62 158.38C59.46 159.79 60.86 160.92 62.57 161.54C66.06 162.83 69.75 161.61 70.78 158.81C71.28 157.47 71.09 155.97 70.26 154.58C69.42 153.17 68.02 152.04 66.31 151.42C65.36 151.07 64.4 150.91 63.49 150.91Z" fill="black"/>
<path d="M72.17 157.98C73.4568 157.98 74.5 156.937 74.5 155.65C74.5 154.363 73.4568 153.32 72.17 153.32C70.8832 153.32 69.84 154.363 69.84 155.65C69.84 156.937 70.8832 157.98 72.17 157.98Z" fill="white"/>
<path d="M59.76 153.46C61.0468 153.46 62.09 152.417 62.09 151.13C62.09 149.843 61.0468 148.8 59.76 148.8C58.4732 148.8 57.43 149.843 57.43 151.13C57.43 152.417 58.4732 153.46 59.76 153.46Z" fill="white"/>
<path d="M72.17 158.29C71.91 158.29 71.64 158.25 71.38 158.17C71.08 158.08 70.8 157.93 70.55 157.74C70.41 157.63 70.39 157.44 70.5 157.3C70.61 157.16 70.8 157.14 70.94 157.24C71.13 157.39 71.34 157.5 71.58 157.57C72.64 157.9 73.78 157.31 74.12 156.25C74.28 155.74 74.23 155.19 73.98 154.71C73.73 154.23 73.31 153.88 72.79 153.72C71.89 153.44 70.9 153.82 70.43 154.64C70.34 154.79 70.15 154.84 70 154.75C69.85 154.66 69.8 154.47 69.89 154.32C70.5 153.26 71.8 152.76 72.97 153.12C73.64 153.33 74.2 153.79 74.52 154.42C74.85 155.05 74.91 155.76 74.7 156.44C74.34 157.56 73.29 158.29 72.17 158.29Z" fill="black"/>
<path d="M59.86 153.74C59.03 153.74 58.24 153.35 57.74 152.68C57.32 152.11 57.14 151.42 57.24 150.72C57.34 150.02 57.71 149.4 58.27 148.98C59.44 148.11 61.1 148.35 61.97 149.51C62.22 149.85 62.39 150.25 62.46 150.66C62.49 150.83 62.37 150.99 62.2 151.02C62.03 151.05 61.87 150.93 61.84 150.76C61.79 150.44 61.66 150.14 61.46 149.88C60.79 148.99 59.52 148.8 58.63 149.47C58.2 149.79 57.92 150.27 57.84 150.8C57.76 151.33 57.9 151.87 58.22 152.3C58.65 152.88 59.37 153.18 60.09 153.1C60.26 153.08 60.42 153.2 60.44 153.37C60.46 153.54 60.34 153.7 60.17 153.72C60.07 153.73 59.97 153.74 59.86 153.74Z" fill="black"/>
<path d="M72.05 169.25C71.14 169.73 70.01 169.38 69.52 168.47L65.87 161.58L69.18 159.83L72.82 166.71C73.31 167.64 72.96 168.77 72.05 169.25Z" fill="white"/>
<path d="M71.18 169.78C70.4 169.78 69.64 169.36 69.25 168.62L66.53 163.48C66.45 163.33 66.51 163.14 66.66 163.06C66.81 162.98 67 163.04 67.08 163.19L69.8 168.33C70.2 169.09 71.15 169.38 71.91 168.98C72.28 168.79 72.55 168.46 72.67 168.06C72.79 167.66 72.75 167.24 72.56 166.87L69.46 161.02C69.38 160.87 69.44 160.68 69.59 160.6C69.74 160.52 69.93 160.58 70.01 160.73L73.11 166.58C73.38 167.09 73.44 167.68 73.27 168.24C73.1 168.8 72.72 169.25 72.21 169.52C71.87 169.7 71.52 169.78 71.18 169.78Z" fill="black"/>
<path d="M31.8 177.41C31.17 177.61 30.76 177.31 30.84 176.8C30.92 176.29 31.51 176.08 32.1 175.44C32.23 175.3 30.34 175.82 29.48 175.77C29.13 175.75 28.82 175.53 28.66 175.22C28.66 175.22 28.23 174.45 28.95 173.96C30.01 173.24 32.96 172.75 33.72 172.32L35.35 171.34L37.21 173.33L34.95 175.39C34.84 175.49 33.97 176.2 33.33 176.56L31.8 177.41Z" fill="white"/>
<path d="M31.43 177.79C31.18 177.79 30.97 177.72 30.8 177.58C30.58 177.39 30.48 177.09 30.54 176.76C30.6 176.38 30.84 176.15 31.13 175.9C30.56 176 29.91 176.11 29.47 176.08C29.01 176.05 28.6 175.78 28.39 175.35C28.2 175.01 28.03 174.21 28.79 173.69C29.44 173.25 30.7 172.9 31.82 172.6C32.58 172.39 33.29 172.2 33.58 172.03L35.21 171.05C35.34 170.97 35.5 171 35.6 171.1L37.46 173.09C37.52 173.15 37.55 173.23 37.54 173.32C37.54 173.4 37.5 173.48 37.44 173.54L35.18 175.6C35.07 175.7 34.18 176.42 33.51 176.81L31.97 177.69C31.95 177.7 31.93 177.71 31.91 177.72C31.74 177.76 31.58 177.79 31.43 177.79ZM32.1 175.11C32.26 175.11 32.33 175.16 32.39 175.28C32.46 175.4 32.43 175.56 32.34 175.66C32.1 175.92 31.87 176.11 31.67 176.27C31.36 176.52 31.19 176.67 31.16 176.86C31.15 176.94 31.15 177.05 31.22 177.11C31.29 177.17 31.44 177.2 31.69 177.13L33.21 176.27C33.83 175.92 34.67 175.23 34.77 175.14L36.8 173.3L35.32 171.73L33.9 172.58C33.54 172.79 32.82 172.99 31.99 173.21C30.92 173.5 29.72 173.83 29.15 174.21C28.7 174.52 28.91 174.98 28.96 175.06C29.07 175.29 29.29 175.44 29.52 175.45C29.98 175.48 30.83 175.31 31.38 175.21C31.73 175.15 31.95 175.11 32.1 175.11Z" fill="black"/>
<path d="M66.65 162.27L62.36 159.7C60.38 158.51 58.6 157.02 57.09 155.28L52.04 149.48L47.23 149.51L46.98 150.48L45.17 149.94L42.94 155.71C41.38 159.74 39.38 163.58 36.97 167.17L34.3 171.14L37.17 174.22C39.25 172.53 40.82 171.01 42.11 169.52L38.76 182.59H58.83V165.89L62.43 168.06C64.09 169.06 66.26 168.56 67.31 166.93C68.27 165.41 67.99 163.44 66.65 162.27Z" fill="white"/>
<path d="M58.84 182.89H38.77C38.67 182.89 38.58 182.85 38.52 182.77C38.46 182.69 38.44 182.59 38.46 182.5L41.49 170.66C40.31 171.92 38.95 173.17 37.37 174.45C37.24 174.55 37.06 174.54 36.95 174.42L34.08 171.34C33.98 171.23 33.97 171.07 34.05 170.95L36.72 166.98C39.11 163.42 41.11 159.59 42.65 155.59L44.88 149.82C44.94 149.67 45.1 149.59 45.26 149.63L46.76 150.08L46.93 149.42C46.97 149.28 47.09 149.19 47.23 149.19L52.04 149.16C52.14 149.17 52.22 149.2 52.28 149.27L57.33 155.07C58.83 156.79 60.58 158.25 62.53 159.43L66.82 162C66.84 162.01 66.85 162.02 66.87 162.03C68.33 163.31 68.63 165.43 67.58 167.06C66.43 168.85 64.1 169.39 62.28 168.29L59.16 166.41V182.56C59.15 182.75 59.01 182.89 58.84 182.89ZM39.17 182.26H58.53V165.87C58.53 165.76 58.59 165.65 58.69 165.6C58.79 165.54 58.91 165.55 59 165.6L62.6 167.77C64.13 168.69 66.09 168.24 67.05 166.73C67.93 165.36 67.68 163.6 66.47 162.52L62.21 159.96C60.2 158.75 58.4 157.25 56.86 155.48L51.91 149.79L47.48 149.82L47.29 150.56C47.27 150.64 47.22 150.71 47.14 150.75C47.07 150.79 46.98 150.8 46.9 150.78L45.36 150.32L43.24 155.82C41.68 159.86 39.66 163.74 37.24 167.34L34.71 171.1L37.21 173.78C39.06 172.26 40.59 170.79 41.88 169.3C41.97 169.19 42.13 169.16 42.26 169.23C42.39 169.3 42.45 169.44 42.42 169.58L39.17 182.26Z" fill="black"/>
<path d="M63.12 171.9C64.4731 171.9 65.57 170.731 65.57 169.29C65.57 167.848 64.4731 166.68 63.12 166.68C61.7669 166.68 60.67 167.848 60.67 169.29C60.67 170.731 61.7669 171.9 63.12 171.9Z" fill="white"/>
<path d="M63.12 172.22C61.6 172.22 60.36 170.91 60.36 169.3C60.36 167.69 61.6 166.38 63.12 166.38C64.64 166.38 65.88 167.69 65.88 169.3C65.88 170.91 64.64 172.22 63.12 172.22ZM63.12 166.99C61.94 166.99 60.99 168.02 60.99 169.29C60.99 170.56 61.95 171.59 63.12 171.59C64.29 171.59 65.25 170.56 65.25 169.29C65.25 168.02 64.3 166.99 63.12 166.99Z" fill="black"/>
<path d="M58.7767 166.973C59.5406 165.667 59.1975 164.046 58.0105 163.351C56.8234 162.657 55.2418 163.153 54.4779 164.46C53.714 165.766 54.0571 167.387 55.2442 168.082C56.4312 168.776 58.0128 168.28 58.7767 166.973Z" fill="white"/>
<path d="M56.42 168.71C55.97 168.71 55.52 168.6 55.11 168.36C54.5 168.01 54.06 167.42 53.87 166.72C53.66 165.93 53.78 165.06 54.21 164.32C55.05 162.87 56.82 162.31 58.16 163.08C58.77 163.43 59.21 164.02 59.4 164.72C59.61 165.51 59.49 166.38 59.06 167.12C58.48 168.13 57.45 168.71 56.42 168.71ZM56.84 163.36C56.03 163.36 55.21 163.83 54.74 164.64C54.4 165.23 54.3 165.94 54.46 166.56C54.61 167.11 54.94 167.56 55.41 167.83C56.45 168.43 57.84 167.98 58.51 166.82C58.85 166.23 58.95 165.53 58.79 164.9C58.64 164.35 58.31 163.9 57.84 163.63C57.54 163.44 57.19 163.36 56.84 163.36Z" fill="black"/>
<path d="M54.74 138.71C55.22 138.83 55.62 140.35 55.73 140.93C56.11 142.89 55.93 146.36 54.79 146.72C53.73 147.05 53.45 146.53 52.73 147.13C52.12 147.64 51.81 148.59 51.72 150.14C51.71 150.24 52.7 151.23 53.28 151.85C53.43 152.02 52.07 153.6 49.34 153.45C45.89 153.26 46.27 150.96 46.23 150.79C46.2 150.69 48.42 137.17 54.74 138.71Z" fill="white"/>
<path d="M49.7 153.77C49.57 153.77 49.45 153.77 49.31 153.76C47.75 153.67 45.9 153.11 45.91 150.9C45.91 150.87 45.91 150.85 45.91 150.84C45.86 150.64 47.12 143.06 50.45 139.78C51.76 138.49 53.22 138.03 54.8 138.42C55.52 138.6 55.92 140.35 56.02 140.88C56.38 142.73 56.3 146.58 54.87 147.03C54.35 147.19 53.99 147.17 53.71 147.15C53.39 147.13 53.23 147.12 52.92 147.38C52.4 147.81 52.12 148.64 52.03 150.08C52.17 150.25 52.6 150.7 52.92 151.04C53.12 151.25 53.33 151.47 53.5 151.65C53.55 151.71 53.66 151.86 53.54 152.11C53.33 152.57 52.03 153.77 49.7 153.77ZM46.54 150.79C46.54 150.82 46.54 150.86 46.54 150.9C46.53 152.28 47.48 153.04 49.35 153.14C51.5 153.26 52.65 152.27 52.92 151.93C52.78 151.78 52.63 151.62 52.47 151.46C51.43 150.36 51.39 150.31 51.4 150.12C51.5 148.44 51.85 147.44 52.52 146.88C53.02 146.47 53.39 146.49 53.75 146.51C54.01 146.53 54.28 146.54 54.69 146.41C55.52 146.15 55.81 143.03 55.41 140.98C55.21 139.97 54.84 139.09 54.65 139C53.55 138.73 52.51 138.95 51.56 139.63C47.98 142.22 46.6 150.36 46.54 150.79Z" fill="black"/>
<path d="M56.58 139.15C56.68 139.78 56.24 140.36 55.61 140.44C53.9 140.64 52.26 141.05 51.01 142.49C49.81 143.88 49.86 150.96 49.36 155.45C49.14 157.43 47.11 158.65 45.24 157.94C40.51 156.15 37.51 151.64 39.44 148.3L45.12 138.04C45.79 136.88 46.82 135.98 48.17 135.35C48.8 135.06 49.88 134.8 50.57 134.77C55.19 134.56 56.31 137.46 56.58 139.15Z" fill="black"/>
<path d="M52.13 143.3C50.94 143.14 50.68 140.85 51.39 140.59C52.1 140.32 52.63 141.51 52.63 141.51L52.13 143.3Z" fill="white"/>
<path d="M52.13 143.61C52.12 143.61 52.1 143.61 52.09 143.61C51.26 143.5 50.8 142.62 50.7 141.8C50.62 141.05 50.84 140.46 51.28 140.29C52.06 140 52.67 140.83 52.91 141.37C52.98 141.53 52.91 141.71 52.75 141.78C52.59 141.85 52.41 141.78 52.34 141.62C52.25 141.43 51.85 140.74 51.49 140.87C51.38 140.91 51.26 141.24 51.31 141.73C51.37 142.29 51.67 142.92 52.16 142.99C52.33 143.01 52.45 143.17 52.43 143.34C52.42 143.5 52.29 143.61 52.13 143.61Z" fill="black"/>
<path d="M118.03 165.77L118.38 171.36C118.4 171.51 118.29 171.66 118.16 171.67L115.43 171.84C115.31 171.85 115.21 171.75 115.19 171.62L114.29 166.38L118.03 165.77Z" fill="white"/>
<path d="M115.41 172.15C115.14 172.15 114.91 171.94 114.88 171.66L113.98 166.44C113.97 166.36 113.99 166.27 114.03 166.21C114.08 166.14 114.15 166.1 114.23 166.08L117.97 165.47C118.06 165.46 118.15 165.48 118.21 165.53C118.28 165.58 118.32 165.67 118.33 165.75L118.68 171.34C118.7 171.49 118.65 171.66 118.54 171.78C118.44 171.9 118.31 171.96 118.16 171.97L115.43 172.14C115.43 172.15 115.42 172.15 115.41 172.15ZM114.65 166.64L115.49 171.52L118.08 171.36L117.74 166.13L114.65 166.64Z" fill="black"/>
<path d="M118.81 169.94C118.99 170.59 119.37 172.42 119.53 173.52C119.63 174.21 119.19 174.86 118.52 175.04C116.63 175.55 112.11 175.53 108.35 175.69C108.09 175.7 107.62 175.58 107.41 174.95C106.69 172.83 110.65 172.18 114.56 170.03C114.64 169.99 114.73 169.99 114.8 170.04C114.84 170.07 114.9 170.11 114.97 170.15C115.65 170.58 116.78 170.58 117.47 170.17L118.25 169.7C118.47 169.59 118.75 169.7 118.81 169.94Z" fill="white"/>
<path d="M108.33 176.01C107.91 176.01 107.36 175.76 107.12 175.06C106.53 173.31 108.5 172.46 111 171.38C112.05 170.93 113.24 170.41 114.41 169.77C114.59 169.67 114.81 169.68 114.98 169.8C115.02 169.83 115.07 169.87 115.14 169.91C115.72 170.28 116.71 170.28 117.31 169.92L118.09 169.45C118.28 169.34 118.5 169.32 118.7 169.4C118.9 169.48 119.05 169.65 119.11 169.86C119.3 170.54 119.68 172.38 119.84 173.48C119.96 174.32 119.43 175.13 118.61 175.35C117.17 175.74 114.34 175.82 111.35 175.91C110.36 175.94 109.33 175.97 108.37 176.01C108.36 176.01 108.34 176.01 108.33 176.01ZM114.67 170.34C113.49 170.99 112.3 171.5 111.25 171.95C108.73 173.04 107.32 173.71 107.71 174.86C107.89 175.38 108.27 175.39 108.35 175.39C109.32 175.35 110.35 175.32 111.34 175.29C114.16 175.21 117.08 175.12 118.45 174.75C118.97 174.61 119.31 174.1 119.23 173.57C119.08 172.52 118.7 170.68 118.51 170.03C118.5 170 118.48 169.99 118.47 169.99C118.46 169.98 118.44 169.98 118.41 169.99L117.63 170.46C116.84 170.94 115.57 170.93 114.8 170.44C114.75 170.4 114.71 170.36 114.67 170.34Z" fill="black"/>
<path d="M119.65 174.02C119.65 174.04 119.66 174.05 119.66 174.06C119.76 174.75 119.1 175.18 118.48 175.47C116.62 176.34 109.09 175.84 108.8 175.82C108.79 175.82 108.79 175.82 108.78 175.82C108.69 175.82 107.73 175.82 107.46 175.23C107.43 175.16 107.4 175.05 107.39 174.96C107.37 174.8 107.38 174.64 107.41 174.48C107.44 174.35 107.56 174.27 107.69 174.31C109.09 174.67 112.35 174.79 115.61 174.43C117.78 174.19 118.72 173.72 119.22 173.42C119.36 173.34 119.53 173.42 119.56 173.57C119.59 173.69 119.62 173.85 119.65 174.02Z" fill="white"/>
<path d="M113.51 176.29C111.31 176.29 109.2 176.16 108.78 176.13C108.58 176.13 107.53 176.11 107.18 175.36C107.14 175.27 107.11 175.15 107.09 175C107.06 174.81 107.07 174.62 107.12 174.42C107.15 174.28 107.24 174.15 107.37 174.07C107.5 173.99 107.64 173.97 107.78 174.01C109.06 174.34 112.23 174.49 115.58 174.12C117.63 173.89 118.55 173.46 119.06 173.15C119.21 173.06 119.4 173.05 119.56 173.12C119.72 173.19 119.84 173.34 119.87 173.51L119.97 174.02C120.12 175.05 119.02 175.56 118.61 175.76C117.69 176.17 115.56 176.29 113.51 176.29ZM108.78 175.51C108.79 175.51 108.82 175.51 108.83 175.51C111.69 175.7 116.92 175.85 118.34 175.18C119.09 174.83 119.41 174.49 119.35 174.1V174.08L119.28 173.74C118.7 174.07 117.69 174.51 115.65 174.73C112.3 175.1 109.1 174.95 107.71 174.63C107.69 174.73 107.69 174.83 107.71 174.92C107.73 175.04 107.75 175.09 107.75 175.1C107.93 175.51 108.77 175.51 108.78 175.51Z" fill="black"/>
<path d="M114.29 172.06C114.22 172.06 114.16 172.04 114.1 172L112.96 171.13C112.82 171.03 112.8 170.83 112.9 170.69C113 170.55 113.2 170.53 113.34 170.63L114.48 171.5C114.62 171.6 114.64 171.8 114.54 171.94C114.48 172.02 114.39 172.06 114.29 172.06Z" fill="black"/>
<path d="M112.78 172.68C112.72 172.68 112.65 172.66 112.59 172.62L111.59 171.87C111.45 171.77 111.42 171.57 111.53 171.43C111.63 171.29 111.83 171.26 111.97 171.37L112.97 172.12C113.11 172.22 113.14 172.42 113.03 172.56C112.97 172.64 112.87 172.68 112.78 172.68Z" fill="black"/>
<path d="M125.99 115.03C125.99 115.03 128.16 119.36 128.89 123.93C129.57 128.18 132.07 145.68 138.15 159.72C138.84 161.31 138.04 162.97 136.35 163.34C135.67 163.49 135.39 163.25 134.8 162.96C134.5 162.81 133.99 162.38 133.99 162.38C133.99 162.38 123.22 153.39 118.82 129.79C115.99 114.61 116.46 115.82 116.46 115.82L125.99 115.03Z" fill="black"/>
<path d="M122.96 117.01C122.96 117.01 124.22 125.25 121.83 131.34C119.53 137.2 118.06 160.17 118.92 166.81C118.97 167.23 118.68 167.61 118.27 167.67C117.22 167.82 115.34 168.02 114.05 167.78C113.81 167.74 113.62 167.56 113.56 167.33C112.71 163.96 105.64 133.53 110.62 117.93L122.96 117.01Z" fill="black"/>
<path d="M120.63 138.45C120.46 138.45 120.32 138.32 120.32 138.15C120.32 138.02 120.24 134.82 121.56 131.75C122.01 130.69 122.08 129.65 122.03 128.31C122.02 128.14 122.16 127.99 122.33 127.99C122.5 127.97 122.65 128.12 122.65 128.29C122.7 129.68 122.63 130.84 122.13 132C120.86 134.94 120.94 138.1 120.95 138.13C120.95 138.3 120.81 138.44 120.63 138.45C120.64 138.45 120.63 138.45 120.63 138.45Z" fill="white"/>
<path d="M115.54 129.96C115.21 129.96 114.88 129.89 114.58 129.76L112.32 128.75C111.52 128.39 111.02 127.59 111.05 126.72L111.19 122.27C111.2 122.04 111.3 121.81 111.48 121.66C111.66 121.51 111.89 121.43 112.13 121.46C114.8 121.74 117.31 121.48 118.57 121.3C118.82 121.26 119.08 121.34 119.26 121.51C119.45 121.68 119.55 121.93 119.53 122.18L119.28 126.84C119.24 127.49 118.92 128.09 118.39 128.47L116.93 129.53C116.51 129.81 116.03 129.96 115.54 129.96ZM112.03 122.07C111.98 122.07 111.92 122.09 111.88 122.13C111.83 122.17 111.81 122.23 111.8 122.29L111.66 126.74C111.64 127.36 111.99 127.93 112.56 128.18L114.82 129.19C115.38 129.44 116.05 129.37 116.55 129.01L118.02 127.95C118.4 127.68 118.63 127.26 118.65 126.79L118.9 122.13C118.9 122.04 118.86 121.98 118.83 121.95C118.8 121.92 118.74 121.88 118.65 121.89C117.36 122.08 114.79 122.35 112.05 122.06C112.04 122.07 112.03 122.07 112.03 122.07Z" fill="white"/>
<path d="M126.96 128.91C126.83 128.91 126.69 128.88 126.57 128.82L124.08 127.56C123.82 127.43 123.65 127.18 123.61 126.89L123.05 121.71C123 121.25 123.32 120.84 123.77 120.77L126.8 120.3C126.97 120.27 127.13 120.39 127.16 120.56C127.19 120.73 127.07 120.89 126.9 120.92L123.87 121.39C123.74 121.41 123.66 121.52 123.67 121.65L124.23 126.83C124.24 126.91 124.29 126.98 124.36 127.02L126.85 128.28C126.93 128.32 127.02 128.31 127.09 128.26L128.59 127.2C128.73 127.1 128.93 127.13 129.02 127.28C129.12 127.42 129.09 127.61 128.94 127.71L127.44 128.77C127.31 128.86 127.13 128.91 126.96 128.91Z" fill="white"/>
<path d="M136.35 166C136.02 164.34 135.87 164 135.08 162.72C134.49 161.77 135.93 160.34 136.66 160.23C137.88 159.98 137.69 160.37 139.09 162.16L140.19 163.51C140.18 163.5 136.64 167.45 136.35 166Z" fill="white"/>
<path d="M136.68 166.63C136.62 166.63 136.57 166.62 136.51 166.61C136.37 166.57 136.12 166.45 136.05 166.06C135.76 164.61 135.67 164.23 135.09 163.26C135 163.11 135.05 162.92 135.2 162.83C135.35 162.74 135.54 162.79 135.63 162.94C136.26 163.99 136.37 164.43 136.67 165.94C136.68 166 136.7 166.01 136.7 166.01C137.02 166.12 138.44 164.96 139.79 163.49L138.92 162.43C138.51 161.91 138.26 161.5 138.04 161.13C137.95 160.98 138 160.79 138.15 160.7C138.3 160.61 138.49 160.66 138.58 160.81C138.79 161.16 139.03 161.55 139.41 162.04L140.45 163.3C140.55 163.42 140.54 163.59 140.44 163.71C139.6 164.62 137.69 166.63 136.68 166.63Z" fill="black"/>
<path d="M136.16 165.38L137.58 163.25C138.24 162.25 139.65 162.11 140.5 162.94L142.12 164.3C142.12 164.3 142.43 165.23 142.33 165.84C142.2 166.62 141.95 167.74 141.46 168.85C140.71 170.56 138.63 173.98 137.88 175.19C137.72 175.44 137.34 175.69 137.07 175.57C136.75 175.43 136.42 175.17 136.09 174.87C135.59 174.4 135.76 172.22 135.94 170.7C136.05 169.73 135.97 167.24 135.93 166.22C135.92 165.92 136 165.63 136.16 165.38Z" fill="white"/>
<path d="M137.23 175.91C137.13 175.91 137.04 175.89 136.95 175.85C136.63 175.71 136.28 175.46 135.89 175.09C135.59 174.81 135.24 174.05 135.64 170.66C135.75 169.71 135.67 167.24 135.63 166.23C135.62 165.87 135.71 165.52 135.91 165.21L137.33 163.08C137.7 162.53 138.28 162.17 138.94 162.1C139.6 162.03 140.25 162.26 140.72 162.72L142.32 164.06C142.36 164.1 142.4 164.15 142.42 164.2C142.43 164.24 142.75 165.21 142.64 165.88C142.51 166.65 142.26 167.82 141.75 168.97C141 170.67 138.99 173.99 138.15 175.34C137.98 175.62 137.6 175.91 137.23 175.91ZM139.17 162.71C139.11 162.71 139.06 162.71 139 162.72C138.53 162.77 138.1 163.03 137.84 163.42L136.42 165.55C136.29 165.74 136.23 165.97 136.24 166.2C136.28 167.23 136.37 169.73 136.25 170.73C135.86 174.03 136.23 174.56 136.31 174.63C136.65 174.95 136.95 175.16 137.2 175.28C137.27 175.31 137.51 175.19 137.62 175.02C138.26 173.97 140.42 170.43 141.18 168.72C141.66 167.63 141.91 166.52 142.03 165.78C142.09 165.39 141.94 164.77 141.86 164.47L140.31 163.17C139.98 162.87 139.58 162.71 139.17 162.71Z" fill="black"/>
<path d="M135.99 168.13C135.85 168.13 135.73 168.04 135.69 167.9C135.64 167.73 135.74 167.56 135.91 167.52L137.43 167.1C137.6 167.05 137.77 167.15 137.81 167.32C137.86 167.49 137.76 167.66 137.59 167.7L136.07 168.12C136.05 168.12 136.02 168.13 135.99 168.13Z" fill="black"/>
<path d="M136.1 169.49C135.96 169.49 135.84 169.4 135.8 169.26C135.75 169.09 135.85 168.92 136.02 168.88L137.54 168.46C137.71 168.41 137.88 168.51 137.92 168.68C137.97 168.85 137.87 169.02 137.7 169.06L136.18 169.48C136.16 169.48 136.13 169.49 136.1 169.49Z" fill="black"/>
<path d="M137.66 175.68C137.5 175.68 137.36 175.66 137.22 175.61C136.76 175.45 135.63 175.11 135.75 173.48C135.88 171.79 137.17 170.93 138.11 169.82C138.83 168.97 138.75 165.44 138.98 164.74C139.38 163.5 141.2 163.31 142.11 164.29C142.69 164.91 142.76 166.26 142.7 167.25C142.59 169.11 141.5 172.81 140.12 174.59C139.45 175.48 138.41 175.68 137.66 175.68Z" fill="white"/>
<path d="M137.66 175.99C137.47 175.99 137.29 175.96 137.12 175.9L137.08 175.89C136.59 175.72 135.3 175.28 135.44 173.46C135.55 172.05 136.39 171.19 137.2 170.35C137.43 170.11 137.66 169.87 137.87 169.62C138.28 169.14 138.41 167.37 138.5 166.2C138.55 165.49 138.6 164.92 138.68 164.65C138.88 164.02 139.4 163.57 140.11 163.42C140.92 163.24 141.8 163.51 142.34 164.09C143 164.81 143.07 166.22 143.01 167.28C142.91 169.08 141.83 172.91 140.36 174.8C139.57 175.83 138.33 175.99 137.66 175.99ZM140.63 163.98C140.5 163.98 140.38 163.99 140.25 164.02C139.77 164.13 139.42 164.42 139.28 164.84C139.21 165.04 139.17 165.62 139.12 166.24C139.02 167.64 138.88 169.38 138.35 170.02C138.13 170.28 137.88 170.53 137.65 170.78C136.88 171.57 136.16 172.32 136.07 173.5C135.97 174.84 136.82 175.14 137.29 175.29L137.33 175.3C137.43 175.34 137.55 175.35 137.67 175.35C138.22 175.35 139.25 175.23 139.89 174.4C141.28 172.6 142.31 168.95 142.41 167.23C142.48 165.92 142.3 164.92 141.9 164.5C141.58 164.17 141.11 163.98 140.63 163.98Z" fill="black"/>
<path d="M137.66 175.99C137.2 175.99 136.79 175.81 136.52 175.5C136.28 175.22 136.17 174.86 136.23 174.48C136.48 172.68 137.45 171.74 138.48 170.76C139.22 170.05 139.43 167.34 139.52 166.18C139.56 165.68 139.58 165.46 139.61 165.34C139.77 164.76 140.48 164.24 141.22 164.16C141.92 164.08 142.5 164.4 142.83 165.02C142.91 165.17 142.85 165.36 142.7 165.44C142.55 165.52 142.36 165.46 142.28 165.31C142.01 164.81 141.59 164.75 141.29 164.78C140.77 164.84 140.29 165.21 140.21 165.5C140.19 165.57 140.16 165.9 140.14 166.22C140.03 167.66 139.82 170.33 138.9 171.2C137.91 172.15 137.05 172.97 136.83 174.56C136.8 174.76 136.85 174.94 136.97 175.08C137.12 175.25 137.36 175.35 137.64 175.35C137.8 175.35 137.97 175.34 138.12 175.32C138.29 175.3 138.45 175.42 138.47 175.59C138.49 175.76 138.37 175.92 138.2 175.94C138.04 175.98 137.85 175.99 137.66 175.99Z" fill="black"/>
<path d="M128.12 80.9C128.12 80.9 129.76 75.9 129.84 74.26C129.92 72.62 128.28 65.08 127.63 62.63C127.63 62.63 128.24 58.03 124.73 57.22C124.49 57.16 124.33 56.97 124.24 56.74C123.95 55.97 123.84 55.46 123.56 54.53C123.33 53.76 122.2 54.09 122.3 54.97C122.34 55.3 122.68 58.12 122.83 59.26C122.85 59.41 122.78 59.62 122.68 59.73C122.45 60 122.2 60.56 122.69 61.56C123.44 63.11 123.76 62.66 124.56 63.94C125.36 65.22 125.61 69.84 125.66 72.3C125.71 74.76 124.7 76.85 124.16 77.76C123.62 78.67 128.12 80.9 128.12 80.9Z" fill="white"/>
<path d="M128.12 81.2099C128.07 81.2099 128.03 81.1999 127.98 81.1799C127.34 80.8599 124.15 79.2399 123.82 78.1399C123.75 77.8899 123.81 77.7099 123.87 77.5999C124.33 76.8299 125.38 74.7599 125.33 72.3099C125.26 69.0499 124.94 65.1799 124.27 64.1099C123.94 63.5799 123.71 63.3799 123.46 63.1599C123.15 62.8899 122.82 62.6099 122.38 61.6899C121.81 60.4999 122.16 59.8199 122.42 59.5199C122.47 59.4699 122.5 59.3399 122.5 59.2899C122.35 58.1199 122.01 55.3399 121.97 54.9999C121.9 54.3399 122.34 53.8899 122.8 53.7999C123.27 53.7099 123.7 53.9699 123.84 54.4299C123.93 54.7299 124.01 54.9899 124.07 55.2299C124.21 55.7199 124.32 56.1099 124.51 56.6199C124.57 56.7899 124.66 56.8799 124.78 56.9099C128.29 57.7199 127.98 62.0199 127.92 62.5999C128.54 64.9499 130.22 72.5499 130.13 74.2699C130.05 75.9299 128.46 80.7799 128.39 80.9899C128.36 81.0799 128.3 81.1499 128.21 81.1799C128.2 81.1999 128.16 81.2099 128.12 81.2099ZM123.01 54.3999C122.99 54.3999 122.96 54.3999 122.94 54.4099C122.76 54.4499 122.57 54.6299 122.6 54.9399C122.63 55.2699 122.98 58.0799 123.13 59.2199C123.16 59.4499 123.06 59.7499 122.91 59.9299C122.63 60.2599 122.65 60.7699 122.96 61.4199C123.35 62.2199 123.6 62.4399 123.89 62.6899C124.15 62.9099 124.44 63.1599 124.82 63.7799C125.72 65.2199 125.93 70.2199 125.97 72.2999C126.03 74.9099 124.91 77.0999 124.43 77.9199C124.43 77.9199 124.43 77.9399 124.44 77.9599C124.61 78.5299 126.5 79.6999 127.95 80.4499C128.32 79.2999 129.48 75.5699 129.55 74.2399C129.63 72.6699 128.02 65.2499 127.35 62.6999C127.34 62.6599 127.34 62.6199 127.34 62.5799C127.36 62.3999 127.87 58.2499 124.68 57.5199C124.36 57.4499 124.1 57.2099 123.97 56.8399C123.77 56.3099 123.65 55.8899 123.51 55.3999C123.44 55.1599 123.37 54.9099 123.28 54.6099C123.21 54.4399 123.1 54.3999 123.01 54.3999Z" fill="black"/>
<path d="M125.54 75.6601C124.93 75.5301 124.3 75.8401 124.01 76.3901C123.41 77.5101 119.12 82.1801 118.48 82.6901C117.69 83.3201 115.41 87.1001 110.52 87.0001C110.23 86.9901 109.95 87.0901 109.73 87.2801C109.17 87.7501 107.85 88.6601 105.57 89.3501C104.18 89.7701 103.09 91.0901 102.96 94.1001C102.81 97.6801 99.08 104.69 100.17 107.37C102.06 112.04 105.09 110.72 107.94 109.78C107.94 109.78 108.14 109.78 107.97 113.98C107.71 120.4 107.55 120.67 116.45 120.08C123.13 119.64 129.25 118.69 129.31 117.29C129.36 116.26 127.57 110.68 127.2 103.97C126.83 97.2601 128 87.0201 128.75 84.4101C129.41 82.0801 128.54 76.3101 125.54 75.6601Z" fill="white"/>
<path d="M111.98 120.6C110.16 120.6 109.05 120.38 108.39 119.74C107.45 118.83 107.52 117.21 107.64 114.27L107.65 113.96C107.75 111.6 107.72 110.6 107.69 110.18L107.58 110.22C104.86 111.14 101.77 112.17 99.87 107.48C99.2 105.82 100.21 102.73 101.2 99.74C101.88 97.68 102.58 95.54 102.64 94.08C102.76 91.27 103.71 89.58 105.47 89.05C107.69 88.38 108.96 87.5 109.53 87.04C109.81 86.81 110.17 86.69 110.52 86.69C114.39 86.78 116.61 84.28 117.67 83.08C117.93 82.79 118.12 82.57 118.28 82.44C118.89 81.96 123.16 77.31 123.73 76.24C124.1 75.56 124.87 75.19 125.6 75.35C126.53 75.55 127.32 76.19 127.95 77.24C129.21 79.35 129.54 82.75 129.04 84.49C128.31 87.05 127.13 97.25 127.5 103.95C127.75 108.4 128.63 112.41 129.16 114.81C129.45 116.12 129.62 116.91 129.61 117.3C129.53 119.14 122.41 119.99 116.46 120.39C114.62 120.51 113.15 120.6 111.98 120.6ZM107.93 109.47C108.01 109.47 108.1 109.51 108.16 109.57C108.26 109.68 108.44 109.86 108.27 113.99L108.26 114.3C108.15 117.06 108.09 118.58 108.82 119.3C109.67 120.13 111.69 120.09 116.42 119.77C125.01 119.2 128.95 118.08 128.99 117.27C129 116.97 128.81 116.08 128.56 114.95C128.03 112.54 127.14 108.49 126.88 103.99C126.5 97.24 127.7 86.92 128.44 84.33C128.9 82.72 128.56 79.48 127.42 77.57C126.88 76.67 126.23 76.13 125.47 75.97C125 75.87 124.51 76.1 124.28 76.54C123.66 77.7 119.38 82.37 118.67 82.93C118.55 83.03 118.36 83.24 118.14 83.49C117.03 84.74 114.75 87.31 110.72 87.31C110.65 87.31 110.59 87.31 110.52 87.31C110.31 87.3 110.1 87.38 109.93 87.52C109.33 88.01 107.98 88.95 105.66 89.65C104.18 90.1 103.38 91.6 103.27 94.11C103.2 95.66 102.52 97.74 101.8 99.94C100.85 102.82 99.87 105.8 100.46 107.26C102.14 111.41 104.69 110.55 107.39 109.64L107.85 109.49C107.86 109.47 107.9 109.47 107.93 109.47Z" fill="black"/>
<path d="M107.42 110.56C107.29 110.56 107.17 110.48 107.13 110.35C107.07 110.19 107.16 110.01 107.32 109.95C107.37 109.93 109.73 108.91 109.34 102.33C109.33 102.16 109.46 102.01 109.63 102C109.8 101.99 109.95 102.12 109.96 102.29C110.39 109.44 107.65 110.49 107.53 110.53C107.49 110.56 107.45 110.56 107.42 110.56Z" fill="black"/>
<path d="M116.01 72.9298C116.18 73.5098 116.5 74.9398 116.85 75.3898C117.71 76.4898 118.46 80.0298 117.1 82.4498C116.33 83.8298 116.25 84.9299 116.31 85.5799C116.35 86.0099 116.15 86.4299 115.78 86.6599L115.77 86.6698C114.9 87.2398 113.9 87.5998 112.86 87.6998L112.56 87.7299C112.07 87.7799 111.6 87.5198 111.38 87.0698C110.72 85.7198 109.3 82.9399 108.38 82.2299C107.15 81.2899 100.15 73.3798 104.81 70.9298C112.93 66.6598 115.49 71.1298 116.01 72.9298Z" fill="white"/>
<path d="M112.45 88.0499C111.89 88.0499 111.36 87.7299 111.11 87.2099C109.88 84.6799 108.82 82.9599 108.2 82.4799C107.36 81.8299 102.64 76.7499 102.94 73.1899C103.04 72.0599 103.62 71.2099 104.68 70.6499C108.16 68.8199 111.03 68.3599 113.21 69.2899C115.4 70.2199 116.14 72.2499 116.31 72.8499C116.34 72.9599 116.38 73.1099 116.43 73.2799C116.59 73.8799 116.86 74.8999 117.1 75.2099C118.01 76.3799 118.81 80.0799 117.38 82.6099C116.66 83.8999 116.57 84.9299 116.63 85.5599C116.68 86.0999 116.42 86.6299 115.96 86.9299C115.03 87.5399 113.98 87.9099 112.89 88.0199L112.59 88.0499C112.55 88.0499 112.5 88.0499 112.45 88.0499ZM110.79 69.4499C109.15 69.4499 107.2 70.0399 104.97 71.2099C104.1 71.6699 103.64 72.3299 103.56 73.2499C103.29 76.3499 107.51 81.1699 108.58 81.9899C109.53 82.7199 110.92 85.4099 111.67 86.9399C111.83 87.2599 112.18 87.4599 112.53 87.4199L112.83 87.3899C113.82 87.2899 114.77 86.9499 115.6 86.4099C115.88 86.2199 116.03 85.9199 116 85.6099C115.93 84.8899 116.02 83.7299 116.83 82.2999C118.11 80.0199 117.4 76.6099 116.6 75.5799C116.3 75.1999 116.06 74.3499 115.82 73.4299C115.78 73.2699 115.74 73.1299 115.71 73.0099C115.56 72.4799 114.9 70.6799 112.97 69.8499C112.32 69.5899 111.59 69.4499 110.79 69.4499Z" fill="black"/>
<path d="M115.78 78.9C114.85 78.88 114.26 77.81 114.15 76.77C114.05 75.87 114.33 75.22 114.86 75.09C115.45 74.95 115.82 75.62 115.86 75.7C115.94 75.85 115.88 76.04 115.73 76.12C115.58 76.2 115.39 76.14 115.31 75.99C115.22 75.83 115.07 75.68 115 75.69C114.83 75.73 114.7 76.12 114.76 76.69C114.84 77.45 115.25 78.25 115.78 78.26C115.95 78.26 116.09 78.41 116.08 78.58C116.09 78.77 115.95 78.9 115.78 78.9Z" fill="black"/>
<path d="M117.78 73.86C117.78 73.86 117.52 67.35 113.24 66.49C108.95 65.63 103.81 67.04 102.41 68.94C101.01 70.84 102.23 74.01 102.23 74.01C102.23 74.01 100.57 77.01 102.77 78.38C104.97 79.75 107.16 83.29 109.44 82.13C111.72 80.97 112.97 79.64 112.87 77.31C112.74 74.22 117.78 73.86 117.78 73.86Z" fill="black"/>
<path d="M244.95 100.08C245.82 97.21 245.67 95.4 244.88 93.51L243.55 90.87L247.55 89.27L248.78 92.28C249.18 93.25 249.75 94.14 250.47 94.9L251.13 95.6L244.95 100.08Z" fill="white"/>
<path d="M244.95 100.39C244.89 100.39 244.82 100.37 244.77 100.33C244.66 100.25 244.61 100.11 244.65 99.99C245.56 96.99 245.29 95.28 244.59 93.63L243.27 91C243.23 90.92 243.23 90.83 243.26 90.75C243.29 90.67 243.35 90.6 243.44 90.57L247.44 88.97C247.6 88.91 247.78 88.98 247.84 89.14L249.07 92.15C249.45 93.09 250 93.94 250.69 94.67L251.35 95.37C251.41 95.44 251.44 95.52 251.43 95.61C251.42 95.7 251.38 95.78 251.3 95.83L245.12 100.32C245.08 100.37 245.01 100.39 244.95 100.39ZM243.98 91.02L245.16 93.36C245.96 95.27 246.07 96.99 245.49 99.3L250.66 95.54L250.24 95.1C249.49 94.31 248.9 93.39 248.49 92.38L247.38 89.66L243.98 91.02Z" fill="black"/>
<path d="M249.32 94.12C249.42 93.81 249.83 93.73 250.05 93.97C250.68 94.64 251.79 95.77 252.63 96.35C253.41 96.89 253.66 97.94 253.21 98.77C251.95 101.13 248.78 106.26 245.43 110.18C245.2 110.45 244.63 110.81 243.81 110.44C241.06 109.2 243.67 103.61 245.17 97.79C245.23 97.56 245.41 97.39 245.65 97.34L246.48 97.19C248.02 96.88 248.66 96.15 249.32 94.12Z" fill="white"/>
<path d="M244.49 110.9C244.24 110.9 243.97 110.85 243.68 110.72C241.3 109.65 242.44 105.91 243.75 101.59C244.13 100.33 244.53 99.03 244.86 97.71C244.95 97.36 245.23 97.1 245.58 97.03L246.41 96.88C247.82 96.6 248.38 95.99 249.01 94.02C249.09 93.77 249.29 93.59 249.55 93.53C249.81 93.47 250.09 93.55 250.27 93.75C250.86 94.38 251.98 95.52 252.8 96.09C253.71 96.72 254 97.93 253.48 98.91C252.17 101.37 249.01 106.46 245.66 110.38C245.43 110.66 245.02 110.9 244.49 110.9ZM249.61 94.21C248.92 96.37 248.17 97.16 246.54 97.49L245.7 97.64C245.59 97.66 245.5 97.75 245.47 97.86C245.13 99.19 244.73 100.5 244.35 101.76C243.12 105.81 242.06 109.3 243.94 110.14C244.7 110.48 245.12 110.05 245.19 109.96C248.51 106.08 251.64 101.05 252.94 98.61C253.31 97.91 253.1 97.04 252.45 96.59C251.58 95.99 250.43 94.81 249.82 94.17C249.77 94.12 249.71 94.13 249.69 94.13C249.66 94.15 249.63 94.17 249.61 94.21Z" fill="black"/>
<path d="M252.44 96.22C252.44 96.22 252.57 96.31 252.63 96.35C253.41 96.89 253.66 97.94 253.21 98.77C251.95 101.13 248.78 106.26 245.43 110.18C245.2 110.45 244.63 110.81 243.81 110.44C243.56 110.33 243.18 110.02 243.18 110.02L243.41 109.73C246.62 105.65 249.52 101.34 252.1 96.83L252.44 96.22Z" fill="white"/>
<path d="M244.49 110.9C244.24 110.9 243.97 110.85 243.68 110.72C243.4 110.59 243.02 110.29 242.98 110.26C242.85 110.15 242.83 109.96 242.93 109.83L243.16 109.54C246.35 105.48 249.26 101.16 251.82 96.68L252.17 96.07C252.21 95.99 252.29 95.94 252.37 95.92C252.45 95.9 252.54 95.92 252.62 95.97L252.81 96.1C253.72 96.73 254.01 97.94 253.49 98.92C252.18 101.38 249.02 106.47 245.67 110.39C245.43 110.66 245.02 110.9 244.49 110.9ZM243.63 109.96C243.74 110.04 243.86 110.11 243.95 110.15C244.71 110.49 245.13 110.06 245.2 109.97C248.52 106.09 251.65 101.06 252.95 98.62C253.31 97.95 253.13 97.13 252.55 96.67L252.37 96.98C249.8 101.48 246.87 105.84 243.66 109.92L243.63 109.96Z" fill="black"/>
<path d="M244.03 102.45C243.88 102.45 243.75 102.34 243.72 102.19C243.69 102.02 243.81 101.86 243.98 101.83L246.74 101.37C246.91 101.34 247.07 101.46 247.1 101.63C247.13 101.8 247.01 101.96 246.84 101.99L244.08 102.45C244.07 102.45 244.05 102.45 244.03 102.45Z" fill="black"/>
<path d="M243.58 104.02C243.43 104.02 243.3 103.91 243.27 103.75C243.24 103.58 243.36 103.42 243.53 103.4L245.78 103.07C245.95 103.05 246.11 103.16 246.13 103.33C246.16 103.5 246.04 103.66 245.87 103.68L243.62 104.01C243.62 104.02 243.6 104.02 243.58 104.02Z" fill="black"/>
<path d="M267.5 58.3801C267.5 58.3801 239.72 52.3001 231.26 57.1101C229.98 57.8401 228.77 59.3601 228.51 60.8001C227.7 65.1901 230.14 74.7501 243.53 92.7401C243.72 92.9901 244.06 93.0901 244.35 92.9801L248.6 91.3701C248.94 91.2401 249.13 90.8701 249.03 90.5101L243.36 70.6901C243.21 70.1701 243.64 69.6801 244.17 69.7401L270.64 72.9901L267.5 58.3801Z" fill="black"/>
<path d="M259.3 110.63L258.76 113.21C258.03 116.97 260.78 118.89 260.78 118.89L252.65 119.88C252.65 119.88 254.43 118.8 254.06 113.58L253.59 109.21L259.3 110.63Z" fill="white"/>
<path d="M252.64 120.19C252.51 120.19 252.39 120.11 252.35 119.98C252.3 119.84 252.36 119.69 252.48 119.61C252.49 119.6 254.08 118.5 253.75 113.6L253.29 109.24C253.28 109.14 253.32 109.04 253.4 108.97C253.48 108.9 253.58 108.88 253.68 108.9L259.39 110.32C259.55 110.36 259.65 110.52 259.62 110.69L259.08 113.27C258.4 116.79 260.95 118.62 260.98 118.63C261.09 118.7 261.14 118.84 261.1 118.96C261.07 119.09 260.96 119.18 260.84 119.19L252.71 120.18C252.66 120.19 252.65 120.19 252.64 120.19ZM253.95 109.62L254.37 113.55C254.6 116.93 253.95 118.65 253.42 119.48L260.06 118.67C259.26 117.85 257.9 115.98 258.45 113.15L258.93 110.86L253.95 109.62Z" fill="black"/>
<path d="M259.46 115.42C260.13 116.19 261.35 117.64 262.28 119.04C262.87 119.92 262.52 120.93 261.89 121.78C260.61 123.5 258.85 124.82 256.79 126.18C254.99 127.37 252.97 128.62 250.54 129.73C249.88 130.03 248.4 130.44 247.4 129.95C244.4 128.46 249.4 123.78 253.33 118.39C253.48 118.18 253.75 118.07 254 118.13L254.92 118.31C255.84 118.49 256.78 118.11 257.3 117.33L258.54 115.48C258.76 115.16 259.21 115.13 259.46 115.42Z" fill="white"/>
<path d="M248.52 130.49C248.08 130.49 247.64 130.42 247.26 130.23C246.68 129.94 246.33 129.53 246.22 129C245.86 127.35 247.82 124.9 250.31 121.78C251.23 120.63 252.18 119.44 253.08 118.2C253.31 117.89 253.69 117.74 254.07 117.81L254.99 117.99C255.79 118.15 256.6 117.82 257.05 117.14L258.29 115.29C258.44 115.06 258.69 114.92 258.97 114.9C259.25 114.89 259.51 114.99 259.7 115.21C260.35 115.96 261.59 117.44 262.54 118.86C263.12 119.73 262.98 120.83 262.14 121.95C260.85 123.68 259.14 124.99 256.96 126.43C255.25 127.56 253.16 128.87 250.67 130C250.21 130.22 249.36 130.49 248.52 130.49ZM253.88 118.42C253.77 118.42 253.66 118.47 253.59 118.57C252.68 119.82 251.72 121.01 250.8 122.17C248.61 124.91 246.53 127.51 246.83 128.86C246.91 129.2 247.14 129.47 247.54 129.67C248.38 130.09 249.71 129.76 250.41 129.45C252.86 128.33 254.92 127.04 256.61 125.92C258.73 124.52 260.4 123.25 261.63 121.59C262.1 120.95 262.55 120.03 262.01 119.21C261.08 117.81 259.86 116.36 259.22 115.62C259.16 115.56 259.08 115.52 259 115.53C258.95 115.53 258.86 115.55 258.8 115.65L257.56 117.5C256.97 118.39 255.91 118.82 254.86 118.61L253.94 118.43C253.93 118.42 253.9 118.42 253.88 118.42Z" fill="black"/>
<path d="M261.8 118.39C261.8 118.39 262.24 118.97 262.28 119.04C262.43 119.26 262.51 119.52 262.56 119.78C262.71 120.63 262.42 121.49 261.82 122.12C261.68 122.27 261.48 122.46 261.25 122.68C258.89 124.92 256.24 126.84 253.38 128.4C251.93 129.19 248.71 130.82 247.39 129.96C246.98 129.69 246.74 128.89 246.74 128.89C246.74 128.89 247.51 129.35 249.82 128.2C253.73 126.26 256.38 124.08 259.6 121.48C260.24 120.97 260.67 120.5 261.12 119.94C261.5 119.48 261.73 118.95 261.8 118.39Z" fill="white"/>
<path d="M248.39 130.5C247.92 130.5 247.53 130.4 247.24 130.21C246.75 129.89 246.49 129.06 246.46 128.97C246.42 128.85 246.46 128.71 246.57 128.63C246.67 128.55 246.81 128.54 246.92 128.61C246.92 128.61 247.65 128.93 249.7 127.91C253.45 126.05 256.08 123.93 259.11 121.48L259.42 121.23C259.97 120.79 260.4 120.35 260.9 119.74C261.22 119.34 261.43 118.87 261.49 118.36C261.51 118.23 261.6 118.13 261.72 118.1C261.84 118.07 261.97 118.11 262.05 118.21C262.15 118.35 262.5 118.81 262.54 118.88C262.7 119.12 262.81 119.4 262.87 119.74C263.04 120.66 262.73 121.64 262.05 122.35C261.9 122.5 261.7 122.7 261.47 122.92C259.12 125.15 256.45 127.09 253.53 128.68C251.3 129.88 249.57 130.5 248.39 130.5ZM247.25 129.27C247.34 129.45 247.46 129.61 247.57 129.68C248.04 129.99 249.41 130.2 253.24 128.11C256.11 126.54 258.74 124.64 261.05 122.44C261.27 122.23 261.47 122.04 261.61 121.89C262.15 121.32 262.4 120.55 262.26 119.82C262.21 119.57 262.14 119.36 262.03 119.2C262.02 119.19 261.99 119.15 261.95 119.1C261.82 119.46 261.63 119.81 261.39 120.11C260.86 120.76 260.41 121.22 259.82 121.7L259.51 121.95C256.44 124.43 253.8 126.56 249.98 128.46C248.64 129.12 247.78 129.28 247.25 129.27Z" fill="black"/>
<path d="M254.07 122.45C254.05 122.45 254.03 122.45 254 122.44L250.97 121.79C250.8 121.75 250.69 121.59 250.73 121.42C250.77 121.25 250.93 121.14 251.1 121.18L254.13 121.83C254.3 121.87 254.41 122.03 254.37 122.2C254.35 122.35 254.22 122.45 254.07 122.45Z" fill="black"/>
<path d="M252.39 123.81C252.37 123.81 252.34 123.81 252.32 123.8L249.86 123.22C249.69 123.18 249.59 123.01 249.63 122.85C249.67 122.68 249.84 122.58 250 122.62L252.46 123.2C252.63 123.24 252.73 123.41 252.69 123.57C252.66 123.71 252.53 123.81 252.39 123.81Z" fill="black"/>
<path d="M249.53 66.3102C257.62 59.4002 283.67 59.1802 283.67 59.1802C283.67 59.1802 286.92 63.0502 285.37 70.8502C284.86 73.4202 283.04 75.7302 280.16 75.7302L264.18 75.8602C263.01 75.8702 262.08 76.8402 262.12 78.0102C262.42 85.7202 262.68 101.67 260.47 112.54C260.38 112.98 260.05 113.33 259.61 113.45C258.59 113.73 256.59 114.17 254.42 114.14C253.74 114.13 253.18 113.62 253.09 112.95L247.79 73.4302C247.63 72.2402 247.63 71.0302 247.83 69.8402C248.05 68.5802 248.52 67.1702 249.53 66.3102Z" fill="black"/>
<path d="M247.36 71.2302C247.35 71.2302 247.35 71.2302 247.36 71.2302C247.18 71.2202 247.04 71.0802 247.05 70.9102C247.24 64.3802 255.66 62.5102 255.75 62.5002C255.92 62.4602 256.08 62.5702 256.12 62.7402C256.16 62.9102 256.05 63.0702 255.88 63.1102C255.8 63.1302 247.85 64.8902 247.67 70.9302C247.66 71.1002 247.52 71.2302 247.36 71.2302Z" fill="white"/>
<path d="M237.36 43.0901C237.41 42.1801 237.7 41.2001 237.23 40.4601L236.28 39.2001C235.59 38.1301 235.66 36.7101 236.09 35.5501L237.34 32.5401C237.46 32.2001 237.94 32.9601 238.04 33.3101L241.44 45.3601C242.01 47.1101 243.94 47.2601 245.03 46.5101L249.51 43.4501L254.81 50.8101C254.81 50.8101 249.66 54.4401 243.06 55.6101C241.55 55.8801 236.63 55.7401 237.36 43.0901Z" fill="white"/>
<path d="M242.41 55.9901C241.68 55.9901 240.62 55.8001 239.65 54.9301C237.58 53.0901 236.71 49.1001 237.06 43.0801C237.07 42.8601 237.1 42.6301 237.13 42.4001C237.21 41.7301 237.28 41.1001 236.98 40.6301L236.04 39.3901C235.36 38.3401 235.28 36.8701 235.81 35.4401L237.06 32.4201C237.13 32.2101 237.31 32.1401 237.45 32.1401C237.93 32.1601 238.31 33.0901 238.35 33.2201L241.75 45.2701C242 46.0401 242.53 46.3701 242.93 46.5101C243.56 46.7201 244.32 46.6201 244.86 46.2501L249.34 43.1901C249.48 43.0901 249.67 43.1301 249.77 43.2701L255.07 50.6301C255.12 50.7001 255.14 50.7801 255.12 50.8601C255.11 50.9401 255.06 51.0201 254.99 51.0601C254.94 51.1001 249.71 54.7501 243.11 55.9101C242.94 55.9601 242.7 55.9901 242.41 55.9901ZM237.67 43.1101C237.25 50.3601 238.73 53.2901 240.05 54.4601C241.17 55.4601 242.37 55.4201 242.99 55.3101C248.63 54.3201 253.24 51.4701 254.36 50.7401L249.43 43.8901L245.2 46.7701C244.5 47.2501 243.53 47.3801 242.72 47.1001C241.96 46.8401 241.4 46.2601 241.14 45.4501L237.74 33.3801C237.7 33.2501 237.6 33.0701 237.51 32.9301L236.38 35.6601C235.92 36.8901 235.98 38.1601 236.54 39.0301L237.48 40.2701C237.91 40.9501 237.82 41.7201 237.73 42.4601C237.71 42.6801 237.68 42.9001 237.67 43.1101Z" fill="black"/>
<path d="M286.05 61.0303C285.46 58.6903 285.04 56.5203 282.78 50.5703C281.21 46.4403 283.47 37.9903 279.54 34.2203C273.07 28.0103 254.7 38.4503 253.5 39.1403L252.26 39.8103C250.86 40.6103 249.51 41.5303 248.22 42.5003L247.98 42.6803L253.78 51.8403L260.48 48.4003C262.33 51.3903 263.88 54.5703 265.1 57.8803L265.88 60.7503C265.88 60.7503 265.61 61.3003 272.83 62.3503C278.04 63.1003 282.77 62.7703 285 62.5303C285.74 62.4403 286.23 61.7403 286.05 61.0303Z" fill="white"/>
<path d="M279.56 63.1202C277.54 63.1202 275.22 63.0002 272.8 62.6502C266.02 61.6702 265.72 61.1102 265.62 60.9202C265.6 60.8802 265.58 60.8302 265.58 60.7802L264.81 57.9502C263.64 54.7902 262.14 51.7002 260.37 48.8002L253.92 52.1102C253.78 52.1802 253.6 52.1402 253.51 52.0002L247.71 42.8402C247.62 42.7002 247.66 42.5202 247.79 42.4202L248.03 42.2402C249.47 41.1602 250.8 40.2702 252.1 39.5302L253.35 38.8602C255.35 37.7002 273.19 27.7002 279.75 33.9902C282.27 36.4102 282.34 40.6602 282.41 44.4202C282.45 46.7402 282.49 48.9302 283.07 50.4602C285.07 55.7402 285.65 58.0802 286.15 60.1502C286.22 60.4202 286.28 60.6902 286.35 60.9602C286.46 61.3802 286.37 61.8302 286.12 62.1902C285.87 62.5502 285.47 62.7802 285.04 62.8302C283.8 62.9602 281.87 63.1202 279.56 63.1202ZM266.18 60.6202C266.37 60.7402 267.42 61.2402 272.89 62.0302C278.02 62.7702 282.67 62.4602 284.98 62.2002C285.24 62.1702 285.47 62.0302 285.62 61.8202C285.77 61.6102 285.82 61.3502 285.75 61.1002C285.68 60.8302 285.62 60.5602 285.55 60.2902C285.05 58.2402 284.48 55.9202 282.49 50.6802C281.87 49.0502 281.83 46.8102 281.79 44.4302C281.72 40.6202 281.65 36.6802 279.32 34.4402C272.98 28.3602 254.44 38.9502 253.66 39.4002L252.41 40.0802C251.14 40.8102 249.83 41.6802 248.41 42.7502L248.4 42.7602L253.9 51.4302L260.35 48.1202C260.49 48.0502 260.67 48.1002 260.76 48.2302C262.62 51.2402 264.18 54.4502 265.41 57.7602L266.18 60.6202ZM266.18 60.8702C266.18 60.8702 266.18 60.8802 266.17 60.8802C266.17 60.8802 266.17 60.8702 266.18 60.8702Z" fill="black"/>
<path d="M262.87 46.0802L259.77 48.9302C259.56 49.1302 259.3 49.2902 259.01 49.3502C258.42 49.4702 257.79 49.2602 257.4 48.7702L251.33 39.7502C250.88 39.0802 250.14 38.6602 249.33 38.6102L245.46 38.3002C244.95 38.2602 244.64 38.8702 245 39.2402C245.37 39.6202 245.93 40.0002 246.72 40.1402C247.21 40.2302 247.58 40.6002 247.65 41.0902C247.97 43.1702 250.35 44.0902 250.35 44.0902C250.35 44.0902 252.67 58.0002 259.27 56.3102C268.02 54.0702 273.03 47.9602 273.03 47.9602L262.87 46.0802Z" fill="white"/>
<path d="M258.18 56.7401C257.32 56.7401 256.5 56.4901 255.72 55.9801C251.88 53.4801 250.31 45.5801 250.07 44.2901C249.49 44.0301 247.63 43.0401 247.34 41.1201C247.29 40.7701 247.02 40.5001 246.66 40.4301C245.92 40.3001 245.29 39.9601 244.78 39.4401C244.53 39.1801 244.47 38.8001 244.62 38.4801C244.78 38.1401 245.12 37.9501 245.49 37.9801L249.36 38.2901C250.25 38.3401 251.09 38.8201 251.6 39.5701L257.67 48.5901C257.97 48.9601 258.47 49.1401 258.96 49.0401C259.17 49.0001 259.38 48.8801 259.57 48.7001L262.67 45.8501C262.74 45.7801 262.84 45.7601 262.94 45.7701L273.09 47.6301C273.2 47.6501 273.29 47.7301 273.33 47.8301C273.37 47.9301 273.35 48.0501 273.28 48.1301C273.23 48.1901 268.1 54.3501 259.36 56.5901C258.95 56.6901 258.56 56.7401 258.18 56.7401ZM245.41 38.5901C245.26 38.5901 245.2 38.7001 245.18 38.7401C245.16 38.7801 245.12 38.9001 245.22 39.0001C245.64 39.4301 246.16 39.7001 246.77 39.8101C247.39 39.9201 247.86 40.4101 247.96 41.0201C248.25 42.9001 250.44 43.7701 250.47 43.7801C250.57 43.8201 250.65 43.9101 250.67 44.0201C250.68 44.1101 252.2 52.9401 256.07 55.4601C257.04 56.0901 258.09 56.2701 259.2 55.9901C266.44 54.1401 271.14 49.5401 272.43 48.1501L262.97 46.4201L259.99 49.1601C259.72 49.4101 259.4 49.5901 259.08 49.6501C258.36 49.8001 257.62 49.5301 257.16 48.9601L251.07 39.9201C250.67 39.3301 250.02 38.9601 249.31 38.9201L245.44 38.6101C245.43 38.5901 245.42 38.5901 245.41 38.5901Z" fill="black"/>
<path d="M263.13 45.01C263.07 45.01 263.01 44.99 262.95 44.95C262.81 44.85 262.77 44.66 262.87 44.52L264.27 42.49C264.37 42.35 264.56 42.31 264.7 42.41C264.84 42.51 264.88 42.7 264.78 42.84L263.38 44.87C263.33 44.96 263.23 45.01 263.13 45.01Z" fill="black"/>
<path d="M273.43 47.3601C273.34 47.3601 273.26 47.3201 273.19 47.2501C273.08 47.1201 273.09 46.9201 273.22 46.8101C277.89 42.7401 279.31 39.3801 279.92 37.9501L280 37.7601C280.07 37.6001 280.25 37.5301 280.41 37.6001C280.57 37.6701 280.64 37.8501 280.57 38.0101L280.49 38.2001C279.87 39.6701 278.41 43.1301 273.63 47.2901C273.58 47.3401 273.5 47.3601 273.43 47.3601Z" fill="black"/>
<path d="M241.32 48.4301L248.77 48.7901C249.89 48.8401 250.91 48.1301 250.78 47.3601L248.29 31.8201C248.21 31.3301 247.66 30.9701 246.94 30.9301L239.49 30.5701C238.37 30.5201 237.35 31.2301 237.48 32.0001L239.97 47.5401C240.05 48.0401 240.59 48.4001 241.32 48.4301Z" fill="black"/>
<path d="M272.37 33.2201L274.52 33.7901C275.03 33.9301 275.01 34.6001 274.51 34.7901C268.91 36.8901 266.13 36.0701 264.39 35.8501C263.88 35.7901 263.76 35.0901 264.23 34.8701L264.24 34.8601C264.85 34.5701 265.14 33.8501 264.88 33.2201L263.37 29.4501L266.6 23.1201L270 31.3001C270.48 32.2501 271.34 32.9501 272.37 33.2201Z" fill="white"/>
<path d="M267.75 36.51C266.62 36.51 265.72 36.37 264.98 36.26C264.75 36.22 264.54 36.19 264.34 36.17C263.97 36.12 263.68 35.84 263.62 35.48C263.56 35.11 263.75 34.76 264.08 34.6C264.56 34.37 264.77 33.83 264.58 33.35L263.07 29.58C263.04 29.5 263.04 29.4 263.08 29.32L266.31 22.99C266.37 22.88 266.48 22.81 266.6 22.82C266.72 22.82 266.83 22.9 266.88 23.01L270.26 31.17C270.69 32.02 271.48 32.66 272.42 32.91L274.57 33.48C274.92 33.57 275.16 33.86 275.17 34.21C275.19 34.59 274.95 34.93 274.59 35.07C271.62 36.21 269.42 36.51 267.75 36.51ZM263.72 29.48L265.17 33.12C265.48 33.9 265.13 34.8 264.37 35.15C264.23 35.21 264.24 35.33 264.24 35.37C264.25 35.41 264.28 35.52 264.42 35.54C264.62 35.57 264.84 35.6 265.07 35.64C266.84 35.91 269.5 36.33 274.38 34.5C274.52 34.45 274.56 34.34 274.56 34.26C274.56 34.18 274.51 34.12 274.42 34.1L272.27 33.53C271.16 33.23 270.22 32.47 269.7 31.44L266.57 23.88L263.72 29.48Z" fill="black"/>
<path d="M259.44 20.4902C256.25 22.8502 257.54 25.0102 257.54 25.0102C257.77 25.6402 258.31 27.1002 258.24 27.4002C258.16 27.7702 257.76 28.4702 257.79 28.6702C257.82 28.8702 258.25 29.1802 258.91 29.1502C258.91 29.1502 260.05 32.2002 261.01 32.4702C261.97 32.7402 264.81 30.8602 264.81 30.8602L265.27 30.5002C266.76 29.3302 267.39 27.6102 267.37 25.7002C267.38 25.6902 266.76 15.0702 259.44 20.4902Z" fill="white"/>
<path d="M261.22 32.8002C261.11 32.8002 261.02 32.7902 260.93 32.7602C259.97 32.4902 259.02 30.2602 258.7 29.4502C258.03 29.4202 257.54 29.0602 257.49 28.7102C257.46 28.5202 257.56 28.2902 257.73 27.9002C257.82 27.7002 257.91 27.4702 257.94 27.3302C257.95 27.2102 257.84 26.7202 257.26 25.1302C257.1 24.8302 256.1 22.5802 259.26 20.2402C261.28 18.7502 263.01 18.3002 264.42 18.9002C266.75 19.9002 267.44 23.5202 267.63 25.0202C267.65 25.1902 267.53 25.3502 267.36 25.3702C267.19 25.3902 267.03 25.2702 267.01 25.1002C266.84 23.7002 266.21 20.3402 264.18 19.4702C262.99 18.9602 261.46 19.3902 259.63 20.7402C256.7 22.9102 257.8 24.8302 257.81 24.8402C257.82 24.8602 257.83 24.8702 257.84 24.8902C258.43 26.5002 258.62 27.1702 258.55 27.4602C258.51 27.6602 258.4 27.9002 258.3 28.1402C258.24 28.2902 258.14 28.5102 258.12 28.6102C258.19 28.6902 258.45 28.8502 258.9 28.8302C259.04 28.8202 259.16 28.9002 259.21 29.0302C259.66 30.2302 260.55 32.0002 261.1 32.1602C261.67 32.3202 263.51 31.3402 264.64 30.5902L265.08 30.2402C265.27 30.0902 265.46 29.9202 265.63 29.7402C265.75 29.6202 265.95 29.6102 266.07 29.7302C266.19 29.8502 266.2 30.0502 266.08 30.1702C265.89 30.3702 265.69 30.5602 265.47 30.7302L265.01 31.0902C264.53 31.4102 262.38 32.8002 261.22 32.8002Z" fill="black"/>
<path d="M260.13 18.4601C259.26 18.9601 258.51 19.8201 258.04 20.0201C257.28 20.3301 256.7 19.6501 255.82 20.3001C255.04 20.8801 254.49 21.6001 254.61 22.4801C254.63 22.6301 254.67 22.7801 254.73 22.9301C255.53 25.0001 256.99 24.8201 257.55 24.7601C257.55 24.7601 260.69 23.8901 261.34 23.8601C261.95 23.8301 262.96 24.3901 263.59 25.5801C263.67 25.7301 263.85 25.8101 264.02 25.7801C264.22 25.7401 264.36 25.5501 264.33 25.3501C264.26 24.7101 264.19 23.4201 264.79 23.2101C265.49 22.9601 266.81 24.1201 266.14 25.2801C265.93 25.6401 266.17 26.1101 266.58 26.1501C266.92 26.1901 267.31 26.0801 267.62 25.6201C267.62 25.6201 268.52 21.8401 266.84 19.3601C265.17 16.8701 261.29 17.7901 260.13 18.4601Z" fill="black"/>
<path d="M257.74 29.1901C257.69 29.1901 257.64 29.1801 257.59 29.1501C257.2 28.9401 256.83 28.4301 256.6 27.7901C256.45 27.3501 256.39 26.9101 256.42 26.5401C256.48 25.9301 256.79 25.7401 256.96 25.6801C257.52 25.4901 258.18 26.0701 258.54 27.0701C258.6 27.2301 258.51 27.4101 258.35 27.4701C258.19 27.5301 258.01 27.4401 257.95 27.2801C257.68 26.5401 257.27 26.2301 257.16 26.2701C257.13 26.2801 257.06 26.3801 257.03 26.6101C257 26.8901 257.06 27.2401 257.18 27.5901C257.37 28.1401 257.67 28.5001 257.87 28.6101C258.02 28.6901 258.08 28.8801 258 29.0301C257.96 29.1301 257.85 29.1901 257.74 29.1901Z" fill="black"/>
<path d="M259.95 28.3C259.35 28.3 258.73 27.74 258.43 26.9C258.27 26.45 258.24 25.99 258.32 25.59C258.42 25.15 258.67 24.83 259.02 24.71C259.7 24.47 260.5 25.07 260.84 26.06C261 26.51 261.03 26.9701 260.95 27.3701C260.85 27.8101 260.6 28.13 260.25 28.25C260.15 28.28 260.05 28.3 259.95 28.3ZM259.33 25.2801C259.29 25.2801 259.26 25.29 259.23 25.3C259.09 25.35 258.99 25.5 258.94 25.73C258.88 26.01 258.91 26.3601 259.03 26.7001C259.27 27.4001 259.77 27.77 260.06 27.67C260.2 27.62 260.3 27.47 260.35 27.24C260.41 26.96 260.38 26.6101 260.26 26.2701C260.04 25.6401 259.62 25.2801 259.33 25.2801Z" fill="black"/>
<path d="M260.25 25.8501C260.13 25.8501 260.01 25.7701 259.96 25.6501C259.9 25.4901 259.98 25.3101 260.14 25.2501L263.47 23.9501C263.63 23.8901 263.81 23.9701 263.87 24.1301C263.93 24.2901 263.85 24.4701 263.69 24.5301L260.36 25.8301C260.32 25.8401 260.28 25.8501 260.25 25.8501Z" fill="black"/>
<path d="M165.95 42.85C165.85 42.85 165.75 42.8 165.69 42.71C165.6 42.57 165.64 42.37 165.78 42.28L198.96 20.58C199.1 20.49 199.3 20.53 199.39 20.67C199.48 20.81 199.44 21.01 199.3 21.1L166.12 42.8C166.07 42.83 166.01 42.85 165.95 42.85Z" fill="black"/>
<path d="M163.57 37.6401C163.49 37.6401 163.42 37.6101 163.36 37.5501C163.24 37.4301 163.23 37.2301 163.35 37.1101L176.09 23.6601C176.21 23.5301 176.41 23.5301 176.53 23.6501C176.65 23.7701 176.66 23.9701 176.54 24.0901L163.8 37.5401C163.73 37.6101 163.65 37.6401 163.57 37.6401Z" fill="black"/>
<path d="M47.15 126.5H47.14L44.72 126.42C44.55 126.41 44.41 126.27 44.42 126.1C44.43 125.93 44.57 125.79 44.74 125.8L47.16 125.88C47.33 125.89 47.47 126.03 47.46 126.2C47.45 126.37 47.31 126.5 47.15 126.5Z" fill="black"/>
<path d="M41.52 126.31H41.51L39.09 126.23C38.92 126.22 38.78 126.08 38.79 125.91C38.8 125.74 38.95 125.59 39.11 125.61L41.53 125.69C41.7 125.7 41.84 125.84 41.83 126.01C41.82 126.18 41.69 126.31 41.52 126.31Z" fill="black"/>
<path d="M43.18 124.76H43.17C43 124.75 42.86 124.61 42.87 124.44L42.95 122.03C42.96 121.86 43.1 121.72 43.27 121.73C43.44 121.74 43.58 121.88 43.57 122.05L43.49 124.46C43.48 124.63 43.34 124.76 43.18 124.76Z" fill="black"/>
<path d="M42.99 130.38H42.98C42.81 130.37 42.67 130.23 42.68 130.06L42.76 127.65C42.77 127.48 42.91 127.33 43.08 127.35C43.25 127.36 43.39 127.5 43.38 127.67L43.3 130.08C43.3 130.25 43.16 130.38 42.99 130.38Z" fill="black"/>
<path d="M276.22 12.72H276.21L273.79 12.64C273.62 12.63 273.48 12.49 273.49 12.32C273.5 12.15 273.64 12.01 273.81 12.02L276.23 12.1C276.4 12.11 276.54 12.25 276.53 12.42C276.53 12.58 276.39 12.72 276.22 12.72Z" fill="black"/>
<path d="M270.6 12.5299H270.59L268.17 12.4499C268 12.4399 267.86 12.2999 267.87 12.1299C267.88 11.9599 268.02 11.8099 268.19 11.8299L270.61 11.9099C270.78 11.9199 270.92 12.0599 270.91 12.2299C270.9 12.3999 270.76 12.5299 270.6 12.5299Z" fill="black"/>
<path d="M272.26 10.98H272.25C272.08 10.97 271.94 10.83 271.95 10.66L272.03 8.24997C272.04 8.07997 272.19 7.93997 272.35 7.94997C272.52 7.95997 272.66 8.09997 272.65 8.26997L272.57 10.68C272.56 10.85 272.42 10.98 272.26 10.98Z" fill="black"/>
<path d="M272.07 16.6001H272.06C271.89 16.5901 271.75 16.4501 271.76 16.2801L271.84 13.8701C271.85 13.7001 272 13.5601 272.16 13.5701C272.33 13.5801 272.47 13.7201 272.46 13.8901L272.38 16.3001C272.38 16.4701 272.24 16.6001 272.07 16.6001Z" fill="black"/>
<path d="M52.51 100.69C52.41 100.69 52.32 100.65 52.26 100.56C52.16 100.42 52.19 100.23 52.32 100.12L70.55 86.6101C70.69 86.5101 70.88 86.5401 70.99 86.6701C71.09 86.8101 71.06 87.0001 70.93 87.1101L52.7 100.63C52.64 100.67 52.58 100.69 52.51 100.69Z" fill="black"/>
<path d="M70.99 93.39C70.89 93.39 70.8 93.35 70.74 93.26C70.64 93.12 70.67 92.93 70.81 92.82L86.92 80.99C87.06 80.89 87.25 80.92 87.36 81.06C87.46 81.2 87.43 81.39 87.29 81.5L71.17 93.33C71.12 93.37 71.05 93.39 70.99 93.39Z" fill="black"/>
<path d="M54.69 105.36C54.59 105.36 54.5 105.32 54.44 105.23C54.34 105.09 54.37 104.9 54.51 104.79L66.86 95.72C67 95.62 67.19 95.65 67.3 95.79C67.4 95.93 67.37 96.12 67.23 96.23L54.88 105.3C54.82 105.34 54.76 105.36 54.69 105.36Z" fill="black"/>
<path d="M140.68 95.7098C140.58 95.7098 140.49 95.6698 140.43 95.5798C140.33 95.4398 140.36 95.2498 140.49 95.1398L158.72 81.6298C158.86 81.5298 159.05 81.5598 159.16 81.6898C159.26 81.8298 159.23 82.0198 159.1 82.1298L140.87 95.6398C140.81 95.6898 140.75 95.7098 140.68 95.7098Z" fill="black"/>
<path d="M142.86 100.38C142.77 100.38 142.67 100.34 142.61 100.26C142.51 100.12 142.53 99.9299 142.67 99.8199L171.59 78.1199C171.73 78.0199 171.92 78.0399 172.03 78.1799C172.13 78.3199 172.11 78.5099 171.97 78.6199L143.05 100.32C142.99 100.36 142.93 100.38 142.86 100.38Z" fill="black"/>
<path d="M52.49 23.6501C52.49 23.0201 52.27 22.5301 51.82 22.1801C51.38 21.8301 50.6 21.4701 49.48 21.0901C48.36 20.7201 47.45 20.3501 46.74 20.0001C44.43 18.8701 43.28 17.3101 43.28 15.3301C43.28 14.3401 43.57 13.4701 44.14 12.7201C44.71 11.9701 45.53 11.3801 46.58 10.9601C47.63 10.5401 48.81 10.3301 50.12 10.3301C51.4 10.3301 52.55 10.5601 53.56 11.0101C54.57 11.4701 55.36 12.1201 55.93 12.9601C56.49 13.8001 56.77 14.7701 56.77 15.8501H52.5C52.5 15.1201 52.28 14.5601 51.83 14.1601C51.39 13.7601 50.79 13.5601 50.03 13.5601C49.26 13.5601 48.66 13.7301 48.22 14.0701C47.78 14.4101 47.55 14.8401 47.55 15.3601C47.55 15.8201 47.79 16.2301 48.28 16.6001C48.77 16.9701 49.63 17.3501 50.86 17.7501C52.09 18.1501 53.1 18.5701 53.89 19.0301C55.81 20.1401 56.77 21.6701 56.77 23.6101C56.77 25.1701 56.18 26.3901 55.01 27.2801C53.84 28.1701 52.23 28.6101 50.18 28.6101C48.74 28.6101 47.43 28.3501 46.26 27.8301C45.09 27.3101 44.21 26.6001 43.62 25.7001C43.03 24.8001 42.73 23.7601 42.73 22.5901H47.03C47.03 23.5401 47.28 24.2501 47.77 24.7001C48.26 25.1501 49.06 25.3801 50.17 25.3801C50.88 25.3801 51.44 25.2301 51.85 24.9201C52.26 24.6101 52.49 24.2001 52.49 23.6501Z" fill="black"/>
<path d="M64.61 10.5901L68.58 22.9701L72.54 10.5901H78.19V28.3801H73.89V24.2201L74.31 15.7101L70 28.3801H67.16L62.85 15.7101L63.27 24.2301V28.3901H58.98V10.5901H64.61Z" fill="black"/>
<path d="M91.02 25.0601H85.14L84.11 28.3801H79.53L86.06 10.5901H90.09L96.67 28.3801H92.06L91.02 25.0601ZM86.17 21.7401H90L88.08 15.5701L86.17 21.7401Z" fill="black"/>
<path d="M102.25 25.0801H109.72V28.3801H97.96V10.5901H102.25V25.0801Z" fill="black"/>
<path d="M115.82 25.0801H123.29V28.3801H111.53V10.5901H115.82V25.0801Z" fill="black"/>
<path d="M55.6 47.9501C55.03 48.5801 54.21 49.0901 53.12 49.4701C52.03 49.8501 50.84 50.0501 49.54 50.0501C47.54 50.0501 45.95 49.4401 44.75 48.2201C43.55 47.0001 42.92 45.3001 42.83 43.1201L42.82 41.8001C42.82 40.3001 43.09 38.9901 43.62 37.8701C44.15 36.7501 44.91 35.8901 45.9 35.2801C46.89 34.6801 48.03 34.3701 49.33 34.3701C51.23 34.3701 52.7 34.8001 53.76 35.6701C54.81 36.5401 55.42 37.8401 55.6 39.5601H52.06C51.93 38.7101 51.66 38.1001 51.24 37.7401C50.82 37.3801 50.23 37.2001 49.46 37.2001C48.54 37.2001 47.83 37.5901 47.32 38.3701C46.81 39.1501 46.56 40.2701 46.56 41.7201V42.6401C46.56 44.1601 46.82 45.3101 47.34 46.0701C47.86 46.8301 48.68 47.2201 49.8 47.2201C50.76 47.2201 51.47 47.0101 51.94 46.5801V44.2101H49.38V41.6901H55.61V47.9501H55.6Z" fill="black"/>
<path d="M63.41 44.4401H61.42V49.8401H57.74V34.5801H63.74C65.55 34.5801 66.96 34.9801 67.98 35.7801C69 36.5801 69.51 37.7201 69.51 39.1801C69.51 40.2401 69.3 41.1201 68.87 41.8201C68.44 42.5201 67.77 43.0801 66.85 43.5201L70.03 49.6801V49.8401H66.1L63.41 44.4401ZM61.42 41.6101H63.75C64.45 41.6101 64.97 41.4301 65.33 41.0601C65.68 40.6901 65.86 40.1801 65.86 39.5201C65.86 38.8601 65.68 38.3501 65.33 37.9701C64.97 37.6001 64.45 37.4101 63.76 37.4101H61.43V41.6101H61.42Z" fill="black"/>
<path d="M84.65 42.5201C84.65 44.0101 84.37 45.3201 83.82 46.4701C83.27 47.6201 82.48 48.5001 81.47 49.1201C80.45 49.7401 79.3 50.0501 78 50.0501C76.7 50.0501 75.55 49.7501 74.54 49.1501C73.53 48.5501 72.75 47.7001 72.19 46.5901C71.63 45.4801 71.33 44.2101 71.3 42.7701V41.9001C71.3 40.4101 71.57 39.0901 72.12 37.9501C72.67 36.8101 73.45 35.9301 74.48 35.3001C75.5 34.6801 76.67 34.3701 77.97 34.3701C79.26 34.3701 80.41 34.6801 81.43 35.2901C82.44 35.9001 83.23 36.7801 83.79 37.9101C84.35 39.0501 84.64 40.3501 84.64 41.8101V42.5201H84.65ZM80.91 41.8801C80.91 40.3601 80.66 39.2101 80.15 38.4301C79.64 37.6501 78.92 37.2501 77.98 37.2501C76.14 37.2501 75.16 38.6301 75.06 41.4001L75.05 42.5201C75.05 44.0101 75.3 45.1601 75.79 45.9701C76.29 46.7701 77.02 47.1801 78 47.1801C78.93 47.1801 79.64 46.7901 80.15 46.0001C80.65 45.2101 80.91 44.0801 80.91 42.6001V41.8801Z" fill="black"/>
<path d="M98.51 34.5801V44.5601C98.51 45.6901 98.27 46.6701 97.79 47.5001C97.31 48.3301 96.62 48.9601 95.72 49.3901C94.82 49.8201 93.75 50.0401 92.52 50.0401C90.66 50.0401 89.2 49.5601 88.13 48.5901C87.06 47.6301 86.52 46.3101 86.5 44.6301V34.5801H90.2V44.7101C90.24 46.3801 91.02 47.2101 92.53 47.2101C93.29 47.2101 93.87 47.0001 94.26 46.5801C94.65 46.1601 94.85 45.4801 94.85 44.5401V34.5801H98.51Z" fill="black"/>
<path d="M104.48 44.6601V49.8401H100.8V34.5801H106.89C108.06 34.5801 109.09 34.7901 109.99 35.2201C110.89 35.6501 111.58 36.2601 112.07 37.0501C112.56 37.8401 112.81 38.7401 112.81 39.7501C112.81 41.2401 112.28 42.4301 111.21 43.3201C110.14 44.2101 108.68 44.6601 106.83 44.6601H104.48ZM104.48 41.8201H106.89C107.6 41.8201 108.15 41.6401 108.52 41.2901C108.89 40.9401 109.08 40.4301 109.08 39.7801C109.08 39.0701 108.89 38.5001 108.5 38.0701C108.12 37.6401 107.59 37.4301 106.93 37.4201H104.48V41.8201Z" fill="black"/>
<path d="M122.64 45.7801C122.64 45.2401 122.45 44.8201 122.07 44.5201C121.69 44.2201 121.02 43.9101 120.06 43.5901C119.1 43.2701 118.32 42.9601 117.71 42.6601C115.73 41.6901 114.75 40.3601 114.75 38.6601C114.75 37.8101 115 37.0701 115.49 36.4201C115.98 35.7701 116.68 35.2701 117.58 34.9101C118.48 34.5501 119.49 34.3701 120.62 34.3701C121.72 34.3701 122.7 34.5701 123.57 34.9601C124.44 35.3501 125.12 35.9101 125.6 36.6301C126.08 37.3501 126.32 38.1801 126.32 39.1101H122.65C122.65 38.4901 122.46 38.0101 122.08 37.6601C121.7 37.3201 121.18 37.1501 120.53 37.1501C119.87 37.1501 119.35 37.3001 118.97 37.5901C118.59 37.8801 118.4 38.2501 118.4 38.6901C118.4 39.0801 118.61 39.4401 119.03 39.7501C119.45 40.0601 120.19 40.4001 121.24 40.7301C122.29 41.0601 123.16 41.4301 123.84 41.8201C125.49 42.7701 126.31 44.0801 126.31 45.7501C126.31 47.0801 125.81 48.1301 124.8 48.8901C123.79 49.6501 122.41 50.0301 120.66 50.0301C119.42 50.0301 118.3 49.8101 117.3 49.3601C116.3 48.9201 115.54 48.3101 115.04 47.5401C114.53 46.7701 114.28 45.8801 114.28 44.8701H117.97C117.97 45.6901 118.18 46.2901 118.6 46.6801C119.02 47.0701 119.71 47.2601 120.66 47.2601C121.27 47.2601 121.75 47.1301 122.1 46.8701C122.46 46.6201 122.64 46.2601 122.64 45.7801Z" fill="black"/>
</svg>
